<svg width="43" height="16" viewBox="0 0 43 16" fill="none" xmlns="http://www.w3.org/2000/svg">
<path d="M29.7772 8.00505C29.7772 8.30553 30.0286 8.55082 30.323 8.55082H34.2905V12.5184C34.2905 12.8127 34.5358 13.0641 34.8363 13.0641C35.1367 13.0641 35.3882 12.8127 35.3882 12.5184V8.55082H39.3496C39.6439 8.55082 39.8953 8.30553 39.8953 8.00505C39.8953 7.70457 39.6439 7.45315 39.3496 7.45315H35.3882V3.49175C35.3882 3.1974 35.1367 2.94598 34.8363 2.94598C34.5358 2.94598 34.2905 3.1974 34.2905 3.49175V7.45315H30.323C30.0286 7.45315 29.7772 7.70457 29.7772 8.00505Z" fill="#2D3039" fill-opacity="0.6"/>
<path d="M8.24233 14.2599C11.6641 14.2599 14.4972 11.4207 14.4972 8.00503C14.4972 4.58326 11.658 1.75018 8.2362 1.75018C4.82057 1.75018 1.98749 4.58326 1.98749 8.00503C1.98749 11.4207 4.8267 14.2599 8.24233 14.2599ZM8.24233 13.2174C5.34793 13.2174 3.03609 10.8994 3.03609 8.00503C3.03609 5.11063 5.3418 2.79266 8.2362 2.79266C11.1306 2.79266 13.4547 5.11063 13.4547 8.00503C13.4547 10.8994 11.1367 13.2174 8.24233 13.2174ZM8.24233 4.88374C7.97865 4.88374 7.78242 5.07384 7.78242 5.34365V8.40975L7.83148 9.70365L7.21826 8.96778L6.48852 8.23192C6.40267 8.14607 6.29229 8.09701 6.16352 8.09701C5.9121 8.09701 5.722 8.28711 5.722 8.53853C5.722 8.66731 5.75879 8.77769 5.83851 8.85741L7.88667 10.8933C8.00931 11.0159 8.11356 11.0711 8.24233 11.0711C8.37724 11.0711 8.48762 11.0098 8.60413 10.8933L10.6462 8.85741C10.7259 8.77769 10.7749 8.66731 10.7749 8.53853C10.7749 8.28711 10.5787 8.09701 10.3273 8.09701C10.1924 8.09701 10.082 8.13994 10.0023 8.23192L9.27868 8.96778L8.65319 9.70978L8.70225 8.40975V5.34365C8.70225 5.07384 8.51215 4.88374 8.24233 4.88374Z" fill="#2D3039" fill-opacity="0.6"/>
</svg>
