<svg width="22" height="22" viewBox="0 0 22 22" fill="none" xmlns="http://www.w3.org/2000/svg">
<rect opacity="0.01" x="-0.000244141" y="22" width="22" height="22" transform="rotate(-90 -0.000244141 22)" fill="#18A0FB"/>
<path d="M4.58301 11.9167L15.4547 11.9167L12.1272 15.9133C11.8032 16.3032 11.8565 16.8818 12.2463 17.2058C12.6362 17.5299 13.2148 17.4765 13.5388 17.0867L18.1222 11.5867C18.153 11.5429 18.1806 11.497 18.2047 11.4492C18.2047 11.4033 18.2047 11.3758 18.2688 11.33C18.3104 11.2249 18.3321 11.113 18.333 11C18.3321 10.887 18.3104 10.7751 18.2688 10.67C18.2688 10.6242 18.2688 10.5967 18.2047 10.5508C18.1806 10.503 18.153 10.4571 18.1222 10.4133L13.5388 4.91334C13.3643 4.70385 13.1057 4.5829 12.833 4.58335C12.6188 4.58293 12.4113 4.65752 12.2463 4.79418C12.0589 4.9496 11.941 5.17322 11.9186 5.4157C11.8962 5.65819 11.9713 5.8996 12.1272 6.08668L15.4547 10.0833L4.58301 10.0833C4.07675 10.0833 3.66634 10.4938 3.66634 11C3.66634 11.5063 4.07675 11.9167 4.58301 11.9167Z" fill="#18A0FB"/>
</svg>
