<svg width="42" height="16" viewBox="0 0 42 16" fill="none" xmlns="http://www.w3.org/2000/svg">
<path d="M2.30066 8.25973C2.30066 8.43288 2.37569 8.60025 2.50843 8.72722L6.31184 12.5306C6.45036 12.6634 6.60619 12.7269 6.76202 12.7269C7.12562 12.7269 7.38534 12.4671 7.38534 12.1209C7.38534 11.9419 7.31608 11.7861 7.20065 11.6764L5.90784 10.3663L4.19948 8.80802L5.55 8.88882H12.5681C12.9433 8.88882 13.2088 8.62911 13.2088 8.25973C13.2088 7.88458 12.9433 7.63064 12.5681 7.63064H5.55L4.20525 7.71144L5.90784 6.15314L7.20065 4.84301C7.31608 4.72758 7.38534 4.57175 7.38534 4.39284C7.38534 4.04655 7.12562 3.7926 6.76202 3.7926C6.60619 3.7926 6.45036 3.85032 6.3003 3.9946L2.50843 7.79224C2.37569 7.91344 2.30066 8.08659 2.30066 8.25973Z" fill="#2D3039" fill-opacity="0.6"/>
<path d="M39.8041 8.25973C39.8041 8.08659 39.7291 7.91344 39.5963 7.79224L35.7987 3.9946C35.6544 3.85032 35.4986 3.7926 35.337 3.7926C34.9791 3.7926 34.7194 4.04655 34.7194 4.39284C34.7194 4.57175 34.7887 4.72758 34.9041 4.84301L36.1969 6.15314L37.8937 7.71144L36.5548 7.63064H29.5366C29.1557 7.63064 28.896 7.88458 28.896 8.25973C28.896 8.62911 29.1557 8.88882 29.5366 8.88882H36.5548L37.8995 8.80802L36.1969 10.3663L34.9041 11.6764C34.7887 11.7861 34.7194 11.9419 34.7194 12.1209C34.7194 12.4671 34.9791 12.7269 35.337 12.7269C35.4986 12.7269 35.6486 12.6634 35.7871 12.5306L39.5963 8.72722C39.7291 8.60025 39.8041 8.43288 39.8041 8.25973Z" fill="#2D3039" fill-opacity="0.2"/>
</svg>
