<svg width="15" height="12" viewBox="0 0 15 12" fill="none" xmlns="http://www.w3.org/2000/svg">
<path d="M2.54496 11.2346H12.1603C13.3727 11.2346 14.0014 10.6059 14.0014 9.41033V2.57915C14.0014 1.37794 13.3727 0.754883 12.1603 0.754883H2.54496C1.33253 0.754883 0.703857 1.37794 0.703857 2.57915V9.41033C0.703857 10.6115 1.33253 11.2346 2.54496 11.2346ZM2.61232 10.1344C2.0903 10.1344 1.80403 9.85938 1.80403 9.3149V2.66896C1.80403 2.12449 2.0903 1.85506 2.61232 1.85506H5.16629V10.1344H2.61232ZM12.0929 1.85506C12.6093 1.85506 12.9012 2.12449 12.9012 2.66896V9.3149C12.9012 9.85938 12.6093 10.1344 12.0929 10.1344H6.21034V1.85506H12.0929ZM4.06612 3.90946C4.26258 3.90946 4.43097 3.74107 4.43097 3.55022C4.43097 3.35937 4.26258 3.19659 4.06612 3.19659H2.91543C2.71336 3.19659 2.54496 3.35937 2.54496 3.55022C2.54496 3.74107 2.71336 3.90946 2.91543 3.90946H4.06612ZM4.06612 5.41378C4.26258 5.41378 4.43097 5.24539 4.43097 5.05454C4.43097 4.86369 4.26258 4.70091 4.06612 4.70091H2.91543C2.71336 4.70091 2.54496 4.86369 2.54496 5.05454C2.54496 5.24539 2.71336 5.41378 2.91543 5.41378H4.06612ZM4.06612 6.91248C4.26258 6.91248 4.43097 6.7497 4.43097 6.55886C4.43097 6.36801 4.26258 6.20523 4.06612 6.20523H2.91543C2.71336 6.20523 2.54496 6.36801 2.54496 6.55886C2.54496 6.7497 2.71336 6.91248 2.91543 6.91248H4.06612Z" fill="#2D3039" fill-opacity="0.6"/>
</svg>
