<svg width="186" height="24" viewBox="0 0 186 24" fill="none" xmlns="http://www.w3.org/2000/svg">
<rect x="0.91748" y="0.179993" width="184.688" height="23.64" rx="5.91" fill="#2D3039" fill-opacity="0.1"/>
<path d="M40.1626 17V9.93787H40.9691V12.7421H41.0442C41.1723 12.4576 41.3677 12.2388 41.6303 12.0856C41.8961 11.9324 42.2196 11.8558 42.601 11.8558C43.1387 11.8558 43.5639 12.0215 43.8765 12.3529C44.1891 12.6811 44.3454 13.1391 44.3454 13.7268V17H43.5389V13.9238C43.5389 13.0297 43.1497 12.5827 42.3712 12.5827C41.9273 12.5827 41.5819 12.7124 41.3349 12.9719C41.0911 13.2282 40.9691 13.5737 40.9691 14.0082V17H40.1626ZM45.9635 10.6366H46.77V11.9449H47.8955V12.6202H46.77V15.4807C46.77 15.7776 46.8294 15.9934 46.9482 16.1278C47.067 16.2622 47.2577 16.3294 47.5203 16.3294C47.636 16.3294 47.761 16.3232 47.8955 16.3107V16.9906C47.7173 17.0219 47.5594 17.0375 47.4218 17.0375C46.8998 17.0375 46.5262 16.9328 46.3011 16.7233C46.076 16.5139 45.9635 16.1684 45.9635 15.687V12.6202H45.1475V11.9449H45.9635V10.6366ZM49.2602 10.6366H50.0668V11.9449H51.1922V12.6202H50.0668V15.4807C50.0668 15.7776 50.1262 15.9934 50.245 16.1278C50.3638 16.2622 50.5545 16.3294 50.8171 16.3294C50.9328 16.3294 51.0578 16.3232 51.1922 16.3107V16.9906C51.0141 17.0219 50.8562 17.0375 50.7186 17.0375C50.1965 17.0375 49.823 16.9328 49.5979 16.7233C49.3728 16.5139 49.2602 16.1684 49.2602 15.687V12.6202H48.4443V11.9449H49.2602V10.6366ZM54.6813 11.8558C55.3253 11.8558 55.8396 12.0934 56.2241 12.5686C56.6117 13.0438 56.8056 13.6784 56.8056 14.4725C56.8056 15.2634 56.6117 15.898 56.2241 16.3763C55.8364 16.8515 55.3222 17.0891 54.6813 17.0891C54.3218 17.0891 54.0029 17.0156 53.7247 16.8687C53.4464 16.7186 53.2385 16.5092 53.101 16.2403H53.026V18.6882H52.2194V11.9449H52.9884V12.789H53.0635C53.226 12.4982 53.4496 12.27 53.7341 12.1043C54.0217 11.9386 54.3374 11.8558 54.6813 11.8558ZM54.489 16.3623C54.9517 16.3623 55.3144 16.195 55.577 15.8605C55.8396 15.526 55.9709 15.0633 55.9709 14.4725C55.9709 13.8816 55.8396 13.4189 55.577 13.0844C55.3175 12.7499 54.9564 12.5827 54.4937 12.5827C54.0373 12.5827 53.6747 12.753 53.4058 13.0938C53.1369 13.4314 53.0025 13.891 53.0025 14.4725C53.0025 15.0508 53.1354 15.5104 53.4011 15.8511C53.67 16.1919 54.0326 16.3623 54.489 16.3623ZM57.7624 13.3283C57.7624 12.9093 57.9421 12.5592 58.3016 12.2778C58.6612 11.9965 59.1098 11.8558 59.6475 11.8558C60.1758 11.8558 60.6119 11.9777 60.9558 12.2216C61.2997 12.4654 61.4982 12.7952 61.5514 13.211H60.7542C60.6979 13.0047 60.5728 12.8421 60.379 12.7233C60.1883 12.6014 59.9429 12.5404 59.6428 12.5404C59.3396 12.5404 59.0848 12.6108 58.8784 12.7515C58.6752 12.8921 58.5736 13.0735 58.5736 13.2954C58.5736 13.4674 58.644 13.6112 58.7846 13.7268C58.9285 13.8394 59.1504 13.9316 59.4505 14.0035L60.229 14.1911C60.7104 14.3068 61.0652 14.474 61.2934 14.6928C61.5248 14.9117 61.6405 15.2009 61.6405 15.5604C61.6405 16.0074 61.4482 16.3748 61.0637 16.6624C60.6791 16.9469 60.1961 17.0891 59.6147 17.0891C59.0519 17.0891 58.5908 16.964 58.2313 16.714C57.8718 16.4639 57.6702 16.1293 57.6264 15.7104H58.4564C58.5252 15.9293 58.6612 16.1012 58.8644 16.2263C59.0676 16.3482 59.327 16.4091 59.6428 16.4091C59.9836 16.4091 60.2634 16.3357 60.4822 16.1887C60.701 16.0418 60.8104 15.8527 60.8104 15.6213C60.8104 15.2775 60.5431 15.0399 60.0086 14.9086L59.141 14.6975C58.6627 14.5819 58.3126 14.4162 58.0906 14.2005C57.8718 13.9816 57.7624 13.6909 57.7624 13.3283ZM63.3804 17.0469C63.2147 17.0469 63.0709 16.9875 62.949 16.8687C62.8302 16.7468 62.7708 16.603 62.7708 16.4373C62.7708 16.2685 62.8302 16.1247 62.949 16.0059C63.0709 15.8871 63.2147 15.8277 63.3804 15.8277C63.5492 15.8277 63.693 15.8871 63.8118 16.0059C63.9306 16.1247 63.99 16.2685 63.99 16.4373C63.99 16.603 63.9306 16.7468 63.8118 16.8687C63.693 16.9875 63.5492 17.0469 63.3804 17.0469ZM63.3804 13.4408C63.2147 13.4408 63.0709 13.3814 62.949 13.2626C62.8302 13.1407 62.7708 12.9969 62.7708 12.8312C62.7708 12.6624 62.8302 12.5186 62.949 12.3998C63.0709 12.281 63.2147 12.2216 63.3804 12.2216C63.5492 12.2216 63.693 12.281 63.8118 12.3998C63.9306 12.5186 63.99 12.6624 63.99 12.8312C63.99 12.9969 63.9306 13.1407 63.8118 13.2626C63.693 13.3814 63.5492 13.4408 63.3804 13.4408ZM65.3266 18.4396H64.6139L67.0992 9.93787H67.812L65.3266 18.4396ZM68.3327 18.4396H67.6199L70.1053 9.93787H70.818L68.3327 18.4396ZM71.2684 13.3283C71.2684 12.9093 71.4482 12.5592 71.8077 12.2778C72.1672 11.9965 72.6158 11.8558 73.1535 11.8558C73.6818 11.8558 74.1179 11.9777 74.4618 12.2216C74.8057 12.4654 75.0042 12.7952 75.0574 13.211H74.2602C74.2039 13.0047 74.0789 12.8421 73.885 12.7233C73.6943 12.6014 73.4489 12.5404 73.1488 12.5404C72.8456 12.5404 72.5908 12.6108 72.3845 12.7515C72.1813 12.8921 72.0797 13.0735 72.0797 13.2954C72.0797 13.4674 72.15 13.6112 72.2907 13.7268C72.4345 13.8394 72.6564 13.9316 72.9566 14.0035L73.735 14.1911C74.2164 14.3068 74.5713 14.474 74.7995 14.6928C75.0308 14.9117 75.1465 15.2009 75.1465 15.5604C75.1465 16.0074 74.9542 16.3748 74.5697 16.6624C74.1852 16.9469 73.7022 17.0891 73.1207 17.0891C72.558 17.0891 72.0968 16.964 71.7373 16.714C71.3778 16.4639 71.1762 16.1293 71.1324 15.7104H71.9624C72.0312 15.9293 72.1672 16.1012 72.3704 16.2263C72.5736 16.3482 72.8331 16.4091 73.1488 16.4091C73.4896 16.4091 73.7694 16.3357 73.9882 16.1887C74.207 16.0418 74.3165 15.8527 74.3165 15.6213C74.3165 15.2775 74.0492 15.0399 73.5146 14.9086L72.6471 14.6975C72.1687 14.5819 71.8186 14.4162 71.5967 14.2005C71.3778 13.9816 71.2684 13.6909 71.2684 13.3283ZM76.2674 17V9.93787H77.074V12.7421H77.149C77.2772 12.4576 77.4726 12.2388 77.7352 12.0856C78.0009 11.9324 78.3245 11.8558 78.7059 11.8558C79.2436 11.8558 79.6687 12.0215 79.9814 12.3529C80.294 12.6811 80.4503 13.1391 80.4503 13.7268V17H79.6437V13.9238C79.6437 13.0297 79.2545 12.5827 78.4761 12.5827C78.0322 12.5827 77.6867 12.7124 77.4397 12.9719C77.1959 13.2282 77.074 13.5737 77.074 14.0082V17H76.2674ZM85.8198 11.9449V17H85.0507V16.2075H84.9757C84.8475 16.492 84.6506 16.7108 84.3848 16.864C84.1191 17.0141 83.794 17.0891 83.4095 17.0891C82.8467 17.0891 82.4184 16.9281 82.1246 16.6061C81.8307 16.2841 81.6838 15.8214 81.6838 15.2181V11.9449H82.4903V15.0211C82.4903 15.4807 82.581 15.8183 82.7623 16.034C82.9436 16.2466 83.2344 16.3529 83.6345 16.3529C84.0753 16.3529 84.4145 16.2294 84.6521 15.9824C84.8928 15.7323 85.0132 15.3837 85.0132 14.9367V11.9449H85.8198ZM89.6605 17.0891C89.3104 17.0891 88.9915 17.0109 88.7039 16.8546C88.4194 16.6952 88.1974 16.4748 88.038 16.1934H87.963V17H87.1939V9.93787H88.0005V12.7421H88.0755C88.2131 12.4701 88.4241 12.2544 88.7086 12.095C88.9962 11.9355 89.3135 11.8558 89.6605 11.8558C90.3045 11.8558 90.8188 12.0934 91.2033 12.5686C91.5878 13.0438 91.7801 13.6784 91.7801 14.4725C91.7801 15.2634 91.5863 15.898 91.1986 16.3763C90.8141 16.8515 90.3014 17.0891 89.6605 17.0891ZM89.4729 12.5827C89.0134 12.5827 88.6492 12.7515 88.3803 13.0891C88.1146 13.4267 87.9817 13.8878 87.9817 14.4725C87.9817 15.0571 88.1146 15.5182 88.3803 15.8558C88.6492 16.1934 89.0134 16.3623 89.4729 16.3623C89.9356 16.3623 90.2967 16.195 90.5562 15.8605C90.8157 15.526 90.9454 15.0633 90.9454 14.4725C90.9454 13.8816 90.8157 13.4189 90.5562 13.0844C90.2967 12.7499 89.9356 12.5827 89.4729 12.5827ZM92.901 17V9.93787H93.7076V12.7421H93.7826C93.9108 12.4576 94.1062 12.2388 94.3688 12.0856C94.6345 11.9324 94.9581 11.8558 95.3395 11.8558C95.8772 11.8558 96.3024 12.0215 96.615 12.3529C96.9276 12.6811 97.0839 13.1391 97.0839 13.7268V17H96.2774V13.9238C96.2774 13.0297 95.8881 12.5827 95.1097 12.5827C94.6658 12.5827 94.3203 12.7124 94.0734 12.9719C93.8295 13.2282 93.7076 13.5737 93.7076 14.0082V17H92.901ZM102.547 13.4924H101.731C101.662 13.2267 101.514 13.0094 101.286 12.8406C101.061 12.6686 100.775 12.5827 100.428 12.5827C99.9743 12.5827 99.6132 12.7515 99.3444 13.0891C99.0786 13.4267 98.9458 13.8816 98.9458 14.4537C98.9458 15.0352 99.0802 15.4994 99.349 15.8464C99.6179 16.1903 99.9774 16.3623 100.428 16.3623C100.768 16.3623 101.051 16.2857 101.276 16.1325C101.505 15.9793 101.656 15.7605 101.731 15.476H102.547C102.472 15.9543 102.249 16.3435 101.877 16.6436C101.505 16.9406 101.023 17.0891 100.432 17.0891C99.7226 17.0891 99.1583 16.8515 98.7394 16.3763C98.3205 15.898 98.1111 15.2571 98.1111 14.4537C98.1111 13.6659 98.3205 13.036 98.7394 12.5639C99.1583 12.0918 99.7211 11.8558 100.428 11.8558C101.018 11.8558 101.5 12.0106 101.872 12.32C102.247 12.6295 102.472 13.0203 102.547 13.4924ZM103.593 17V9.93787H104.4V12.7421H104.475C104.603 12.4576 104.798 12.2388 105.061 12.0856C105.327 11.9324 105.65 11.8558 106.032 11.8558C106.569 11.8558 106.994 12.0215 107.307 12.3529C107.62 12.6811 107.776 13.1391 107.776 13.7268V17H106.969V13.9238C106.969 13.0297 106.58 12.5827 105.802 12.5827C105.358 12.5827 105.012 12.7124 104.765 12.9719C104.522 13.2282 104.4 13.5737 104.4 14.0082V17H103.593ZM109.075 17V11.9449H109.882V17H109.075ZM109.877 10.7538C109.768 10.8632 109.635 10.9179 109.478 10.9179C109.322 10.9179 109.189 10.8632 109.08 10.7538C108.97 10.6413 108.916 10.5084 108.916 10.3552C108.916 10.202 108.97 10.0707 109.08 9.96131C109.189 9.84877 109.322 9.7925 109.478 9.7925C109.635 9.7925 109.768 9.84877 109.877 9.96131C109.986 10.0707 110.041 10.202 110.041 10.3552C110.041 10.5084 109.986 10.6413 109.877 10.7538ZM111.228 17V11.9449H111.997V12.7421H112.072C112.341 12.1512 112.847 11.8558 113.591 11.8558C114.157 11.8558 114.593 12.0184 114.899 12.3435C115.206 12.6655 115.359 13.1266 115.359 13.7268V17H114.552V13.9238C114.552 13.4705 114.454 13.1344 114.257 12.9156C114.063 12.6936 113.765 12.5827 113.361 12.5827C112.955 12.5827 112.631 12.7108 112.391 12.9672C112.153 13.2204 112.034 13.5674 112.034 14.0082V17H111.228ZM116.982 10.6366H117.788V11.9449H118.914V12.6202H117.788V15.4807C117.788 15.7776 117.848 15.9934 117.966 16.1278C118.085 16.2622 118.276 16.3294 118.539 16.3294C118.654 16.3294 118.779 16.3232 118.914 16.3107V16.9906C118.735 17.0219 118.578 17.0375 118.44 17.0375C117.918 17.0375 117.544 16.9328 117.319 16.7233C117.094 16.5139 116.982 16.1684 116.982 15.687V12.6202H116.166V11.9449H116.982V10.6366ZM121.498 16.381C121.913 16.381 122.257 16.2606 122.529 16.0199C122.804 15.7792 122.942 15.4775 122.942 15.1149V14.6506L121.582 14.7397C121.201 14.7648 120.921 14.8445 120.743 14.9789C120.565 15.1133 120.475 15.3087 120.475 15.5651C120.475 15.8183 120.571 16.0184 120.761 16.1653C120.952 16.3091 121.198 16.381 121.498 16.381ZM121.348 17.0891C120.851 17.0891 120.441 16.9531 120.119 16.6811C119.8 16.406 119.641 16.0403 119.641 15.5838C119.641 15.1336 119.8 14.7804 120.119 14.524C120.438 14.2677 120.893 14.1223 121.484 14.0879L122.942 13.9988V13.5393C122.942 13.2267 122.845 12.9875 122.651 12.8218C122.457 12.6561 122.173 12.5733 121.798 12.5733C121.495 12.5733 121.243 12.628 121.043 12.7374C120.843 12.8468 120.715 13.0016 120.658 13.2016H119.842C119.896 12.7984 120.103 12.4732 120.466 12.2263C120.832 11.9793 121.285 11.8558 121.826 11.8558C122.439 11.8558 122.912 12.0043 123.247 12.3013C123.581 12.5983 123.749 13.0109 123.749 13.5393V17H122.98V16.2544H122.904C122.742 16.5233 122.526 16.7296 122.257 16.8734C121.989 17.0172 121.685 17.0891 121.348 17.0891ZM125.976 14.1536L128.171 11.9449H129.16L126.984 14.1114L129.306 17H128.279L126.384 14.6319L125.901 15.0821V17H125.095V9.93787H125.901V14.1536H125.976ZM130.736 17.0469C130.57 17.0469 130.427 16.9875 130.305 16.8687C130.186 16.7468 130.126 16.603 130.126 16.4373C130.126 16.2685 130.186 16.1247 130.305 16.0059C130.427 15.8871 130.57 15.8277 130.736 15.8277C130.905 15.8277 131.049 15.8871 131.167 16.0059C131.286 16.1247 131.346 16.2685 131.346 16.4373C131.346 16.603 131.286 16.7468 131.167 16.8687C131.049 16.9875 130.905 17.0469 130.736 17.0469ZM136.725 13.4924H135.909C135.84 13.2267 135.691 13.0094 135.463 12.8406C135.238 12.6686 134.952 12.5827 134.605 12.5827C134.152 12.5827 133.791 12.7515 133.522 13.0891C133.256 13.4267 133.123 13.8816 133.123 14.4537C133.123 15.0352 133.258 15.4994 133.526 15.8464C133.795 16.1903 134.155 16.3623 134.605 16.3623C134.946 16.3623 135.229 16.2857 135.454 16.1325C135.682 15.9793 135.834 15.7605 135.909 15.476H136.725C136.649 15.9543 136.426 16.3435 136.054 16.6436C135.682 16.9406 135.2 17.0891 134.61 17.0891C133.9 17.0891 133.336 16.8515 132.917 16.3763C132.498 15.898 132.288 15.2571 132.288 14.4537C132.288 13.6659 132.498 13.036 132.917 12.5639C133.336 12.0918 133.898 11.8558 134.605 11.8558C135.196 11.8558 135.677 12.0106 136.049 12.32C136.424 12.6295 136.649 13.0203 136.725 13.4924ZM141.503 16.3904C141.087 16.8562 140.52 17.0891 139.801 17.0891C139.082 17.0891 138.513 16.8562 138.094 16.3904C137.678 15.9215 137.47 15.2821 137.47 14.4725C137.47 13.6596 137.678 13.0203 138.094 12.5545C138.51 12.0887 139.079 11.8558 139.801 11.8558C140.523 11.8558 141.092 12.0887 141.508 12.5545C141.924 13.0203 142.132 13.6596 142.132 14.4725C142.132 15.2821 141.922 15.9215 141.503 16.3904ZM138.694 15.8699C138.954 16.1981 139.323 16.3623 139.801 16.3623C140.279 16.3623 140.648 16.1981 140.908 15.8699C141.167 15.5385 141.297 15.0727 141.297 14.4725C141.297 13.8722 141.167 13.408 140.908 13.0797C140.648 12.7483 140.279 12.5827 139.801 12.5827C139.323 12.5827 138.954 12.7483 138.694 13.0797C138.435 13.408 138.305 13.8722 138.305 14.4725C138.305 15.0727 138.435 15.5385 138.694 15.8699ZM143.159 18.4396H142.446L144.931 9.93787H145.644L143.159 18.4396Z" fill="#2D3039" fill-opacity="0.7"/>
<path d="M10.1379 15.939H13.8558C14.4589 15.939 14.7724 15.6176 14.7724 14.9669V12.1536C14.7724 11.5823 14.5264 11.2648 14.0502 11.2014V10.257C14.0502 8.79284 13.0821 8.03497 11.9988 8.03497C10.9156 8.03497 9.94744 8.79284 9.94744 10.257V11.2014C9.47129 11.2648 9.22131 11.5823 9.22131 12.1536V14.9669C9.22131 15.6176 9.53478 15.939 10.1379 15.939ZM10.6894 10.1856C10.6894 9.25312 11.2886 8.74523 11.9988 8.74523C12.7051 8.74523 13.3082 9.25312 13.3082 10.1856V11.1855H10.6894V10.1856Z" fill="#2D3039" fill-opacity="0.6"/>
<g clip-path="url(#clip0_893_4581)">
<path d="M174.257 13.7573L174.915 13.095C174.396 13.0474 174.032 12.8829 173.764 12.6146C173.032 11.883 173.032 10.8442 173.759 10.117L175.197 8.67985C175.928 7.94832 176.963 7.94832 177.694 8.67985C178.43 9.42005 178.426 10.4503 177.698 11.1775L176.954 11.922C177.092 12.238 177.136 12.6232 177.062 12.9565L178.305 11.7185C179.369 10.658 179.374 9.15167 178.3 8.07818C177.227 7.00035 175.72 7.00901 174.66 8.06952L173.153 9.58021C172.093 10.6407 172.084 12.1471 173.158 13.2206C173.413 13.4716 173.755 13.6621 174.257 13.7573ZM174.638 10.1083L173.985 10.7706C174.5 10.8182 174.868 10.987 175.132 11.2511C175.867 11.9869 175.867 13.0215 175.136 13.7487L173.699 15.1858C172.967 15.9173 171.937 15.9173 171.201 15.1858C170.465 14.4499 170.47 13.4154 171.201 12.6881L171.941 11.9436C171.807 11.6276 171.76 11.2467 171.833 10.9091L170.595 12.1471C169.53 13.2076 169.526 14.7183 170.6 15.7918C171.673 16.8653 173.179 16.8566 174.24 15.7961L175.742 14.2897C176.807 13.2249 176.811 11.7185 175.738 10.6494C175.487 10.394 175.145 10.2035 174.638 10.1083Z" fill="#2D3039" fill-opacity="0.6"/>
</g>
<defs>
<clipPath id="clip0_893_4581">
<rect width="10.3425" height="10.3425" fill="white" transform="translate(169.352 6.82874)"/>
</clipPath>
</defs>
</svg>
