<svg width="1126" height="313" viewBox="0 0 1126 313" fill="none" xmlns="http://www.w3.org/2000/svg">
<path d="M1003.67 172C1003.67 174.946 1006.05 177.333 1009 177.333C1011.95 177.333 1014.33 174.946 1014.33 172C1014.33 169.054 1011.95 166.667 1009 166.667C1006.05 166.667 1003.67 169.054 1003.67 172ZM1009 312V313H1010V312H1009ZM101 312H100V313H101V312ZM101 212.5L95.2265 222.5H106.774L101 212.5ZM100 216.646C100 217.198 100.448 217.646 101 217.646C101.552 217.646 102 217.198 102 216.646H100ZM102 224.938C102 224.385 101.552 223.938 101 223.938C100.448 223.938 100 224.385 100 224.938H102ZM100 233.229C100 233.781 100.448 234.229 101 234.229C101.552 234.229 102 233.781 102 233.229H100ZM102 241.521C102 240.969 101.552 240.521 101 240.521C100.448 240.521 100 240.969 100 241.521H102ZM100 249.812C100 250.365 100.448 250.812 101 250.812C101.552 250.812 102 250.365 102 249.812H100ZM102 258.104C102 257.552 101.552 257.104 101 257.104C100.448 257.104 100 257.552 100 258.104H102ZM100 266.396C100 266.948 100.448 267.396 101 267.396C101.552 267.396 102 266.948 102 266.396H100ZM102 274.688C102 274.135 101.552 273.688 101 273.688C100.448 273.688 100 274.135 100 274.688H102ZM100 282.979C100 283.531 100.448 283.979 101 283.979C101.552 283.979 102 283.531 102 282.979H100ZM102 291.271C102 290.719 101.552 290.271 101 290.271C100.448 290.271 100 290.719 100 291.271H102ZM100 299.562C100 300.115 100.448 300.562 101 300.562C101.552 300.562 102 300.115 102 299.562H100ZM102 307.854C102 307.302 101.552 306.854 101 306.854C100.448 306.854 100 307.302 100 307.854H102ZM104.982 313C105.535 313 105.982 312.552 105.982 312C105.982 311.448 105.535 311 104.982 311V313ZM112.947 311C112.395 311 111.947 311.448 111.947 312C111.947 312.552 112.395 313 112.947 313V311ZM120.912 313C121.465 313 121.912 312.552 121.912 312C121.912 311.448 121.465 311 120.912 311V313ZM128.877 311C128.325 311 127.877 311.448 127.877 312C127.877 312.552 128.325 313 128.877 313V311ZM136.842 313C137.394 313 137.842 312.552 137.842 312C137.842 311.448 137.394 311 136.842 311V313ZM144.807 311C144.255 311 143.807 311.448 143.807 312C143.807 312.552 144.255 313 144.807 313V311ZM152.772 313C153.324 313 153.772 312.552 153.772 312C153.772 311.448 153.324 311 152.772 311V313ZM160.737 311C160.185 311 159.737 311.448 159.737 312C159.737 312.552 160.185 313 160.737 313V311ZM168.702 313C169.254 313 169.702 312.552 169.702 312C169.702 311.448 169.254 311 168.702 311V313ZM176.667 311C176.114 311 175.667 311.448 175.667 312C175.667 312.552 176.114 313 176.667 313V311ZM184.632 313C185.184 313 185.632 312.552 185.632 312C185.632 311.448 185.184 311 184.632 311V313ZM192.596 311C192.044 311 191.596 311.448 191.596 312C191.596 312.552 192.044 313 192.596 313V311ZM200.561 313C201.114 313 201.561 312.552 201.561 312C201.561 311.448 201.114 311 200.561 311V313ZM208.526 311C207.974 311 207.526 311.448 207.526 312C207.526 312.552 207.974 313 208.526 313V311ZM216.491 313C217.044 313 217.491 312.552 217.491 312C217.491 311.448 217.044 311 216.491 311V313ZM224.456 311C223.904 311 223.456 311.448 223.456 312C223.456 312.552 223.904 313 224.456 313V311ZM232.421 313C232.973 313 233.421 312.552 233.421 312C233.421 311.448 232.973 311 232.421 311V313ZM240.386 311C239.834 311 239.386 311.448 239.386 312C239.386 312.552 239.834 313 240.386 313V311ZM248.351 313C248.903 313 249.351 312.552 249.351 312C249.351 311.448 248.903 311 248.351 311V313ZM256.316 311C255.763 311 255.316 311.448 255.316 312C255.316 312.552 255.763 313 256.316 313V311ZM264.281 313C264.833 313 265.281 312.552 265.281 312C265.281 311.448 264.833 311 264.281 311V313ZM272.246 311C271.693 311 271.246 311.448 271.246 312C271.246 312.552 271.693 313 272.246 313V311ZM280.21 313C280.763 313 281.21 312.552 281.21 312C281.21 311.448 280.763 311 280.21 311V313ZM288.175 311C287.623 311 287.175 311.448 287.175 312C287.175 312.552 287.623 313 288.175 313V311ZM296.14 313C296.693 313 297.14 312.552 297.14 312C297.14 311.448 296.693 311 296.14 311V313ZM304.105 311C303.553 311 303.105 311.448 303.105 312C303.105 312.552 303.553 313 304.105 313V311ZM312.07 313C312.622 313 313.07 312.552 313.07 312C313.07 311.448 312.622 311 312.07 311V313ZM320.035 311C319.483 311 319.035 311.448 319.035 312C319.035 312.552 319.483 313 320.035 313V311ZM328 313C328.552 313 329 312.552 329 312C329 311.448 328.552 311 328 311V313ZM335.965 311C335.413 311 334.965 311.448 334.965 312C334.965 312.552 335.413 313 335.965 313V311ZM343.93 313C344.482 313 344.93 312.552 344.93 312C344.93 311.448 344.482 311 343.93 311V313ZM351.895 311C351.342 311 350.895 311.448 350.895 312C350.895 312.552 351.342 313 351.895 313V311ZM359.86 313C360.412 313 360.86 312.552 360.86 312C360.86 311.448 360.412 311 359.86 311V313ZM367.824 311C367.272 311 366.824 311.448 366.824 312C366.824 312.552 367.272 313 367.824 313V311ZM375.789 313C376.342 313 376.789 312.552 376.789 312C376.789 311.448 376.342 311 375.789 311V313ZM383.754 311C383.202 311 382.754 311.448 382.754 312C382.754 312.552 383.202 313 383.754 313V311ZM391.719 313C392.271 313 392.719 312.552 392.719 312C392.719 311.448 392.271 311 391.719 311V313ZM399.684 311C399.132 311 398.684 311.448 398.684 312C398.684 312.552 399.132 313 399.684 313V311ZM407.649 313C408.201 313 408.649 312.552 408.649 312C408.649 311.448 408.201 311 407.649 311V313ZM415.614 311C415.062 311 414.614 311.448 414.614 312C414.614 312.552 415.062 313 415.614 313V311ZM423.579 313C424.131 313 424.579 312.552 424.579 312C424.579 311.448 424.131 311 423.579 311V313ZM431.544 311C430.991 311 430.544 311.448 430.544 312C430.544 312.552 430.991 313 431.544 313V311ZM439.509 313C440.061 313 440.509 312.552 440.509 312C440.509 311.448 440.061 311 439.509 311V313ZM447.473 311C446.921 311 446.473 311.448 446.473 312C446.473 312.552 446.921 313 447.473 313V311ZM455.438 313C455.991 313 456.438 312.552 456.438 312C456.438 311.448 455.991 311 455.438 311V313ZM463.403 311C462.851 311 462.403 311.448 462.403 312C462.403 312.552 462.851 313 463.403 313V311ZM471.368 313C471.92 313 472.368 312.552 472.368 312C472.368 311.448 471.92 311 471.368 311V313ZM479.333 311C478.781 311 478.333 311.448 478.333 312C478.333 312.552 478.781 313 479.333 313V311ZM487.298 313C487.85 313 488.298 312.552 488.298 312C488.298 311.448 487.85 311 487.298 311V313ZM495.263 311C494.711 311 494.263 311.448 494.263 312C494.263 312.552 494.711 313 495.263 313V311ZM503.228 313C503.78 313 504.228 312.552 504.228 312C504.228 311.448 503.78 311 503.228 311V313ZM511.193 311C510.64 311 510.193 311.448 510.193 312C510.193 312.552 510.64 313 511.193 313V311ZM519.158 313C519.71 313 520.158 312.552 520.158 312C520.158 311.448 519.71 311 519.158 311V313ZM527.123 311C526.57 311 526.123 311.448 526.123 312C526.123 312.552 526.57 313 527.123 313V311ZM535.087 313C535.64 313 536.087 312.552 536.087 312C536.087 311.448 535.64 311 535.087 311V313ZM543.052 311C542.5 311 542.052 311.448 542.052 312C542.052 312.552 542.5 313 543.052 313V311ZM551.017 313C551.57 313 552.017 312.552 552.017 312C552.017 311.448 551.57 311 551.017 311V313ZM558.982 311C558.43 311 557.982 311.448 557.982 312C557.982 312.552 558.43 313 558.982 313V311ZM566.947 313C567.499 313 567.947 312.552 567.947 312C567.947 311.448 567.499 311 566.947 311V313ZM574.912 311C574.36 311 573.912 311.448 573.912 312C573.912 312.552 574.36 313 574.912 313V311ZM582.877 313C583.429 313 583.877 312.552 583.877 312C583.877 311.448 583.429 311 582.877 311V313ZM590.842 311C590.289 311 589.842 311.448 589.842 312C589.842 312.552 590.289 313 590.842 313V311ZM598.807 313C599.359 313 599.807 312.552 599.807 312C599.807 311.448 599.359 311 598.807 311V313ZM606.772 311C606.219 311 605.772 311.448 605.772 312C605.772 312.552 606.219 313 606.772 313V311ZM614.737 313C615.289 313 615.737 312.552 615.737 312C615.737 311.448 615.289 311 614.737 311V313ZM622.701 311C622.149 311 621.701 311.448 621.701 312C621.701 312.552 622.149 313 622.701 313V311ZM630.666 313C631.219 313 631.666 312.552 631.666 312C631.666 311.448 631.219 311 630.666 311V313ZM638.631 311C638.079 311 637.631 311.448 637.631 312C637.631 312.552 638.079 313 638.631 313V311ZM646.596 313C647.148 313 647.596 312.552 647.596 312C647.596 311.448 647.148 311 646.596 311V313ZM654.561 311C654.009 311 653.561 311.448 653.561 312C653.561 312.552 654.009 313 654.561 313V311ZM662.526 313C663.078 313 663.526 312.552 663.526 312C663.526 311.448 663.078 311 662.526 311V313ZM670.491 311C669.939 311 669.491 311.448 669.491 312C669.491 312.552 669.939 313 670.491 313V311ZM678.456 313C679.008 313 679.456 312.552 679.456 312C679.456 311.448 679.008 311 678.456 311V313ZM686.421 311C685.868 311 685.421 311.448 685.421 312C685.421 312.552 685.868 313 686.421 313V311ZM694.386 313C694.938 313 695.386 312.552 695.386 312C695.386 311.448 694.938 311 694.386 311V313ZM702.35 311C701.798 311 701.35 311.448 701.35 312C701.35 312.552 701.798 313 702.35 313V311ZM710.315 313C710.868 313 711.315 312.552 711.315 312C711.315 311.448 710.868 311 710.315 311V313ZM718.28 311C717.728 311 717.28 311.448 717.28 312C717.28 312.552 717.728 313 718.28 313V311ZM726.245 313C726.797 313 727.245 312.552 727.245 312C727.245 311.448 726.797 311 726.245 311V313ZM734.21 311C733.658 311 733.21 311.448 733.21 312C733.21 312.552 733.658 313 734.21 313V311ZM742.175 313C742.727 313 743.175 312.552 743.175 312C743.175 311.448 742.727 311 742.175 311V313ZM750.14 311C749.588 311 749.14 311.448 749.14 312C749.14 312.552 749.588 313 750.14 313V311ZM758.105 313C758.657 313 759.105 312.552 759.105 312C759.105 311.448 758.657 311 758.105 311V313ZM766.07 311C765.517 311 765.07 311.448 765.07 312C765.07 312.552 765.517 313 766.07 313V311ZM774.035 313C774.587 313 775.035 312.552 775.035 312C775.035 311.448 774.587 311 774.035 311V313ZM782 311C781.447 311 781 311.448 781 312C781 312.552 781.447 313 782 313V311ZM789.964 313C790.517 313 790.964 312.552 790.964 312C790.964 311.448 790.517 311 789.964 311V313ZM797.929 311C797.377 311 796.929 311.448 796.929 312C796.929 312.552 797.377 313 797.929 313V311ZM805.894 313C806.446 313 806.894 312.552 806.894 312C806.894 311.448 806.446 311 805.894 311V313ZM813.859 311C813.307 311 812.859 311.448 812.859 312C812.859 312.552 813.307 313 813.859 313V311ZM821.824 313C822.376 313 822.824 312.552 822.824 312C822.824 311.448 822.376 311 821.824 311V313ZM829.789 311C829.237 311 828.789 311.448 828.789 312C828.789 312.552 829.237 313 829.789 313V311ZM837.754 313C838.306 313 838.754 312.552 838.754 312C838.754 311.448 838.306 311 837.754 311V313ZM845.719 311C845.166 311 844.719 311.448 844.719 312C844.719 312.552 845.166 313 845.719 313V311ZM853.684 313C854.236 313 854.684 312.552 854.684 312C854.684 311.448 854.236 311 853.684 311V313ZM861.649 311C861.096 311 860.649 311.448 860.649 312C860.649 312.552 861.096 313 861.649 313V311ZM869.613 313C870.166 313 870.613 312.552 870.613 312C870.613 311.448 870.166 311 869.613 311V313ZM877.578 311C877.026 311 876.578 311.448 876.578 312C876.578 312.552 877.026 313 877.578 313V311ZM885.543 313C886.096 313 886.543 312.552 886.543 312C886.543 311.448 886.096 311 885.543 311V313ZM893.508 311C892.956 311 892.508 311.448 892.508 312C892.508 312.552 892.956 313 893.508 313V311ZM901.473 313C902.025 313 902.473 312.552 902.473 312C902.473 311.448 902.025 311 901.473 311V313ZM909.438 311C908.886 311 908.438 311.448 908.438 312C908.438 312.552 908.886 313 909.438 313V311ZM917.403 313C917.955 313 918.403 312.552 918.403 312C918.403 311.448 917.955 311 917.403 311V313ZM925.368 311C924.816 311 924.368 311.448 924.368 312C924.368 312.552 924.816 313 925.368 313V311ZM933.333 313C933.885 313 934.333 312.552 934.333 312C934.333 311.448 933.885 311 933.333 311V313ZM941.298 311C940.745 311 940.298 311.448 940.298 312C940.298 312.552 940.745 313 941.298 313V311ZM949.263 313C949.815 313 950.263 312.552 950.263 312C950.263 311.448 949.815 311 949.263 311V313ZM957.227 311C956.675 311 956.227 311.448 956.227 312C956.227 312.552 956.675 313 957.227 313V311ZM965.192 313C965.745 313 966.192 312.552 966.192 312C966.192 311.448 965.745 311 965.192 311V313ZM973.157 311C972.605 311 972.157 311.448 972.157 312C972.157 312.552 972.605 313 973.157 313V311ZM981.122 313C981.674 313 982.122 312.552 982.122 312C982.122 311.448 981.674 311 981.122 311V313ZM989.087 311C988.535 311 988.087 311.448 988.087 312C988.087 312.552 988.535 313 989.087 313V311ZM997.052 313C997.604 313 998.052 312.552 998.052 312C998.052 311.448 997.604 311 997.052 311V313ZM1005.02 311C1004.46 311 1004.02 311.448 1004.02 312C1004.02 312.552 1004.46 313 1005.02 313V311ZM1010 308.111C1010 307.559 1009.55 307.111 1009 307.111C1008.45 307.111 1008 307.559 1008 308.111H1010ZM1008 300.333C1008 300.886 1008.45 301.333 1009 301.333C1009.55 301.333 1010 300.886 1010 300.333H1008ZM1010 292.556C1010 292.003 1009.55 291.556 1009 291.556C1008.45 291.556 1008 292.003 1008 292.556H1010ZM1008 284.778C1008 285.33 1008.45 285.778 1009 285.778C1009.55 285.778 1010 285.33 1010 284.778H1008ZM1010 277C1010 276.448 1009.55 276 1009 276C1008.45 276 1008 276.448 1008 277H1010ZM1008 269.222C1008 269.775 1008.45 270.222 1009 270.222C1009.55 270.222 1010 269.775 1010 269.222H1008ZM1010 261.444C1010 260.892 1009.55 260.444 1009 260.444C1008.45 260.444 1008 260.892 1008 261.444H1010ZM1008 253.667C1008 254.219 1008.45 254.667 1009 254.667C1009.55 254.667 1010 254.219 1010 253.667H1008ZM1010 245.889C1010 245.337 1009.55 244.889 1009 244.889C1008.45 244.889 1008 245.337 1008 245.889H1010ZM1008 238.111C1008 238.663 1008.45 239.111 1009 239.111C1009.55 239.111 1010 238.663 1010 238.111H1008ZM1010 230.333C1010 229.781 1009.55 229.333 1009 229.333C1008.45 229.333 1008 229.781 1008 230.333H1010ZM1008 222.556C1008 223.108 1008.45 223.556 1009 223.556C1009.55 223.556 1010 223.108 1010 222.556H1008ZM1010 214.778C1010 214.225 1009.55 213.778 1009 213.778C1008.45 213.778 1008 214.225 1008 214.778H1010ZM1008 207C1008 207.552 1008.45 208 1009 208C1009.55 208 1010 207.552 1010 207H1008ZM1010 199.222C1010 198.67 1009.55 198.222 1009 198.222C1008.45 198.222 1008 198.67 1008 199.222H1010ZM1008 191.444C1008 191.997 1008.45 192.444 1009 192.444C1009.55 192.444 1010 191.997 1010 191.444H1008ZM1010 183.667C1010 183.114 1009.55 182.667 1009 182.667C1008.45 182.667 1008 183.114 1008 183.667H1010ZM1008 175.889C1008 176.441 1008.45 176.889 1009 176.889C1009.55 176.889 1010 176.441 1010 175.889H1008ZM100 224.938V233.229H102V224.938H100ZM100 241.521V249.812H102V241.521H100ZM100 258.104V266.396H102V258.104H100ZM100 274.688V282.979H102V274.688H100ZM100 291.271V299.562H102V291.271H100ZM100 307.854V312H102V307.854H100ZM101 313H104.982V311H101V313ZM112.947 313H120.912V311H112.947V313ZM128.877 313H136.842V311H128.877V313ZM144.807 313H152.772V311H144.807V313ZM160.737 313H168.702V311H160.737V313ZM176.667 313H184.632V311H176.667V313ZM192.596 313H200.561V311H192.596V313ZM208.526 313H216.491V311H208.526V313ZM224.456 313H232.421V311H224.456V313ZM240.386 313H248.351V311H240.386V313ZM256.316 313H264.281V311H256.316V313ZM272.246 313H280.21V311H272.246V313ZM288.175 313H296.14V311H288.175V313ZM304.105 313H312.07V311H304.105V313ZM320.035 313H328V311H320.035V313ZM335.965 313H343.93V311H335.965V313ZM351.895 313H359.86V311H351.895V313ZM367.824 313H375.789V311H367.824V313ZM383.754 313H391.719V311H383.754V313ZM399.684 313H407.649V311H399.684V313ZM415.614 313H423.579V311H415.614V313ZM431.544 313H439.509V311H431.544V313ZM447.473 313H455.438V311H447.473V313ZM463.403 313H471.368V311H463.403V313ZM479.333 313H487.298V311H479.333V313ZM495.263 313H503.228V311H495.263V313ZM511.193 313H519.158V311H511.193V313ZM527.123 313H535.087V311H527.123V313ZM543.052 313H551.017V311H543.052V313ZM558.982 313H566.947V311H558.982V313ZM574.912 313H582.877V311H574.912V313ZM590.842 313H598.807V311H590.842V313ZM606.772 313H614.737V311H606.772V313ZM622.701 313H630.666V311H622.701V313ZM638.631 313H646.596V311H638.631V313ZM654.561 313H662.526V311H654.561V313ZM670.491 313H678.456V311H670.491V313ZM686.421 313H694.386V311H686.421V313ZM702.35 313H710.315V311H702.35V313ZM718.28 313H726.245V311H718.28V313ZM734.21 313H742.175V311H734.21V313ZM750.14 313H758.105V311H750.14V313ZM766.07 313H774.035V311H766.07V313ZM782 313H789.964V311H782V313ZM797.929 313H805.894V311H797.929V313ZM813.859 313H821.824V311H813.859V313ZM829.789 313H837.754V311H829.789V313ZM845.719 313H853.684V311H845.719V313ZM861.649 313H869.613V311H861.649V313ZM877.578 313H885.543V311H877.578V313ZM893.508 313H901.473V311H893.508V313ZM909.438 313H917.403V311H909.438V313ZM925.368 313H933.333V311H925.368V313ZM941.298 313H949.263V311H941.298V313ZM957.227 313H965.192V311H957.227V313ZM973.157 313H981.122V311H973.157V313ZM989.087 313H997.052V311H989.087V313ZM1005.02 313H1009V311H1005.02V313ZM1010 312V308.111H1008V312H1010ZM1010 300.333V292.556H1008V300.333H1010ZM1010 284.778V277H1008V284.778H1010ZM1010 269.222V261.444H1008V269.222H1010ZM1010 253.667V245.889H1008V253.667H1010ZM1010 238.111V230.333H1008V238.111H1010ZM1010 222.556V214.778H1008V222.556H1010ZM1010 207V199.222H1008V207H1010ZM1010 191.444V183.667H1008V191.444H1010ZM1010 175.889V172H1008V175.889H1010Z" fill="#C8E4FF"/>
<path fill-rule="evenodd" clip-rule="evenodd" d="M197.579 101.393C197.813 104.461 198.77 107.439 200.383 110.077L217.022 99.9103L200.487 89.5745C198.747 92.3582 197.741 95.5313 197.554 98.7979H149.253C148.549 98.7979 147.977 99.3697 147.977 100.074C147.977 100.821 148.549 101.393 149.253 101.393H197.579Z" fill="#0F89FF"/>
<path d="M0.000152588 74.1206C0.000152588 74.0326 0.0148163 73.93 0.0441437 73.8127L0.0881348 73.6807C12.097 30.2201 51.7306 0 96.5109 0C105.485 0 114.458 1.23167 123.212 3.65104C140.103 8.31382 155.543 17.3315 167.772 29.7802C168.3 30.2641 168.256 31.0999 167.772 31.6277C167.244 32.1116 166.453 32.1116 165.925 31.5837C154.004 19.4869 139.004 10.6892 122.508 6.15839C114.018 3.78301 105.265 2.59532 96.5109 2.59532C52.8743 2.59532 14.2524 32.0236 2.63947 74.1646C2.46352 74.8684 1.7157 75.4402 1.01189 75.2203C0.440033 75.0883 0.000152588 74.6484 0.000152588 74.1206ZM25.1616 169.62C25.1616 169.268 25.2495 168.96 25.5135 168.696C26.0413 168.168 26.8771 168.212 27.361 168.696C39.2819 180.749 54.238 189.502 70.6897 194.033C79.1794 196.365 87.8892 197.552 96.6429 197.552C140.279 197.552 178.901 168.124 190.514 126.027C190.734 125.323 191.438 124.839 192.142 125.015C192.846 125.191 193.286 125.851 193.066 126.511L191.834 126.203L193.022 126.687C181.101 169.971 141.467 200.148 96.6429 200.148C87.6692 200.148 78.6955 198.96 69.9858 196.541C53.1382 191.878 37.7423 182.904 25.5135 170.543C25.2495 170.279 25.1616 169.927 25.1616 169.62Z" fill="#B4DAFF"/>
<path d="M14.5604 120.309C14.5604 119.693 14.9563 119.165 15.5281 119.033C16.2319 118.857 16.9358 119.297 17.1117 119.957C20.5428 133.857 27.6689 146.658 37.6543 156.995C53.2263 173.139 74.1648 182.025 96.5989 182.025C117.933 182.025 138.124 173.843 153.476 159.019C154.004 158.535 154.884 158.447 155.412 158.975C155.895 159.503 155.983 160.206 155.455 160.734L155.28 160.866C139.444 176.174 118.593 184.576 96.5989 184.576C73.461 184.576 51.8626 175.426 35.8068 158.799C25.4695 148.11 18.1674 134.913 14.6044 120.617C14.5751 120.499 14.5604 120.397 14.5604 120.309ZM37.4344 40.2498C37.4344 39.9419 37.5664 39.634 37.7863 39.37C37.8303 39.37 37.9183 39.2821 37.9183 39.2821C53.7101 24.0181 74.5607 15.5723 96.5989 15.5723C119.737 15.5723 141.335 24.7659 157.391 41.3935C167.64 52.0387 174.986 65.1913 178.549 79.4435C178.725 80.1474 178.286 80.8512 177.626 81.0271C176.922 81.2031 176.218 80.8072 176.042 80.1034C172.567 66.291 165.485 53.5343 155.543 43.197C139.928 27.0533 119.033 18.1676 96.5989 18.1676C75.2645 18.1676 55.0298 26.3494 39.6778 41.1736C39.194 41.6574 38.3142 41.7014 37.8303 41.1736C37.5664 40.9096 37.4344 40.5577 37.4344 40.2498Z" fill="#B4DAFF"/>
<path d="M96.5988 168.081C59.0327 168.081 28.5927 137.641 28.5927 100.075C28.5927 62.5523 59.0327 32.1123 96.5988 32.1123C134.121 32.1123 164.561 62.5523 164.561 100.075C164.561 137.641 134.121 168.081 96.5988 168.081Z" fill="#B4DAFF"/>
<path fill-rule="evenodd" clip-rule="evenodd" d="M26.437 100.074C26.437 61.4078 57.9328 29.9561 96.5987 29.9561C135.265 29.9561 166.716 61.4078 166.716 100.074C166.716 138.784 135.265 170.235 96.5987 170.235C57.9328 170.235 26.437 138.784 26.437 100.074ZM162.405 100.074C162.405 63.7832 132.889 34.2669 96.5987 34.2669C60.3082 34.2669 30.7479 63.7832 30.7479 100.074C30.7479 136.364 60.3082 165.924 96.5987 165.924C132.889 165.924 162.405 136.364 162.405 100.074Z" fill="white"/>
<path d="M61.1393 99V83.6H66.4413C67.2699 83.6 68.0179 83.8053 68.6853 84.216C69.3599 84.6267 69.8953 85.1803 70.2913 85.877C70.6946 86.5737 70.8963 87.3437 70.8963 88.187C70.8963 89.045 70.6909 89.8223 70.2803 90.519C69.8769 91.2083 69.3379 91.7583 68.6633 92.169C67.9886 92.5797 67.2479 92.785 66.4413 92.785H63.4273V99H61.1393ZM63.4273 90.497H66.2103C66.6503 90.497 67.0499 90.387 67.4093 90.167C67.7759 89.947 68.0656 89.6537 68.2783 89.287C68.4983 88.9203 68.6083 88.506 68.6083 88.044C68.6083 87.582 68.4983 87.1677 68.2783 86.801C68.0656 86.427 67.7759 86.1337 67.4093 85.921C67.0499 85.701 66.6503 85.591 66.2103 85.591H63.4273V90.497ZM78.6211 90.299C78.4304 90.1817 78.2214 90.09 77.9941 90.024C77.7741 89.9507 77.5321 89.914 77.2681 89.914C76.6961 89.914 76.1974 90.0643 75.7721 90.365C75.3468 90.6657 75.0131 91.0727 74.7711 91.586C74.5364 92.0993 74.4191 92.6677 74.4191 93.291V99H72.1201V88H74.4081V89.485C74.7894 88.935 75.2514 88.5023 75.7941 88.187C76.3441 87.8643 76.9564 87.703 77.6311 87.703C77.8804 87.703 78.1151 87.714 78.3351 87.736C78.5624 87.758 78.7788 87.802 78.9841 87.868L78.6211 90.299ZM84.1597 99.286C83.1477 99.286 82.2237 99.0257 81.3877 98.505C80.559 97.9843 79.8953 97.2877 79.3967 96.415C78.9053 95.535 78.6597 94.5633 78.6597 93.5C78.6597 92.6933 78.8027 91.9417 79.0887 91.245C79.3747 90.541 79.767 89.925 80.2657 89.397C80.7717 88.8617 81.3583 88.4437 82.0257 88.143C82.693 87.8423 83.4043 87.692 84.1597 87.692C85.1717 87.692 86.092 87.9523 86.9207 88.473C87.7567 88.9937 88.4203 89.694 88.9117 90.574C89.4103 91.454 89.6597 92.4293 89.6597 93.5C89.6597 94.2993 89.5167 95.0473 89.2307 95.744C88.9447 96.4407 88.5487 97.0567 88.0427 97.592C87.544 98.12 86.961 98.5343 86.2937 98.835C85.6337 99.1357 84.9223 99.286 84.1597 99.286ZM84.1597 96.998C84.7683 96.998 85.3147 96.8367 85.7987 96.514C86.2827 96.1913 86.664 95.766 86.9427 95.238C87.2287 94.7027 87.3717 94.1233 87.3717 93.5C87.3717 92.862 87.225 92.2753 86.9317 91.74C86.6457 91.2047 86.2607 90.7793 85.7767 90.464C85.2927 90.1413 84.7537 89.98 84.1597 89.98C83.5583 89.98 83.012 90.1413 82.5207 90.464C82.0367 90.7867 81.6517 91.2157 81.3657 91.751C81.087 92.2863 80.9477 92.8693 80.9477 93.5C80.9477 94.1527 81.0943 94.743 81.3877 95.271C81.681 95.799 82.0697 96.2207 82.5537 96.536C83.045 96.844 83.5803 96.998 84.1597 96.998ZM99.4066 82.5H101.695V99H99.4066V97.383C99.0472 97.955 98.5779 98.417 97.9986 98.769C97.4192 99.1137 96.7409 99.286 95.9636 99.286C95.1642 99.286 94.4162 99.1357 93.7196 98.835C93.0229 98.5343 92.4069 98.12 91.8716 97.592C91.3436 97.0567 90.9292 96.4407 90.6286 95.744C90.3279 95.0473 90.1776 94.2993 90.1776 93.5C90.1776 92.7007 90.3279 91.9527 90.6286 91.256C90.9292 90.552 91.3436 89.936 91.8716 89.408C92.4069 88.8727 93.0229 88.4547 93.7196 88.154C94.4162 87.8533 95.1642 87.703 95.9636 87.703C96.7409 87.703 97.4192 87.879 97.9986 88.231C98.5779 88.5757 99.0472 89.0303 99.4066 89.595V82.5ZM95.9856 97.075C96.6309 97.075 97.1956 96.9173 97.6796 96.602C98.1636 96.2793 98.5376 95.8467 98.8016 95.304C99.0729 94.7613 99.2086 94.16 99.2086 93.5C99.2086 92.8327 99.0729 92.2277 98.8016 91.685C98.5302 91.1423 98.1526 90.7133 97.6686 90.398C97.1919 90.0753 96.6309 89.914 95.9856 89.914C95.3476 89.914 94.7646 90.0753 94.2366 90.398C93.7159 90.7207 93.2979 91.1533 92.9826 91.696C92.6746 92.2387 92.5206 92.84 92.5206 93.5C92.5206 94.1673 92.6782 94.7723 92.9936 95.315C93.3162 95.8503 93.7379 96.2793 94.2586 96.602C94.7866 96.9173 95.3622 97.075 95.9856 97.075ZM103.752 93.742V88H106.04V93.698C106.04 94.3213 106.168 94.8897 106.425 95.403C106.689 95.909 107.045 96.316 107.492 96.624C107.947 96.9247 108.464 97.075 109.043 97.075C109.608 97.075 110.103 96.9247 110.528 96.624C110.961 96.316 111.294 95.909 111.529 95.403C111.771 94.8897 111.892 94.3213 111.892 93.698V88H114.18V99H111.892V97.504C111.511 98.054 111.049 98.4903 110.506 98.813C109.963 99.1357 109.351 99.297 108.669 99.297C107.686 99.297 106.825 99.0477 106.084 98.549C105.351 98.043 104.782 97.3683 104.379 96.525C103.976 95.6817 103.767 94.754 103.752 93.742ZM123.269 95.876L125.315 96.987C124.817 97.6837 124.182 98.241 123.412 98.659C122.65 99.077 121.821 99.286 120.926 99.286C119.914 99.286 118.99 99.0257 118.154 98.505C117.326 97.9843 116.662 97.2877 116.163 96.415C115.672 95.535 115.426 94.5633 115.426 93.5C115.426 92.6933 115.569 91.9417 115.855 91.245C116.141 90.541 116.534 89.925 117.032 89.397C117.538 88.8617 118.125 88.4437 118.792 88.143C119.46 87.8423 120.171 87.692 120.926 87.692C121.821 87.692 122.65 87.901 123.412 88.319C124.182 88.737 124.817 89.298 125.315 90.002L123.269 91.113C122.961 90.7463 122.602 90.4677 122.191 90.277C121.781 90.079 121.359 89.98 120.926 89.98C120.325 89.98 119.779 90.145 119.287 90.475C118.803 90.7977 118.418 91.2267 118.132 91.762C117.854 92.29 117.714 92.8693 117.714 93.5C117.714 94.1233 117.857 94.7027 118.143 95.238C118.429 95.766 118.814 96.1913 119.298 96.514C119.79 96.8367 120.332 96.998 120.926 96.998C121.381 96.998 121.814 96.8953 122.224 96.69C122.635 96.4847 122.983 96.2133 123.269 95.876ZM132.531 90.288H130.221L130.21 99H127.922L127.933 90.288H126.184V88H127.933L127.922 84.546H130.21L130.221 88H132.531V90.288ZM48.5245 127V111.6H53.6175C54.6808 111.6 55.6782 111.802 56.6095 112.205C57.5408 112.601 58.3585 113.155 59.0625 113.866C59.7665 114.57 60.3165 115.388 60.7125 116.319C61.1158 117.243 61.3175 118.237 61.3175 119.3C61.3175 120.363 61.1158 121.361 60.7125 122.292C60.3165 123.216 59.7665 124.034 59.0625 124.745C58.3585 125.449 57.5408 126.003 56.6095 126.406C55.6782 126.802 54.6808 127 53.6175 127H48.5245ZM50.8125 124.712H53.6175C54.3655 124.712 55.0622 124.573 55.7075 124.294C56.3602 124.015 56.9358 123.627 57.4345 123.128C57.9405 122.629 58.3328 122.054 58.6115 121.401C58.8902 120.748 59.0295 120.048 59.0295 119.3C59.0295 118.552 58.8902 117.852 58.6115 117.199C58.3328 116.546 57.9405 115.971 57.4345 115.472C56.9358 114.973 56.3602 114.585 55.7075 114.306C55.0622 114.027 54.3655 113.888 53.6175 113.888H50.8125V124.712ZM67.2887 127.286C66.2767 127.286 65.3527 127.026 64.5167 126.505C63.688 125.984 63.0243 125.288 62.5257 124.415C62.0343 123.535 61.7887 122.563 61.7887 121.5C61.7887 120.693 61.9317 119.942 62.2177 119.245C62.5037 118.541 62.896 117.925 63.3947 117.397C63.9007 116.862 64.4873 116.444 65.1547 116.143C65.822 115.842 66.5333 115.692 67.2887 115.692C68.132 115.692 68.9057 115.868 69.6097 116.22C70.3137 116.565 70.915 117.045 71.4137 117.661C71.9123 118.27 72.279 118.974 72.5137 119.773C72.7483 120.565 72.818 121.408 72.7227 122.303H64.2417C64.337 122.809 64.5203 123.267 64.7917 123.678C65.0703 124.081 65.4223 124.4 65.8477 124.635C66.2803 124.87 66.7607 124.991 67.2887 124.998C67.846 124.998 68.352 124.859 68.8067 124.58C69.2687 124.301 69.6463 123.916 69.9397 123.425L72.2607 123.964C71.8207 124.939 71.157 125.739 70.2697 126.362C69.3823 126.978 68.3887 127.286 67.2887 127.286ZM64.1647 120.554H70.4127C70.3393 120.026 70.1523 119.549 69.8517 119.124C69.5583 118.691 69.188 118.35 68.7407 118.101C68.3007 117.844 67.8167 117.716 67.2887 117.716C66.768 117.716 66.284 117.841 65.8367 118.09C65.3967 118.339 65.03 118.68 64.7367 119.113C64.4507 119.538 64.26 120.019 64.1647 120.554ZM77.0084 113.503V116H80.1104V118.288H77.0084V127H74.7204V118.288H73.4114V116H74.7204V113.503C74.7204 112.902 74.8671 112.355 75.1604 111.864C75.4538 111.365 75.8461 110.969 76.3374 110.676C76.8361 110.383 77.3898 110.236 77.9984 110.236C78.4384 110.236 78.8674 110.324 79.2854 110.5C79.7034 110.676 80.0774 110.947 80.4074 111.314L78.7684 112.931C78.6878 112.799 78.5741 112.7 78.4274 112.634C78.2881 112.561 78.1451 112.524 77.9984 112.524C77.7271 112.524 77.4924 112.619 77.2944 112.81C77.1038 113.001 77.0084 113.232 77.0084 113.503ZM81.2306 116H83.5186V127H81.2306V116ZM82.3856 114.185C82.0409 114.185 81.7513 114.071 81.5166 113.844C81.2819 113.617 81.1646 113.331 81.1646 112.986C81.1646 112.649 81.2819 112.366 81.5166 112.139C81.7513 111.904 82.0409 111.787 82.3856 111.787C82.7229 111.787 83.0089 111.904 83.2436 112.139C83.4783 112.366 83.5956 112.649 83.5956 112.986C83.5956 113.331 83.4783 113.617 83.2436 113.844C83.0089 114.071 82.7229 114.185 82.3856 114.185ZM96.5327 121.236V127H94.2447V121.28C94.2447 120.657 94.1127 120.092 93.8487 119.586C93.592 119.073 93.2364 118.666 92.7817 118.365C92.3344 118.057 91.8247 117.903 91.2527 117.903C90.6807 117.903 90.1784 118.057 89.7457 118.365C89.3204 118.666 88.9867 119.073 88.7447 119.586C88.51 120.092 88.3927 120.657 88.3927 121.28V127H86.1047V116H88.3927V117.485C88.774 116.928 89.236 116.491 89.7787 116.176C90.3214 115.853 90.9337 115.692 91.6157 115.692C92.6057 115.692 93.4637 115.945 94.1897 116.451C94.923 116.957 95.495 117.628 95.9057 118.464C96.3164 119.3 96.5254 120.224 96.5327 121.236ZM106.694 116H108.982V127H106.683L106.595 125.405C106.272 125.97 105.836 126.424 105.286 126.769C104.743 127.114 104.098 127.286 103.35 127.286C102.536 127.286 101.773 127.136 101.062 126.835C100.358 126.527 99.7342 126.102 99.1915 125.559C98.6562 125.016 98.2345 124.393 97.9265 123.689C97.6258 122.978 97.4755 122.215 97.4755 121.401C97.4755 120.616 97.6222 119.879 97.9155 119.19C98.2088 118.493 98.6158 117.885 99.1365 117.364C99.6572 116.843 100.259 116.436 100.941 116.143C101.63 115.842 102.367 115.692 103.152 115.692C103.951 115.692 104.655 115.875 105.264 116.242C105.88 116.601 106.386 117.063 106.782 117.628L106.694 116ZM103.405 125.075C104.065 125.075 104.633 124.91 105.11 124.58C105.594 124.25 105.957 123.806 106.199 123.249C106.448 122.692 106.554 122.076 106.518 121.401C106.474 120.756 106.301 120.169 106.001 119.641C105.707 119.113 105.315 118.695 104.824 118.387C104.332 118.072 103.775 117.914 103.152 117.914C102.499 117.914 101.909 118.079 101.381 118.409C100.86 118.739 100.457 119.183 100.171 119.74C99.8845 120.297 99.7598 120.917 99.7965 121.599C99.8405 122.237 100.031 122.82 100.369 123.348C100.713 123.876 101.15 124.298 101.678 124.613C102.213 124.921 102.789 125.075 103.405 125.075ZM116.844 118.288H114.534L114.523 127H112.235L112.246 118.288H110.497V116H112.246L112.235 112.546H114.523L114.534 116H116.844V118.288ZM117.763 116H120.051V127H117.763V116ZM118.918 114.185C118.574 114.185 118.284 114.071 118.049 113.844C117.815 113.617 117.697 113.331 117.697 112.986C117.697 112.649 117.815 112.366 118.049 112.139C118.284 111.904 118.574 111.787 118.918 111.787C119.256 111.787 119.542 111.904 119.776 112.139C120.011 112.366 120.128 112.649 120.128 112.986C120.128 113.331 120.011 113.617 119.776 113.844C119.542 114.071 119.256 114.185 118.918 114.185ZM127.783 127.286C126.771 127.286 125.847 127.026 125.011 126.505C124.183 125.984 123.519 125.288 123.02 124.415C122.529 123.535 122.283 122.563 122.283 121.5C122.283 120.693 122.426 119.942 122.712 119.245C122.998 118.541 123.391 117.925 123.889 117.397C124.395 116.862 124.982 116.444 125.649 116.143C126.317 115.842 127.028 115.692 127.783 115.692C128.795 115.692 129.716 115.952 130.544 116.473C131.38 116.994 132.044 117.694 132.535 118.574C133.034 119.454 133.283 120.429 133.283 121.5C133.283 122.299 133.14 123.047 132.854 123.744C132.568 124.441 132.172 125.057 131.666 125.592C131.168 126.12 130.585 126.534 129.917 126.835C129.257 127.136 128.546 127.286 127.783 127.286ZM127.783 124.998C128.392 124.998 128.938 124.837 129.422 124.514C129.906 124.191 130.288 123.766 130.566 123.238C130.852 122.703 130.995 122.123 130.995 121.5C130.995 120.862 130.849 120.275 130.555 119.74C130.269 119.205 129.884 118.779 129.4 118.464C128.916 118.141 128.377 117.98 127.783 117.98C127.182 117.98 126.636 118.141 126.144 118.464C125.66 118.787 125.275 119.216 124.989 119.751C124.711 120.286 124.571 120.869 124.571 121.5C124.571 122.153 124.718 122.743 125.011 123.271C125.305 123.799 125.693 124.221 126.177 124.536C126.669 124.844 127.204 124.998 127.783 124.998ZM144.691 121.236V127H142.403V121.28C142.403 120.657 142.271 120.092 142.007 119.586C141.75 119.073 141.394 118.666 140.94 118.365C140.492 118.057 139.983 117.903 139.411 117.903C138.839 117.903 138.336 118.057 137.904 118.365C137.478 118.666 137.145 119.073 136.903 119.586C136.668 120.092 136.551 120.657 136.551 121.28V127H134.263V116H136.551V117.485C136.932 116.928 137.394 116.491 137.937 116.176C138.479 115.853 139.092 115.692 139.774 115.692C140.764 115.692 141.622 115.945 142.348 116.451C143.081 116.957 143.653 117.628 144.064 118.464C144.474 119.3 144.683 120.224 144.691 121.236Z" fill="#1A1A1A"/>
<path fill-rule="evenodd" clip-rule="evenodd" d="M424.601 101.497C424.835 104.565 425.793 107.542 427.405 110.181L444.045 100.014L427.509 89.678C425.769 92.4617 424.763 95.6348 424.577 98.9014H376.275C375.572 98.9014 375 99.4733 375 100.177C375 100.925 375.572 101.497 376.275 101.497H424.601Z" fill="#0F89FF"/>
<path d="M227.023 74.2241C227.023 74.1361 227.037 74.0335 227.067 73.9162L227.111 73.7842C239.119 30.3236 278.753 0.103516 323.533 0.103516C332.507 0.103516 341.481 1.33519 350.234 3.75455C367.126 8.41733 382.566 17.435 394.795 29.8837C395.323 30.3676 395.279 31.2034 394.795 31.7312C394.267 32.2151 393.475 32.2151 392.947 31.6872C381.026 19.5904 366.026 10.7927 349.531 6.2619C341.041 3.88652 332.287 2.69883 323.533 2.69883C279.897 2.69883 241.275 32.1271 229.662 74.2681C229.486 74.9719 228.738 75.5438 228.034 75.3238C227.462 75.1918 227.023 74.752 227.023 74.2241ZM252.184 169.723C252.184 169.371 252.272 169.063 252.536 168.799C253.064 168.271 253.9 168.315 254.383 168.799C266.304 180.852 281.26 189.606 297.712 194.137C306.202 196.468 314.912 197.656 323.665 197.656C367.302 197.656 405.924 168.227 417.537 126.131C417.757 125.427 418.46 124.943 419.164 125.119C419.868 125.295 420.308 125.955 420.088 126.614L418.856 126.306L420.044 126.79C408.123 170.075 368.49 200.251 323.665 200.251C314.692 200.251 305.718 199.063 297.008 196.644C280.161 191.981 264.765 183.008 252.536 170.647C252.272 170.383 252.184 170.031 252.184 169.723Z" fill="#B4DAFF"/>
<path d="M241.583 120.412C241.583 119.797 241.979 119.269 242.551 119.137C243.254 118.961 243.958 119.401 244.134 120.06C247.565 133.961 254.691 146.761 264.677 157.099C280.249 173.243 301.187 182.128 323.621 182.128C344.956 182.128 365.146 173.946 380.498 159.122C381.026 158.638 381.906 158.55 382.434 159.078C382.918 159.606 383.006 160.31 382.478 160.838L382.302 160.97C366.466 176.278 345.616 184.68 323.621 184.68C300.483 184.68 278.885 175.53 262.829 158.902C252.492 148.213 245.19 135.017 241.627 120.72C241.598 120.603 241.583 120.5 241.583 120.412ZM264.457 40.3533C264.457 40.0454 264.589 39.7375 264.809 39.4736C264.853 39.4736 264.941 39.3856 264.941 39.3856C280.733 24.1216 301.583 15.6758 323.621 15.6758C346.759 15.6758 368.358 24.8694 384.413 41.497C394.663 52.1422 402.009 65.2948 405.572 79.5471C405.748 80.2509 405.308 80.9547 404.648 81.1306C403.944 81.3066 403.241 80.9107 403.065 80.2069C399.589 66.3945 392.507 53.6378 382.566 43.3005C366.95 27.1568 346.055 18.2711 323.621 18.2711C302.287 18.2711 282.052 26.453 266.7 41.2771C266.216 41.761 265.337 41.8049 264.853 41.2771C264.589 41.0132 264.457 40.6612 264.457 40.3533Z" fill="#B4DAFF"/>
<path d="M323.621 168.184C286.055 168.184 255.615 137.744 255.615 100.178C255.615 62.6558 286.055 32.2158 323.621 32.2158C361.143 32.2158 391.583 62.6558 391.583 100.178C391.583 137.744 361.143 168.184 323.621 168.184Z" fill="#B4DAFF"/>
<path d="M281.82 108V92.6H287.485C288.314 92.6 289.062 92.8053 289.729 93.216C290.404 93.6267 290.935 94.1803 291.324 94.877C291.72 95.5663 291.918 96.3363 291.918 97.187C291.918 97.9057 291.782 98.562 291.511 99.156C291.24 99.75 290.866 100.256 290.389 100.674C289.912 101.092 289.362 101.393 288.739 101.576L292.457 108H289.817L286.209 101.785H284.097V108H281.82ZM284.097 99.497H287.243C287.676 99.497 288.072 99.387 288.431 99.167C288.798 98.947 289.087 98.6537 289.3 98.287C289.52 97.9203 289.63 97.506 289.63 97.044C289.63 96.582 289.52 96.1677 289.3 95.801C289.087 95.427 288.798 95.1337 288.431 94.921C288.072 94.701 287.676 94.591 287.243 94.591H284.097V99.497ZM298.497 108.286C297.485 108.286 296.561 108.026 295.725 107.505C294.896 106.984 294.233 106.288 293.734 105.415C293.243 104.535 292.997 103.563 292.997 102.5C292.997 101.693 293.14 100.942 293.426 100.245C293.712 99.541 294.104 98.925 294.603 98.397C295.109 97.8617 295.696 97.4437 296.363 97.143C297.03 96.8423 297.742 96.692 298.497 96.692C299.34 96.692 300.114 96.868 300.818 97.22C301.522 97.5647 302.123 98.045 302.622 98.661C303.121 99.2697 303.487 99.9737 303.722 100.773C303.957 101.565 304.026 102.408 303.931 103.303H295.45C295.545 103.809 295.729 104.267 296 104.678C296.279 105.081 296.631 105.4 297.056 105.635C297.489 105.87 297.969 105.991 298.497 105.998C299.054 105.998 299.56 105.859 300.015 105.58C300.477 105.301 300.855 104.916 301.148 104.425L303.469 104.964C303.029 105.939 302.365 106.739 301.478 107.362C300.591 107.978 299.597 108.286 298.497 108.286ZM295.373 101.554H301.621C301.548 101.026 301.361 100.549 301.06 100.124C300.767 99.6913 300.396 99.3503 299.949 99.101C299.509 98.8443 299.025 98.716 298.497 98.716C297.976 98.716 297.492 98.8407 297.045 99.09C296.605 99.3393 296.238 99.6803 295.945 100.113C295.659 100.538 295.468 101.019 295.373 101.554ZM308.8 108.209C308.22 108.172 307.656 108.055 307.106 107.857C306.556 107.659 306.072 107.391 305.654 107.054C305.243 106.709 304.935 106.306 304.73 105.844L306.677 105.008C306.772 105.206 306.937 105.4 307.172 105.591C307.414 105.782 307.696 105.939 308.019 106.064C308.341 106.181 308.679 106.24 309.031 106.24C309.375 106.24 309.694 106.192 309.988 106.097C310.288 105.994 310.534 105.84 310.725 105.635C310.915 105.43 311.011 105.184 311.011 104.898C311.011 104.575 310.901 104.326 310.681 104.15C310.468 103.967 310.2 103.827 309.878 103.732C309.555 103.637 309.232 103.545 308.91 103.457C308.191 103.296 307.531 103.076 306.93 102.797C306.336 102.511 305.863 102.148 305.511 101.708C305.159 101.261 304.983 100.714 304.983 100.069C304.983 99.365 305.17 98.7563 305.544 98.243C305.925 97.7223 306.427 97.3227 307.051 97.044C307.674 96.7653 308.338 96.626 309.042 96.626C309.922 96.626 310.728 96.813 311.462 97.187C312.195 97.561 312.756 98.0743 313.145 98.727L311.33 99.805C311.22 99.585 311.055 99.387 310.835 99.211C310.615 99.035 310.365 98.8957 310.087 98.793C309.808 98.683 309.518 98.6207 309.218 98.606C308.844 98.5913 308.495 98.6353 308.173 98.738C307.857 98.8333 307.604 98.9873 307.414 99.2C307.223 99.4127 307.128 99.684 307.128 100.014C307.128 100.337 307.241 100.579 307.469 100.74C307.696 100.894 307.982 101.019 308.327 101.114C308.679 101.209 309.038 101.316 309.405 101.433C310.057 101.638 310.67 101.891 311.242 102.192C311.814 102.485 312.276 102.848 312.628 103.281C312.98 103.714 313.148 104.242 313.134 104.865C313.134 105.554 312.925 106.159 312.507 106.68C312.096 107.201 311.561 107.597 310.901 107.868C310.241 108.139 309.54 108.253 308.8 108.209ZM319.234 108.286C318.222 108.286 317.298 108.026 316.462 107.505C315.633 106.984 314.97 106.288 314.471 105.415C313.98 104.535 313.734 103.563 313.734 102.5C313.734 101.693 313.877 100.942 314.163 100.245C314.449 99.541 314.841 98.925 315.34 98.397C315.846 97.8617 316.433 97.4437 317.1 97.143C317.767 96.8423 318.479 96.692 319.234 96.692C320.077 96.692 320.851 96.868 321.555 97.22C322.259 97.5647 322.86 98.045 323.359 98.661C323.858 99.2697 324.224 99.9737 324.459 100.773C324.694 101.565 324.763 102.408 324.668 103.303H316.187C316.282 103.809 316.466 104.267 316.737 104.678C317.016 105.081 317.368 105.4 317.793 105.635C318.226 105.87 318.706 105.991 319.234 105.998C319.791 105.998 320.297 105.859 320.752 105.58C321.214 105.301 321.592 104.916 321.885 104.425L324.206 104.964C323.766 105.939 323.102 106.739 322.215 107.362C321.328 107.978 320.334 108.286 319.234 108.286ZM316.11 101.554H322.358C322.285 101.026 322.098 100.549 321.797 100.124C321.504 99.6913 321.133 99.3503 320.686 99.101C320.246 98.8443 319.762 98.716 319.234 98.716C318.713 98.716 318.229 98.8407 317.782 99.09C317.342 99.3393 316.975 99.6803 316.682 100.113C316.396 100.538 316.205 101.019 316.11 101.554ZM334.591 97H336.879V108H334.58L334.492 106.405C334.169 106.97 333.733 107.424 333.183 107.769C332.64 108.114 331.995 108.286 331.247 108.286C330.433 108.286 329.67 108.136 328.959 107.835C328.255 107.527 327.632 107.102 327.089 106.559C326.554 106.016 326.132 105.393 325.824 104.689C325.523 103.978 325.373 103.215 325.373 102.401C325.373 101.616 325.52 100.879 325.813 100.19C326.106 99.4933 326.513 98.8847 327.034 98.364C327.555 97.8433 328.156 97.4363 328.838 97.143C329.527 96.8423 330.264 96.692 331.049 96.692C331.848 96.692 332.552 96.8753 333.161 97.242C333.777 97.6013 334.283 98.0633 334.679 98.628L334.591 97ZM331.302 106.075C331.962 106.075 332.53 105.91 333.007 105.58C333.491 105.25 333.854 104.806 334.096 104.249C334.345 103.692 334.452 103.076 334.415 102.401C334.371 101.756 334.199 101.169 333.898 100.641C333.605 100.113 333.212 99.695 332.721 99.387C332.23 99.0717 331.672 98.914 331.049 98.914C330.396 98.914 329.806 99.079 329.278 99.409C328.757 99.739 328.354 100.183 328.068 100.74C327.782 101.297 327.657 101.917 327.694 102.599C327.738 103.237 327.929 103.82 328.266 104.348C328.611 104.876 329.047 105.298 329.575 105.613C330.11 105.921 330.686 106.075 331.302 106.075ZM345.435 99.299C345.244 99.1817 345.035 99.09 344.808 99.024C344.588 98.9507 344.346 98.914 344.082 98.914C343.51 98.914 343.011 99.0643 342.586 99.365C342.16 99.6657 341.827 100.073 341.585 100.586C341.35 101.099 341.233 101.668 341.233 102.291V108H338.934V97H341.222V98.485C341.603 97.935 342.065 97.5023 342.608 97.187C343.158 96.8643 343.77 96.703 344.445 96.703C344.694 96.703 344.929 96.714 345.149 96.736C345.376 96.758 345.592 96.802 345.798 96.868L345.435 99.299ZM353.316 104.876L355.362 105.987C354.864 106.684 354.229 107.241 353.459 107.659C352.697 108.077 351.868 108.286 350.973 108.286C349.961 108.286 349.037 108.026 348.201 107.505C347.373 106.984 346.709 106.288 346.21 105.415C345.719 104.535 345.473 103.563 345.473 102.5C345.473 101.693 345.616 100.942 345.902 100.245C346.188 99.541 346.581 98.925 347.079 98.397C347.585 97.8617 348.172 97.4437 348.839 97.143C349.507 96.8423 350.218 96.692 350.973 96.692C351.868 96.692 352.697 96.901 353.459 97.319C354.229 97.737 354.864 98.298 355.362 99.002L353.316 100.113C353.008 99.7463 352.649 99.4677 352.238 99.277C351.828 99.079 351.406 98.98 350.973 98.98C350.372 98.98 349.826 99.145 349.334 99.475C348.85 99.7977 348.465 100.227 348.179 100.762C347.901 101.29 347.761 101.869 347.761 102.5C347.761 103.123 347.904 103.703 348.19 104.238C348.476 104.766 348.861 105.191 349.345 105.514C349.837 105.837 350.379 105.998 350.973 105.998C351.428 105.998 351.861 105.895 352.271 105.69C352.682 105.485 353.03 105.213 353.316 104.876ZM366.752 102.247V108H364.464V102.291C364.464 101.668 364.332 101.099 364.068 100.586C363.811 100.073 363.467 99.6657 363.034 99.365C362.601 99.0643 362.121 98.914 361.593 98.914C361.021 98.914 360.533 99.0643 360.13 99.365C359.727 99.6657 359.415 100.073 359.195 100.586C358.982 101.099 358.876 101.668 358.876 102.291V108H356.577V91.5H358.865V98.287C359.173 97.693 359.576 97.2823 360.075 97.055C360.581 96.8203 361.16 96.703 361.813 96.703C362.803 96.703 363.665 96.956 364.398 97.462C365.131 97.968 365.703 98.6427 366.114 99.486C366.525 100.322 366.737 101.242 366.752 102.247Z" fill="#1A1A1A"/>
<path fill-rule="evenodd" clip-rule="evenodd" d="M253.459 100.177C253.459 61.5113 284.955 30.0596 323.621 30.0596C362.287 30.0596 393.739 61.5113 393.739 100.177C393.739 138.887 362.287 170.339 323.621 170.339C284.955 170.339 253.459 138.887 253.459 100.177ZM389.428 100.177C389.428 63.8867 359.912 34.3704 323.621 34.3704C287.331 34.3704 257.77 63.8867 257.77 100.177C257.77 136.468 287.331 166.028 323.621 166.028C359.912 166.028 389.428 136.468 389.428 100.177Z" fill="white"/>
<path fill-rule="evenodd" clip-rule="evenodd" d="M651.624 101.497C651.858 104.565 652.815 107.542 654.427 110.181L671.067 100.014L654.532 89.678C652.792 92.4617 651.786 95.6348 651.599 98.9014H603.298C602.594 98.9014 602.022 99.4733 602.022 100.177C602.022 100.925 602.594 101.497 603.298 101.497H651.624Z" fill="#0F89FF"/>
<path d="M454.045 74.2241C454.045 74.1361 454.06 74.0335 454.089 73.9162L454.133 73.7842C466.142 30.3236 505.776 0.103516 550.556 0.103516C559.529 0.103516 568.503 1.33519 577.257 3.75455C594.148 8.41733 609.588 17.435 621.817 29.8837C622.345 30.3676 622.301 31.2034 621.817 31.7312C621.289 32.2151 620.497 32.2151 619.97 31.6872C608.049 19.5904 593.049 10.7927 576.553 6.2619C568.063 3.88652 559.31 2.69883 550.556 2.69883C506.919 2.69883 468.297 32.1271 456.684 74.2681C456.508 74.9719 455.761 75.5438 455.057 75.3238C454.485 75.1918 454.045 74.752 454.045 74.2241ZM479.206 169.723C479.206 169.371 479.294 169.063 479.558 168.799C480.086 168.271 480.922 168.315 481.406 168.799C493.327 180.852 508.283 189.606 524.735 194.137C533.224 196.468 541.934 197.656 550.688 197.656C594.324 197.656 632.946 168.227 644.559 126.131C644.779 125.427 645.483 124.943 646.187 125.119C646.891 125.295 647.33 125.955 647.111 126.614L645.879 126.306L647.067 126.79C635.146 170.075 595.512 200.251 550.688 200.251C541.714 200.251 532.74 199.063 524.031 196.644C507.183 191.981 491.787 183.008 479.558 170.647C479.294 170.383 479.206 170.031 479.206 169.723Z" fill="#B4DAFF"/>
<path d="M468.605 120.412C468.605 119.797 469.001 119.269 469.573 119.137C470.277 118.961 470.981 119.401 471.157 120.06C474.588 133.961 481.714 146.761 491.699 157.099C507.271 173.243 528.21 182.128 550.644 182.128C571.978 182.128 592.169 173.946 607.521 159.122C608.049 158.638 608.929 158.55 609.456 159.078C609.94 159.606 610.028 160.31 609.5 160.838L609.324 160.97C593.489 176.278 572.638 184.68 550.644 184.68C527.506 184.68 505.908 175.53 489.852 158.902C479.514 148.213 472.212 135.017 468.649 120.72C468.62 120.603 468.605 120.5 468.605 120.412ZM491.479 40.3533C491.479 40.0454 491.611 39.7375 491.831 39.4736C491.875 39.4736 491.963 39.3856 491.963 39.3856C507.755 24.1216 528.606 15.6758 550.644 15.6758C573.782 15.6758 595.38 24.8694 611.436 41.497C621.685 52.1422 629.031 65.2948 632.594 79.5471C632.77 80.2509 632.33 80.9547 631.671 81.1306C630.967 81.3066 630.263 80.9107 630.087 80.2069C626.612 66.3945 619.53 53.6378 609.588 43.3005C593.972 27.1568 573.078 18.2711 550.644 18.2711C529.309 18.2711 509.075 26.453 493.723 41.2771C493.239 41.761 492.359 41.8049 491.875 41.2771C491.611 41.0132 491.479 40.6612 491.479 40.3533Z" fill="#B4DAFF"/>
<path d="M550.644 168.184C513.078 168.184 482.638 137.744 482.638 100.178C482.638 62.6558 513.078 32.2158 550.644 32.2158C588.166 32.2158 618.606 62.6558 618.606 100.178C618.606 137.744 588.166 168.184 550.644 168.184Z" fill="#B4DAFF"/>
<path d="M495.386 108L491.448 92.6H493.813L496.695 103.897L499.566 92.6H501.645L504.527 103.897L507.398 92.6H509.763L505.847 108H503.218L500.6 97.803L498.015 108H495.386ZM510.748 97H513.036V108H510.748V97ZM511.903 95.185C511.559 95.185 511.269 95.0713 511.034 94.844C510.8 94.6167 510.682 94.3307 510.682 93.986C510.682 93.6487 510.8 93.3663 511.034 93.139C511.269 92.9043 511.559 92.787 511.903 92.787C512.241 92.787 512.527 92.9043 512.761 93.139C512.996 93.3663 513.113 93.6487 513.113 93.986C513.113 94.3307 512.996 94.6167 512.761 94.844C512.527 95.0713 512.241 95.185 511.903 95.185ZM522.343 99.299C522.153 99.1817 521.944 99.09 521.716 99.024C521.496 98.9507 521.254 98.914 520.99 98.914C520.418 98.914 519.92 99.0643 519.494 99.365C519.069 99.6657 518.735 100.073 518.493 100.586C518.259 101.099 518.141 101.668 518.141 102.291V108H515.842V97H518.13V98.485C518.512 97.935 518.974 97.5023 519.516 97.187C520.066 96.8643 520.679 96.703 521.353 96.703C521.603 96.703 521.837 96.714 522.057 96.736C522.285 96.758 522.501 96.802 522.706 96.868L522.343 99.299ZM527.882 108.286C526.87 108.286 525.946 108.026 525.11 107.505C524.281 106.984 523.618 106.288 523.119 105.415C522.628 104.535 522.382 103.563 522.382 102.5C522.382 101.693 522.525 100.942 522.811 100.245C523.097 99.541 523.489 98.925 523.988 98.397C524.494 97.8617 525.081 97.4437 525.748 97.143C526.415 96.8423 527.127 96.692 527.882 96.692C528.725 96.692 529.499 96.868 530.203 97.22C530.907 97.5647 531.508 98.045 532.007 98.661C532.506 99.2697 532.872 99.9737 533.107 100.773C533.342 101.565 533.411 102.408 533.316 103.303H524.835C524.93 103.809 525.114 104.267 525.385 104.678C525.664 105.081 526.016 105.4 526.441 105.635C526.874 105.87 527.354 105.991 527.882 105.998C528.439 105.998 528.945 105.859 529.4 105.58C529.862 105.301 530.24 104.916 530.533 104.425L532.854 104.964C532.414 105.939 531.75 106.739 530.863 107.362C529.976 107.978 528.982 108.286 527.882 108.286ZM524.758 101.554H531.006C530.933 101.026 530.746 100.549 530.445 100.124C530.152 99.6913 529.781 99.3503 529.334 99.101C528.894 98.8443 528.41 98.716 527.882 98.716C527.361 98.716 526.877 98.8407 526.43 99.09C525.99 99.3393 525.623 99.6803 525.33 100.113C525.044 100.538 524.853 101.019 524.758 101.554ZM537.602 94.503V97H540.704V99.288H537.602V108H535.314V99.288H534.005V97H535.314V94.503C535.314 93.9017 535.46 93.3553 535.754 92.864C536.047 92.3653 536.439 91.9693 536.931 91.676C537.429 91.3827 537.983 91.236 538.592 91.236C539.032 91.236 539.461 91.324 539.879 91.5C540.297 91.676 540.671 91.9473 541.001 92.314L539.362 93.931C539.281 93.799 539.167 93.7 539.021 93.634C538.881 93.5607 538.738 93.524 538.592 93.524C538.32 93.524 538.086 93.6193 537.888 93.81C537.697 94.0007 537.602 94.2317 537.602 94.503ZM548.776 99.299C548.585 99.1817 548.376 99.09 548.149 99.024C547.929 98.9507 547.687 98.914 547.423 98.914C546.851 98.914 546.352 99.0643 545.927 99.365C545.502 99.6657 545.168 100.073 544.926 100.586C544.691 101.099 544.574 101.668 544.574 102.291V108H542.275V97H544.563V98.485C544.944 97.935 545.406 97.5023 545.949 97.187C546.499 96.8643 547.111 96.703 547.786 96.703C548.035 96.703 548.27 96.714 548.49 96.736C548.717 96.758 548.934 96.802 549.139 96.868L548.776 99.299ZM558.154 97H560.442V108H558.143L558.055 106.405C557.732 106.97 557.296 107.424 556.746 107.769C556.203 108.114 555.558 108.286 554.81 108.286C553.996 108.286 553.233 108.136 552.522 107.835C551.818 107.527 551.194 107.102 550.652 106.559C550.116 106.016 549.695 105.393 549.387 104.689C549.086 103.978 548.936 103.215 548.936 102.401C548.936 101.616 549.082 100.879 549.376 100.19C549.669 99.4933 550.076 98.8847 550.597 98.364C551.117 97.8433 551.719 97.4363 552.401 97.143C553.09 96.8423 553.827 96.692 554.612 96.692C555.411 96.692 556.115 96.8753 556.724 97.242C557.34 97.6013 557.846 98.0633 558.242 98.628L558.154 97ZM554.865 106.075C555.525 106.075 556.093 105.91 556.57 105.58C557.054 105.25 557.417 104.806 557.659 104.249C557.908 103.692 558.014 103.076 557.978 102.401C557.934 101.756 557.761 101.169 557.461 100.641C557.167 100.113 556.775 99.695 556.284 99.387C555.792 99.0717 555.235 98.914 554.612 98.914C553.959 98.914 553.369 99.079 552.841 99.409C552.32 99.739 551.917 100.183 551.631 100.74C551.345 101.297 551.22 101.917 551.257 102.599C551.301 103.237 551.491 103.82 551.829 104.348C552.173 104.876 552.61 105.298 553.138 105.613C553.673 105.921 554.249 106.075 554.865 106.075ZM562.133 108V97H564.421V98.331C564.773 97.8983 565.144 97.5463 565.532 97.275C565.928 96.9963 566.398 96.857 566.94 96.857C567.747 96.857 568.462 97.0403 569.085 97.407C569.716 97.7663 570.244 98.2687 570.669 98.914C571.095 98.2613 571.623 97.7553 572.253 97.396C572.891 97.0367 573.603 96.857 574.387 96.857C575.333 96.857 576.166 97.0953 576.884 97.572C577.603 98.0487 578.168 98.683 578.578 99.475C578.989 100.26 579.194 101.125 579.194 102.071V108H576.906V102.071C576.906 101.528 576.8 101.037 576.587 100.597C576.382 100.157 576.092 99.805 575.718 99.541C575.344 99.277 574.901 99.145 574.387 99.145C573.889 99.145 573.441 99.277 573.045 99.541C572.657 99.805 572.352 100.157 572.132 100.597C571.92 101.037 571.813 101.528 571.813 102.071V108H569.525V102.071C569.525 101.528 569.415 101.037 569.195 100.597C568.975 100.157 568.671 99.805 568.282 99.541C567.894 99.277 567.446 99.145 566.94 99.145C566.456 99.145 566.024 99.2843 565.642 99.563C565.268 99.8417 564.971 100.208 564.751 100.663C564.531 101.118 564.421 101.616 564.421 102.159V108H562.133ZM580.889 97H583.177V108H580.889V97ZM582.044 95.185C581.7 95.185 581.41 95.0713 581.175 94.844C580.941 94.6167 580.823 94.3307 580.823 93.986C580.823 93.6487 580.941 93.3663 581.175 93.139C581.41 92.9043 581.7 92.787 582.044 92.787C582.382 92.787 582.668 92.9043 582.902 93.139C583.137 93.3663 583.254 93.6487 583.254 93.986C583.254 94.3307 583.137 94.6167 582.902 94.844C582.668 95.0713 582.382 95.185 582.044 95.185ZM596.191 102.236V108H593.903V102.28C593.903 101.657 593.771 101.092 593.507 100.586C593.251 100.073 592.895 99.6657 592.44 99.365C591.993 99.057 591.483 98.903 590.911 98.903C590.339 98.903 589.837 99.057 589.404 99.365C588.979 99.6657 588.645 100.073 588.403 100.586C588.169 101.092 588.051 101.657 588.051 102.28V108H585.763V97H588.051V98.485C588.433 97.9277 588.895 97.4913 589.437 97.176C589.98 96.8533 590.592 96.692 591.274 96.692C592.264 96.692 593.122 96.945 593.848 97.451C594.582 97.957 595.154 98.628 595.564 99.464C595.975 100.3 596.184 101.224 596.191 102.236ZM606.044 97H608.332V108.286C608.332 109.041 608.171 109.738 607.848 110.376C607.533 111.014 607.104 111.564 606.561 112.026C606.019 112.495 605.395 112.858 604.691 113.115C603.995 113.372 603.265 113.5 602.502 113.5C601.732 113.5 600.992 113.335 600.28 113.005C599.569 112.682 598.942 112.242 598.399 111.685C597.864 111.128 597.464 110.497 597.2 109.793L599.301 108.847C599.448 109.302 599.683 109.705 600.005 110.057C600.335 110.409 600.717 110.688 601.149 110.893C601.589 111.098 602.04 111.201 602.502 111.201C602.957 111.201 603.393 111.128 603.811 110.981C604.237 110.842 604.614 110.644 604.944 110.387C605.282 110.13 605.549 109.822 605.747 109.463C605.945 109.104 606.044 108.711 606.044 108.286V106.427C605.685 106.984 605.223 107.435 604.658 107.78C604.094 108.117 603.437 108.286 602.689 108.286C601.912 108.286 601.179 108.136 600.489 107.835C599.8 107.534 599.195 107.12 598.674 106.592C598.154 106.057 597.747 105.441 597.453 104.744C597.16 104.047 597.013 103.299 597.013 102.5C597.013 101.701 597.16 100.953 597.453 100.256C597.747 99.552 598.154 98.936 598.674 98.408C599.195 97.8727 599.8 97.4547 600.489 97.154C601.179 96.8533 601.912 96.703 602.689 96.703C603.437 96.703 604.094 96.8753 604.658 97.22C605.223 97.5573 605.685 98.0083 606.044 98.573V97ZM602.711 106.075C603.349 106.075 603.907 105.914 604.383 105.591C604.86 105.261 605.23 104.825 605.494 104.282C605.758 103.739 605.89 103.145 605.89 102.5C605.89 101.84 605.755 101.242 605.483 100.707C605.219 100.164 604.849 99.7317 604.372 99.409C603.896 99.079 603.342 98.914 602.711 98.914C602.095 98.914 601.531 99.0753 601.017 99.398C600.511 99.7207 600.108 100.153 599.807 100.696C599.507 101.239 599.356 101.84 599.356 102.5C599.356 103.16 599.507 103.761 599.807 104.304C600.115 104.847 600.522 105.279 601.028 105.602C601.542 105.917 602.103 106.075 602.711 106.075Z" fill="#1A1A1A"/>
<path fill-rule="evenodd" clip-rule="evenodd" d="M480.482 100.177C480.482 61.5113 511.978 30.0596 550.644 30.0596C589.309 30.0596 620.761 61.5113 620.761 100.177C620.761 138.887 589.309 170.339 550.644 170.339C511.978 170.339 480.482 138.887 480.482 100.177ZM616.45 100.177C616.45 63.8867 586.934 34.3704 550.644 34.3704C514.353 34.3704 484.793 63.8867 484.793 100.177C484.793 136.468 514.353 166.028 550.644 166.028C586.934 166.028 616.45 136.468 616.45 100.177Z" fill="white"/>
<path fill-rule="evenodd" clip-rule="evenodd" d="M878.646 101.6C878.88 104.668 879.838 107.646 881.45 110.284L898.09 100.117L881.554 89.7815C879.814 92.5652 878.808 95.7383 878.622 99.0049H830.32C829.617 99.0049 829.045 99.5768 829.045 100.281C829.045 101.028 829.617 101.6 830.32 101.6H878.646Z" fill="#0F89FF"/>
<path d="M681.068 74.3276C681.068 74.2396 681.082 74.137 681.112 74.0197L681.156 73.8877C693.164 30.4271 732.798 0.207031 777.578 0.207031C786.552 0.207031 795.526 1.4387 804.279 3.85807C821.171 8.52085 836.611 17.5385 848.84 29.9872C849.367 30.4711 849.323 31.3069 848.84 31.8347C848.312 32.3186 847.52 32.3186 846.992 31.7908C835.071 19.6939 820.071 10.8962 803.575 6.36542C795.086 3.99004 786.332 2.80235 777.578 2.80235C733.942 2.80235 695.32 32.2306 683.707 74.3716C683.531 75.0754 682.783 75.6473 682.079 75.4273C681.507 75.2954 681.068 74.8555 681.068 74.3276ZM706.229 169.827C706.229 169.475 706.317 169.167 706.581 168.903C707.109 168.375 707.945 168.419 708.428 168.903C720.349 180.956 735.305 189.709 751.757 194.24C760.247 196.572 768.957 197.759 777.71 197.759C821.347 197.759 859.969 168.331 871.582 126.234C871.802 125.53 872.505 125.046 873.209 125.222C873.913 125.398 874.353 126.058 874.133 126.718L872.901 126.41L874.089 126.894C862.168 170.179 822.535 200.355 777.71 200.355C768.737 200.355 759.763 199.167 751.053 196.748C734.206 192.085 718.81 183.111 706.581 170.75C706.317 170.486 706.229 170.135 706.229 169.827Z" fill="#B4DAFF"/>
<path d="M695.628 120.516C695.628 119.9 696.024 119.372 696.596 119.24C697.299 119.064 698.003 119.504 698.179 120.164C701.61 134.064 708.736 146.865 718.722 157.202C734.294 173.346 755.232 182.232 777.666 182.232C799.001 182.232 819.191 174.05 834.543 159.226C835.071 158.742 835.951 158.654 836.479 159.182C836.963 159.71 837.051 160.413 836.523 160.941L836.347 161.073C820.511 176.381 799.661 184.783 777.666 184.783C754.528 184.783 732.93 175.633 716.874 159.006C706.537 148.317 699.235 135.12 695.672 120.824C695.642 120.706 695.628 120.604 695.628 120.516ZM718.502 40.4568C718.502 40.1489 718.634 39.841 718.854 39.5771C718.898 39.5771 718.986 39.4891 718.986 39.4891C734.778 24.2251 755.628 15.7793 777.666 15.7793C800.804 15.7793 822.403 24.9729 838.458 41.6005C848.708 52.2458 856.054 65.3983 859.617 79.6506C859.793 80.3544 859.353 81.0582 858.693 81.2342C857.989 81.4101 857.285 81.0142 857.109 80.3104C853.634 66.498 846.552 53.7414 836.611 43.4041C820.995 27.2603 800.1 18.3746 777.666 18.3746C756.332 18.3746 736.097 26.5565 720.745 41.3806C720.261 41.8645 719.382 41.9085 718.898 41.3806C718.634 41.1167 718.502 40.7648 718.502 40.4568Z" fill="#B4DAFF"/>
<path d="M777.666 168.288C740.1 168.288 709.66 137.848 709.66 100.282C709.66 62.7594 740.1 32.3193 777.666 32.3193C815.188 32.3193 845.628 62.7594 845.628 100.282C845.628 137.848 815.188 168.288 777.666 168.288Z" fill="#B4DAFF"/>
<path d="M745.744 108V92.6H750.837C751.9 92.6 752.898 92.8017 753.829 93.205C754.76 93.601 755.578 94.1547 756.282 94.866C756.986 95.57 757.536 96.3877 757.932 97.319C758.335 98.243 758.537 99.2367 758.537 100.3C758.537 101.363 758.335 102.361 757.932 103.292C757.536 104.216 756.986 105.034 756.282 105.745C755.578 106.449 754.76 107.003 753.829 107.406C752.898 107.802 751.9 108 750.837 108H745.744ZM748.032 105.712H750.837C751.585 105.712 752.282 105.573 752.927 105.294C753.58 105.015 754.155 104.627 754.654 104.128C755.16 103.629 755.552 103.054 755.831 102.401C756.11 101.748 756.249 101.048 756.249 100.3C756.249 99.552 756.11 98.8517 755.831 98.199C755.552 97.5463 755.16 96.9707 754.654 96.472C754.155 95.9733 753.58 95.5847 752.927 95.306C752.282 95.0273 751.585 94.888 750.837 94.888H748.032V105.712ZM764.508 108.286C763.496 108.286 762.572 108.026 761.736 107.505C760.907 106.984 760.244 106.288 759.745 105.415C759.254 104.535 759.008 103.563 759.008 102.5C759.008 101.693 759.151 100.942 759.437 100.245C759.723 99.541 760.115 98.925 760.614 98.397C761.12 97.8617 761.707 97.4437 762.374 97.143C763.041 96.8423 763.753 96.692 764.508 96.692C765.351 96.692 766.125 96.868 766.829 97.22C767.533 97.5647 768.134 98.045 768.633 98.661C769.132 99.2697 769.498 99.9737 769.733 100.773C769.968 101.565 770.037 102.408 769.942 103.303H761.461C761.556 103.809 761.74 104.267 762.011 104.678C762.29 105.081 762.642 105.4 763.067 105.635C763.5 105.87 763.98 105.991 764.508 105.998C765.065 105.998 765.571 105.859 766.026 105.58C766.488 105.301 766.866 104.916 767.159 104.425L769.48 104.964C769.04 105.939 768.376 106.739 767.489 107.362C766.602 107.978 765.608 108.286 764.508 108.286ZM761.384 101.554H767.632C767.559 101.026 767.372 100.549 767.071 100.124C766.778 99.6913 766.407 99.3503 765.96 99.101C765.52 98.8443 765.036 98.716 764.508 98.716C763.987 98.716 763.503 98.8407 763.056 99.09C762.616 99.3393 762.249 99.6803 761.956 100.113C761.67 100.538 761.479 101.019 761.384 101.554ZM774.811 108.209C774.232 108.172 773.667 108.055 773.117 107.857C772.567 107.659 772.083 107.391 771.665 107.054C771.254 106.709 770.946 106.306 770.741 105.844L772.688 105.008C772.783 105.206 772.948 105.4 773.183 105.591C773.425 105.782 773.707 105.939 774.03 106.064C774.353 106.181 774.69 106.24 775.042 106.24C775.387 106.24 775.706 106.192 775.999 106.097C776.3 105.994 776.545 105.84 776.736 105.635C776.927 105.43 777.022 105.184 777.022 104.898C777.022 104.575 776.912 104.326 776.692 104.15C776.479 103.967 776.212 103.827 775.889 103.732C775.566 103.637 775.244 103.545 774.921 103.457C774.202 103.296 773.542 103.076 772.941 102.797C772.347 102.511 771.874 102.148 771.522 101.708C771.17 101.261 770.994 100.714 770.994 100.069C770.994 99.365 771.181 98.7563 771.555 98.243C771.936 97.7223 772.439 97.3227 773.062 97.044C773.685 96.7653 774.349 96.626 775.053 96.626C775.933 96.626 776.74 96.813 777.473 97.187C778.206 97.561 778.767 98.0743 779.156 98.727L777.341 99.805C777.231 99.585 777.066 99.387 776.846 99.211C776.626 99.035 776.377 98.8957 776.098 98.793C775.819 98.683 775.53 98.6207 775.229 98.606C774.855 98.5913 774.507 98.6353 774.184 98.738C773.869 98.8333 773.616 98.9873 773.425 99.2C773.234 99.4127 773.139 99.684 773.139 100.014C773.139 100.337 773.253 100.579 773.48 100.74C773.707 100.894 773.993 101.019 774.338 101.114C774.69 101.209 775.049 101.316 775.416 101.433C776.069 101.638 776.681 101.891 777.253 102.192C777.825 102.485 778.287 102.848 778.639 103.281C778.991 103.714 779.16 104.242 779.145 104.865C779.145 105.554 778.936 106.159 778.518 106.68C778.107 107.201 777.572 107.597 776.912 107.868C776.252 108.139 775.552 108.253 774.811 108.209ZM780.362 97H782.65V108H780.362V97ZM781.517 95.185C781.172 95.185 780.883 95.0713 780.648 94.844C780.413 94.6167 780.296 94.3307 780.296 93.986C780.296 93.6487 780.413 93.3663 780.648 93.139C780.883 92.9043 781.172 92.787 781.517 92.787C781.854 92.787 782.14 92.9043 782.375 93.139C782.61 93.3663 782.727 93.6487 782.727 93.986C782.727 94.3307 782.61 94.6167 782.375 94.844C782.14 95.0713 781.854 95.185 781.517 95.185ZM793.913 97H796.201V108.286C796.201 109.041 796.04 109.738 795.717 110.376C795.402 111.014 794.973 111.564 794.43 112.026C793.888 112.495 793.264 112.858 792.56 113.115C791.864 113.372 791.134 113.5 790.371 113.5C789.601 113.5 788.861 113.335 788.149 113.005C787.438 112.682 786.811 112.242 786.268 111.685C785.733 111.128 785.333 110.497 785.069 109.793L787.17 108.847C787.317 109.302 787.552 109.705 787.874 110.057C788.204 110.409 788.586 110.688 789.018 110.893C789.458 111.098 789.909 111.201 790.371 111.201C790.826 111.201 791.262 111.128 791.68 110.981C792.106 110.842 792.483 110.644 792.813 110.387C793.151 110.13 793.418 109.822 793.616 109.463C793.814 109.104 793.913 108.711 793.913 108.286V106.427C793.554 106.984 793.092 107.435 792.527 107.78C791.963 108.117 791.306 108.286 790.558 108.286C789.781 108.286 789.048 108.136 788.358 107.835C787.669 107.534 787.064 107.12 786.543 106.592C786.023 106.057 785.616 105.441 785.322 104.744C785.029 104.047 784.882 103.299 784.882 102.5C784.882 101.701 785.029 100.953 785.322 100.256C785.616 99.552 786.023 98.936 786.543 98.408C787.064 97.8727 787.669 97.4547 788.358 97.154C789.048 96.8533 789.781 96.703 790.558 96.703C791.306 96.703 791.963 96.8753 792.527 97.22C793.092 97.5573 793.554 98.0083 793.913 98.573V97ZM790.58 106.075C791.218 106.075 791.776 105.914 792.252 105.591C792.729 105.261 793.099 104.825 793.363 104.282C793.627 103.739 793.759 103.145 793.759 102.5C793.759 101.84 793.624 101.242 793.352 100.707C793.088 100.164 792.718 99.7317 792.241 99.409C791.765 99.079 791.211 98.914 790.58 98.914C789.964 98.914 789.4 99.0753 788.886 99.398C788.38 99.7207 787.977 100.153 787.676 100.696C787.376 101.239 787.225 101.84 787.225 102.5C787.225 103.16 787.376 103.761 787.676 104.304C787.984 104.847 788.391 105.279 788.897 105.602C789.411 105.917 789.972 106.075 790.58 106.075ZM808.471 102.236V108H806.183V102.28C806.183 101.657 806.051 101.092 805.787 100.586C805.531 100.073 805.175 99.6657 804.72 99.365C804.273 99.057 803.763 98.903 803.191 98.903C802.619 98.903 802.117 99.057 801.684 99.365C801.259 99.6657 800.925 100.073 800.683 100.586C800.449 101.092 800.331 101.657 800.331 102.28V108H798.043V97H800.331V98.485C800.713 97.9277 801.175 97.4913 801.717 97.176C802.26 96.8533 802.872 96.692 803.554 96.692C804.544 96.692 805.402 96.945 806.128 97.451C806.862 97.957 807.434 98.628 807.844 99.464C808.255 100.3 808.464 101.224 808.471 102.236Z" fill="#1A1A1A"/>
<path fill-rule="evenodd" clip-rule="evenodd" d="M707.504 100.281C707.504 61.6148 739 30.1631 777.666 30.1631C816.332 30.1631 847.784 61.6148 847.784 100.281C847.784 138.991 816.332 170.442 777.666 170.442C739 170.442 707.504 138.991 707.504 100.281ZM843.473 100.281C843.473 63.9902 813.957 34.474 777.666 34.474C741.376 34.474 711.815 63.9902 711.815 100.281C711.815 136.571 741.376 166.131 777.666 166.131C813.957 166.131 843.473 136.571 843.473 100.281Z" fill="white"/>
<path fill-rule="evenodd" clip-rule="evenodd" d="M1105.67 101.497C1105.9 104.565 1106.86 107.542 1108.47 110.181L1125.11 100.014L1108.58 89.678C1106.84 92.4617 1105.83 95.6348 1105.64 98.9014H1057.34C1056.64 98.9014 1056.07 99.4733 1056.07 100.177C1056.07 100.925 1056.64 101.497 1057.34 101.497H1105.67Z" fill="#0F89FF"/>
<path d="M908.09 74.2241C908.09 74.1361 908.105 74.0335 908.134 73.9162L908.178 73.7842C920.187 30.3236 959.82 0.103516 1004.6 0.103516C1013.57 0.103516 1022.55 1.33519 1031.3 3.75455C1048.19 8.41733 1063.63 17.435 1075.86 29.8837C1076.39 30.3676 1076.35 31.2034 1075.86 31.7312C1075.33 32.2151 1074.54 32.2151 1074.01 31.6872C1062.09 19.5904 1047.09 10.7927 1030.6 6.2619C1022.11 3.88652 1013.35 2.69883 1004.6 2.69883C960.964 2.69883 922.342 32.1271 910.729 74.2681C910.553 74.9719 909.806 75.5438 909.102 75.3238C908.53 75.1918 908.09 74.752 908.09 74.2241ZM933.251 169.723C933.251 169.371 933.339 169.063 933.603 168.799C934.131 168.271 934.967 168.315 935.451 168.799C947.372 180.852 962.328 189.606 978.779 194.137C987.269 196.468 995.979 197.656 1004.73 197.656C1048.37 197.656 1086.99 168.227 1098.6 126.131C1098.82 125.427 1099.53 124.943 1100.23 125.119C1100.94 125.295 1101.38 125.955 1101.16 126.614L1099.92 126.306L1101.11 126.79C1089.19 170.075 1049.56 200.251 1004.73 200.251C995.759 200.251 986.785 199.063 978.076 196.644C961.228 191.981 945.832 183.008 933.603 170.647C933.339 170.383 933.251 170.031 933.251 169.723Z" fill="#B4DAFF"/>
<path d="M922.65 120.412C922.65 119.797 923.046 119.269 923.618 119.137C924.322 118.961 925.026 119.401 925.202 120.06C928.633 133.961 935.759 146.761 945.744 157.099C961.316 173.243 982.255 182.128 1004.69 182.128C1026.02 182.128 1046.21 173.946 1061.57 159.122C1062.09 158.638 1062.97 158.55 1063.5 159.078C1063.99 159.606 1064.07 160.31 1063.55 160.838L1063.37 160.97C1047.53 176.278 1026.68 184.68 1004.69 184.68C981.551 184.68 959.952 175.53 943.897 158.902C933.559 148.213 926.257 135.017 922.694 120.72C922.665 120.603 922.65 120.5 922.65 120.412ZM945.524 40.3533C945.524 40.0454 945.656 39.7375 945.876 39.4736C945.92 39.4736 946.008 39.3856 946.008 39.3856C961.8 24.1216 982.651 15.6758 1004.69 15.6758C1027.83 15.6758 1049.43 24.8694 1065.48 41.497C1075.73 52.1422 1083.08 65.2948 1086.64 79.5471C1086.82 80.2509 1086.38 80.9547 1085.72 81.1306C1085.01 81.3066 1084.31 80.9107 1084.13 80.2069C1080.66 66.3945 1073.57 53.6378 1063.63 43.3005C1048.02 27.1568 1027.12 18.2711 1004.69 18.2711C983.354 18.2711 963.12 26.453 947.768 41.2771C947.284 41.761 946.404 41.8049 945.92 41.2771C945.656 41.0132 945.524 40.6612 945.524 40.3533Z" fill="#B4DAFF"/>
<path d="M1004.69 168.184C967.123 168.184 936.682 137.744 936.682 100.178C936.682 62.6558 967.123 32.2158 1004.69 32.2158C1042.21 32.2158 1072.65 62.6558 1072.65 100.178C1072.65 137.744 1042.21 168.184 1004.69 168.184Z" fill="#B4DAFF"/>
<path d="M961.2 108L955.612 92.6H958.043L962.641 105.283L967.25 92.6H969.681L964.082 108H961.2ZM977.79 97H980.078V108H977.779L977.691 106.405C977.368 106.97 976.932 107.424 976.382 107.769C975.839 108.114 975.194 108.286 974.446 108.286C973.632 108.286 972.869 108.136 972.158 107.835C971.454 107.527 970.83 107.102 970.288 106.559C969.752 106.016 969.331 105.393 969.023 104.689C968.722 103.978 968.572 103.215 968.572 102.401C968.572 101.616 968.718 100.879 969.012 100.19C969.305 99.4933 969.712 98.8847 970.233 98.364C970.753 97.8433 971.355 97.4363 972.037 97.143C972.726 96.8423 973.463 96.692 974.248 96.692C975.047 96.692 975.751 96.8753 976.36 97.242C976.976 97.6013 977.482 98.0633 977.878 98.628L977.79 97ZM974.501 106.075C975.161 106.075 975.729 105.91 976.206 105.58C976.69 105.25 977.053 104.806 977.295 104.249C977.544 103.692 977.65 103.076 977.614 102.401C977.57 101.756 977.397 101.169 977.097 100.641C976.803 100.113 976.411 99.695 975.92 99.387C975.428 99.0717 974.871 98.914 974.248 98.914C973.595 98.914 973.005 99.079 972.477 99.409C971.956 99.739 971.553 100.183 971.267 100.74C970.981 101.297 970.856 101.917 970.893 102.599C970.937 103.237 971.127 103.82 971.465 104.348C971.809 104.876 972.246 105.298 972.774 105.613C973.309 105.921 973.885 106.075 974.501 106.075ZM982.265 108V91.5H984.542V108H982.265ZM986.733 97H989.021V108H986.733V97ZM987.888 95.185C987.543 95.185 987.253 95.0713 987.019 94.844C986.784 94.6167 986.667 94.3307 986.667 93.986C986.667 93.6487 986.784 93.3663 987.019 93.139C987.253 92.9043 987.543 92.787 987.888 92.787C988.225 92.787 988.511 92.9043 988.746 93.139C988.98 93.3663 989.098 93.6487 989.098 93.986C989.098 94.3307 988.98 94.6167 988.746 94.844C988.511 95.0713 988.225 95.185 987.888 95.185ZM1000.48 91.5H1002.77V108H1000.48V106.383C1000.12 106.955 999.653 107.417 999.074 107.769C998.494 108.114 997.816 108.286 997.039 108.286C996.239 108.286 995.491 108.136 994.795 107.835C994.098 107.534 993.482 107.12 992.947 106.592C992.419 106.057 992.004 105.441 991.704 104.744C991.403 104.047 991.253 103.299 991.253 102.5C991.253 101.701 991.403 100.953 991.704 100.256C992.004 99.552 992.419 98.936 992.947 98.408C993.482 97.8727 994.098 97.4547 994.795 97.154C995.491 96.8533 996.239 96.703 997.039 96.703C997.816 96.703 998.494 96.879 999.074 97.231C999.653 97.5757 1000.12 98.0303 1000.48 98.595V91.5ZM997.061 106.075C997.706 106.075 998.271 105.917 998.755 105.602C999.239 105.279 999.613 104.847 999.877 104.304C1000.15 103.761 1000.28 103.16 1000.28 102.5C1000.28 101.833 1000.15 101.228 999.877 100.685C999.605 100.142 999.228 99.7133 998.744 99.398C998.267 99.0753 997.706 98.914 997.061 98.914C996.423 98.914 995.84 99.0753 995.312 99.398C994.791 99.7207 994.373 100.153 994.058 100.696C993.75 101.239 993.596 101.84 993.596 102.5C993.596 103.167 993.753 103.772 994.069 104.315C994.391 104.85 994.813 105.279 995.334 105.602C995.862 105.917 996.437 106.075 997.061 106.075ZM1013.51 97H1015.79V108H1013.5L1013.41 106.405C1013.08 106.97 1012.65 107.424 1012.1 107.769C1011.56 108.114 1010.91 108.286 1010.16 108.286C1009.35 108.286 1008.59 108.136 1007.87 107.835C1007.17 107.527 1006.55 107.102 1006 106.559C1005.47 106.016 1005.05 105.393 1004.74 104.689C1004.44 103.978 1004.29 103.215 1004.29 102.401C1004.29 101.616 1004.43 100.879 1004.73 100.19C1005.02 99.4933 1005.43 98.8847 1005.95 98.364C1006.47 97.8433 1007.07 97.4363 1007.75 97.143C1008.44 96.8423 1009.18 96.692 1009.96 96.692C1010.76 96.692 1011.47 96.8753 1012.08 97.242C1012.69 97.6013 1013.2 98.0633 1013.59 98.628L1013.51 97ZM1010.22 106.075C1010.88 106.075 1011.45 105.91 1011.92 105.58C1012.41 105.25 1012.77 104.806 1013.01 104.249C1013.26 103.692 1013.37 103.076 1013.33 102.401C1013.29 101.756 1013.11 101.169 1012.81 100.641C1012.52 100.113 1012.13 99.695 1011.64 99.387C1011.14 99.0717 1010.59 98.914 1009.96 98.914C1009.31 98.914 1008.72 99.079 1008.19 99.409C1007.67 99.739 1007.27 100.183 1006.98 100.74C1006.7 101.297 1006.57 101.917 1006.61 102.599C1006.65 103.237 1006.84 103.82 1007.18 104.348C1007.53 104.876 1007.96 105.298 1008.49 105.613C1009.03 105.921 1009.6 106.075 1010.22 106.075ZM1023.66 99.288H1021.35L1021.34 108H1019.05L1019.06 99.288H1017.31V97H1019.06L1019.05 93.546H1021.34L1021.35 97H1023.66V99.288ZM1024.58 97H1026.86V108H1024.58V97ZM1025.73 95.185C1025.39 95.185 1025.1 95.0713 1024.86 94.844C1024.63 94.6167 1024.51 94.3307 1024.51 93.986C1024.51 93.6487 1024.63 93.3663 1024.86 93.139C1025.1 92.9043 1025.39 92.787 1025.73 92.787C1026.07 92.787 1026.35 92.9043 1026.59 93.139C1026.82 93.3663 1026.94 93.6487 1026.94 93.986C1026.94 94.3307 1026.82 94.6167 1026.59 94.844C1026.35 95.0713 1026.07 95.185 1025.73 95.185ZM1034.6 108.286C1033.58 108.286 1032.66 108.026 1031.82 107.505C1031 106.984 1030.33 106.288 1029.83 105.415C1029.34 104.535 1029.1 103.563 1029.1 102.5C1029.1 101.693 1029.24 100.942 1029.52 100.245C1029.81 99.541 1030.2 98.925 1030.7 98.397C1031.21 97.8617 1031.79 97.4437 1032.46 97.143C1033.13 96.8423 1033.84 96.692 1034.6 96.692C1035.61 96.692 1036.53 96.9523 1037.36 97.473C1038.19 97.9937 1038.86 98.694 1039.35 99.574C1039.85 100.454 1040.1 101.429 1040.1 102.5C1040.1 103.299 1039.95 104.047 1039.67 104.744C1039.38 105.441 1038.98 106.057 1038.48 106.592C1037.98 107.12 1037.4 107.534 1036.73 107.835C1036.07 108.136 1035.36 108.286 1034.6 108.286ZM1034.6 105.998C1035.2 105.998 1035.75 105.837 1036.23 105.514C1036.72 105.191 1037.1 104.766 1037.38 104.238C1037.66 103.703 1037.81 103.123 1037.81 102.5C1037.81 101.862 1037.66 101.275 1037.37 100.74C1037.08 100.205 1036.7 99.7793 1036.21 99.464C1035.73 99.1413 1035.19 98.98 1034.6 98.98C1033.99 98.98 1033.45 99.1413 1032.96 99.464C1032.47 99.7867 1032.09 100.216 1031.8 100.751C1031.52 101.286 1031.38 101.869 1031.38 102.5C1031.38 103.153 1031.53 103.743 1031.82 104.271C1032.12 104.799 1032.51 105.221 1032.99 105.536C1033.48 105.844 1034.02 105.998 1034.6 105.998ZM1051.5 102.236V108H1049.22V102.28C1049.22 101.657 1049.08 101.092 1048.82 100.586C1048.56 100.073 1048.21 99.6657 1047.75 99.365C1047.3 99.057 1046.8 98.903 1046.22 98.903C1045.65 98.903 1045.15 99.057 1044.72 99.365C1044.29 99.6657 1043.96 100.073 1043.72 100.586C1043.48 101.092 1043.36 101.657 1043.36 102.28V108H1041.08V97H1043.36V98.485C1043.74 97.9277 1044.21 97.4913 1044.75 97.176C1045.29 96.8533 1045.9 96.692 1046.59 96.692C1047.58 96.692 1048.43 96.945 1049.16 97.451C1049.89 97.957 1050.47 98.628 1050.88 99.464C1051.29 100.3 1051.5 101.224 1051.5 102.236Z" fill="#1A1A1A"/>
<path fill-rule="evenodd" clip-rule="evenodd" d="M934.527 100.177C934.527 61.5113 966.023 30.0596 1004.69 30.0596C1043.35 30.0596 1074.81 61.5113 1074.81 100.177C1074.81 138.887 1043.35 170.339 1004.69 170.339C966.023 170.339 934.527 138.887 934.527 100.177ZM1070.5 100.177C1070.5 63.8867 1040.98 34.3704 1004.69 34.3704C968.398 34.3704 938.838 63.8867 938.838 100.177C938.838 136.468 968.398 166.028 1004.69 166.028C1040.98 166.028 1070.5 136.468 1070.5 100.177Z" fill="white"/>
</svg>
