<svg width="259" height="367" viewBox="0 0 259 367" fill="none" xmlns="http://www.w3.org/2000/svg">
<path d="M1 312.617H0.477404V313.139H1V312.617ZM1 51.8328L0.9871 51.3104L0.477404 51.323V51.8328H1ZM34.2054 313.139C34.494 313.139 34.728 312.905 34.728 312.617C34.728 312.328 34.494 312.094 34.2054 312.094V313.139ZM33.8005 51.0229L28.5016 48.1357L28.6506 54.1682L33.8005 51.0229ZM31.7375 50.5511C31.449 50.5583 31.2209 50.7979 31.228 51.0865C31.2351 51.375 31.4748 51.6031 31.7633 51.596L31.7375 50.5511ZM27.6633 51.6972C27.9518 51.6901 28.1799 51.4504 28.1728 51.1619C28.1657 50.8734 27.926 50.6452 27.6375 50.6524L27.6633 51.6972ZM23.5374 50.7536C23.2489 50.7607 23.0208 51.0004 23.0279 51.2889C23.035 51.5775 23.2747 51.8056 23.5632 51.7985L23.5374 50.7536ZM19.4632 51.8997C19.7517 51.8926 19.9798 51.6529 19.9727 51.3644C19.9656 51.0758 19.7259 50.8477 19.4374 50.8548L19.4632 51.8997ZM15.3373 50.9561C15.0488 50.9632 14.8206 51.2029 14.8278 51.4914C14.8349 51.7799 15.0746 52.0081 15.3631 52.0009L15.3373 50.9561ZM11.263 52.1022C11.5516 52.0951 11.7797 51.8554 11.7726 51.5668C11.7655 51.2783 11.5258 51.0502 11.2372 51.0573L11.263 52.1022ZM7.13719 51.1585C6.84865 51.1657 6.62053 51.4053 6.62765 51.6939C6.63478 51.9824 6.87445 52.2105 7.16299 52.2034L7.13719 51.1585ZM3.06293 52.3047C3.35146 52.2975 3.57959 52.0579 3.57247 51.7693C3.56534 51.4808 3.32567 51.2527 3.03713 51.2598L3.06293 52.3047ZM0.477404 53.9359C0.477404 54.2246 0.711378 54.4585 1 54.4585C1.28862 54.4585 1.5226 54.2246 1.5226 53.9359H0.477404ZM1.5226 58.1421C1.5226 57.8535 1.28862 57.6195 1 57.6195C0.711378 57.6195 0.477404 57.8535 0.477404 58.1421H1.5226ZM0.477404 62.3483C0.477404 62.6369 0.711378 62.8709 1 62.8709C1.28862 62.8709 1.5226 62.6369 1.5226 62.3483H0.477404ZM1.5226 66.5545C1.5226 66.2659 1.28862 66.0319 1 66.0319C0.711378 66.0319 0.477404 66.2659 0.477404 66.5545H1.5226ZM0.477404 70.7607C0.477404 71.0493 0.711378 71.2833 1 71.2833C1.28862 71.2833 1.5226 71.0493 1.5226 70.7607H0.477404ZM1.5226 74.9669C1.5226 74.6783 1.28862 74.4443 1 74.4443C0.711378 74.4443 0.477404 74.6783 0.477404 74.9669H1.5226ZM0.477404 79.1731C0.477404 79.4617 0.711378 79.6957 1 79.6957C1.28862 79.6957 1.5226 79.4617 1.5226 79.1731H0.477404ZM1.5226 83.3793C1.5226 83.0907 1.28862 82.8567 1 82.8567C0.711378 82.8567 0.477404 83.0907 0.477404 83.3793H1.5226ZM0.477404 87.5855C0.477404 87.8741 0.711378 88.1081 1 88.1081C1.28862 88.1081 1.5226 87.8741 1.5226 87.5855H0.477404ZM1.5226 91.7917C1.5226 91.503 1.28862 91.2691 1 91.2691C0.711378 91.2691 0.477404 91.503 0.477404 91.7917H1.5226ZM0.477404 95.9979C0.477404 96.2865 0.711378 96.5205 1 96.5205C1.28862 96.5205 1.5226 96.2865 1.5226 95.9979H0.477404ZM1.5226 100.204C1.5226 99.9154 1.28862 99.6815 1 99.6815C0.711378 99.6815 0.477404 99.9154 0.477404 100.204H1.5226ZM0.477404 104.41C0.477404 104.699 0.711378 104.933 1 104.933C1.28862 104.933 1.5226 104.699 1.5226 104.41H0.477404ZM1.5226 108.616C1.5226 108.328 1.28862 108.094 1 108.094C0.711378 108.094 0.477404 108.328 0.477404 108.616H1.5226ZM0.477404 112.823C0.477404 113.111 0.711378 113.345 1 113.345C1.28862 113.345 1.5226 113.111 1.5226 112.823H0.477404ZM1.5226 117.029C1.5226 116.74 1.28862 116.506 1 116.506C0.711378 116.506 0.477404 116.74 0.477404 117.029H1.5226ZM0.477404 121.235C0.477404 121.524 0.711378 121.758 1 121.758C1.28862 121.758 1.5226 121.524 1.5226 121.235H0.477404ZM1.5226 125.441C1.5226 125.153 1.28862 124.919 1 124.919C0.711378 124.919 0.477404 125.153 0.477404 125.441H1.5226ZM0.477404 129.647C0.477404 129.936 0.711378 130.17 1 130.17C1.28862 130.17 1.5226 129.936 1.5226 129.647H0.477404ZM1.5226 133.854C1.5226 133.565 1.28862 133.331 1 133.331C0.711378 133.331 0.477404 133.565 0.477404 133.854H1.5226ZM0.477404 138.06C0.477404 138.348 0.711378 138.582 1 138.582C1.28862 138.582 1.5226 138.348 1.5226 138.06H0.477404ZM1.5226 142.266C1.5226 141.977 1.28862 141.743 1 141.743C0.711378 141.743 0.477404 141.977 0.477404 142.266H1.5226ZM0.477404 146.472C0.477404 146.761 0.711378 146.995 1 146.995C1.28862 146.995 1.5226 146.761 1.5226 146.472H0.477404ZM1.5226 150.678C1.5226 150.39 1.28862 150.156 1 150.156C0.711378 150.156 0.477404 150.39 0.477404 150.678H1.5226ZM0.477404 154.885C0.477404 155.173 0.711378 155.407 1 155.407C1.28862 155.407 1.5226 155.173 1.5226 154.885H0.477404ZM1.5226 159.091C1.5226 158.802 1.28862 158.568 1 158.568C0.711378 158.568 0.477404 158.802 0.477404 159.091H1.5226ZM0.477404 163.297C0.477404 163.586 0.711378 163.82 1 163.82C1.28862 163.82 1.5226 163.586 1.5226 163.297H0.477404ZM1.5226 167.503C1.5226 167.215 1.28862 166.981 1 166.981C0.711378 166.981 0.477404 167.215 0.477404 167.503H1.5226ZM0.477404 171.709C0.477404 171.998 0.711378 172.232 1 172.232C1.28862 172.232 1.5226 171.998 1.5226 171.709H0.477404ZM1.5226 175.916C1.5226 175.627 1.28862 175.393 1 175.393C0.711378 175.393 0.477404 175.627 0.477404 175.916H1.5226ZM0.477404 180.122C0.477404 180.41 0.711378 180.644 1 180.644C1.28862 180.644 1.5226 180.41 1.5226 180.122H0.477404ZM1.5226 184.328C1.5226 184.039 1.28862 183.805 1 183.805C0.711378 183.805 0.477404 184.039 0.477404 184.328H1.5226ZM0.477404 188.534C0.477404 188.823 0.711378 189.057 1 189.057C1.28862 189.057 1.5226 188.823 1.5226 188.534H0.477404ZM1.5226 192.74C1.5226 192.452 1.28862 192.218 1 192.218C0.711378 192.218 0.477404 192.452 0.477404 192.74H1.5226ZM0.477404 196.946C0.477404 197.235 0.711378 197.469 1 197.469C1.28862 197.469 1.5226 197.235 1.5226 196.946H0.477404ZM1.5226 201.153C1.5226 200.864 1.28862 200.63 1 200.63C0.711378 200.63 0.477404 200.864 0.477404 201.153H1.5226ZM0.477404 205.359C0.477404 205.647 0.711378 205.881 1 205.881C1.28862 205.881 1.5226 205.647 1.5226 205.359H0.477404ZM1.5226 209.565C1.5226 209.276 1.28862 209.042 1 209.042C0.711378 209.042 0.477404 209.276 0.477404 209.565H1.5226ZM0.477404 213.771C0.477404 214.06 0.711378 214.294 1 214.294C1.28862 214.294 1.5226 214.06 1.5226 213.771H0.477404ZM1.5226 217.977C1.5226 217.689 1.28862 217.455 1 217.455C0.711378 217.455 0.477404 217.689 0.477404 217.977H1.5226ZM0.477404 222.184C0.477404 222.472 0.711378 222.706 1 222.706C1.28862 222.706 1.5226 222.472 1.5226 222.184H0.477404ZM1.5226 226.39C1.5226 226.101 1.28862 225.867 1 225.867C0.711378 225.867 0.477404 226.101 0.477404 226.39H1.5226ZM0.477404 230.596C0.477404 230.885 0.711378 231.119 1 231.119C1.28862 231.119 1.5226 230.885 1.5226 230.596H0.477404ZM1.5226 234.802C1.5226 234.514 1.28862 234.28 1 234.28C0.711378 234.28 0.477404 234.514 0.477404 234.802H1.5226ZM0.477404 239.008C0.477404 239.297 0.711378 239.531 1 239.531C1.28862 239.531 1.5226 239.297 1.5226 239.008H0.477404ZM1.5226 243.215C1.5226 242.926 1.28862 242.692 1 242.692C0.711378 242.692 0.477404 242.926 0.477404 243.215H1.5226ZM0.477404 247.421C0.477404 247.709 0.711378 247.943 1 247.943C1.28862 247.943 1.5226 247.709 1.5226 247.421H0.477404ZM1.5226 251.627C1.5226 251.338 1.28862 251.104 1 251.104C0.711378 251.104 0.477404 251.338 0.477404 251.627H1.5226ZM0.477404 255.833C0.477404 256.122 0.711378 256.356 1 256.356C1.28862 256.356 1.5226 256.122 1.5226 255.833H0.477404ZM1.5226 260.039C1.5226 259.751 1.28862 259.517 1 259.517C0.711378 259.517 0.477404 259.751 0.477404 260.039H1.5226ZM0.477404 264.246C0.477404 264.534 0.711378 264.768 1 264.768C1.28862 264.768 1.5226 264.534 1.5226 264.246H0.477404ZM1.5226 268.452C1.5226 268.163 1.28862 267.929 1 267.929C0.711378 267.929 0.477404 268.163 0.477404 268.452H1.5226ZM0.477404 272.658C0.477404 272.947 0.711378 273.181 1 273.181C1.28862 273.181 1.5226 272.947 1.5226 272.658H0.477404ZM1.5226 276.864C1.5226 276.575 1.28862 276.342 1 276.342C0.711378 276.342 0.477404 276.575 0.477404 276.864H1.5226ZM0.477404 281.07C0.477404 281.359 0.711378 281.593 1 281.593C1.28862 281.593 1.5226 281.359 1.5226 281.07H0.477404ZM1.5226 285.276C1.5226 284.988 1.28862 284.754 1 284.754C0.711378 284.754 0.477404 284.988 0.477404 285.276H1.5226ZM0.477404 289.483C0.477404 289.771 0.711378 290.005 1 290.005C1.28862 290.005 1.5226 289.771 1.5226 289.483H0.477404ZM1.5226 293.689C1.5226 293.4 1.28862 293.166 1 293.166C0.711378 293.166 0.477404 293.4 0.477404 293.689H1.5226ZM0.477404 297.895C0.477404 298.184 0.711378 298.418 1 298.418C1.28862 298.418 1.5226 298.184 1.5226 297.895H0.477404ZM1.5226 302.101C1.5226 301.813 1.28862 301.579 1 301.579C0.711378 301.579 0.477404 301.813 0.477404 302.101H1.5226ZM0.477404 306.307C0.477404 306.596 0.711378 306.83 1 306.83C1.28862 306.83 1.5226 306.596 1.5226 306.307H0.477404ZM1.5226 310.514C1.5226 310.225 1.28862 309.991 1 309.991C0.711378 309.991 0.477404 310.225 0.477404 310.514H1.5226ZM3.07534 313.139C3.36396 313.139 3.59793 312.905 3.59793 312.617C3.59793 312.328 3.36396 312.094 3.07534 312.094V313.139ZM7.22601 312.094C6.93739 312.094 6.70342 312.328 6.70342 312.617C6.70342 312.905 6.93739 313.139 7.22601 313.139V312.094ZM11.3767 313.139C11.6653 313.139 11.8993 312.905 11.8993 312.617C11.8993 312.328 11.6653 312.094 11.3767 312.094V313.139ZM15.5274 312.094C15.2387 312.094 15.0048 312.328 15.0048 312.617C15.0048 312.905 15.2387 313.139 15.5274 313.139V312.094ZM19.678 313.139C19.9667 313.139 20.2006 312.905 20.2006 312.617C20.2006 312.328 19.9667 312.094 19.678 312.094V313.139ZM23.8287 312.094C23.5401 312.094 23.3061 312.328 23.3061 312.617C23.3061 312.905 23.5401 313.139 23.8287 313.139V312.094ZM27.9794 313.139C28.268 313.139 28.502 312.905 28.502 312.617C28.502 312.328 28.268 312.094 27.9794 312.094V313.139ZM32.1301 312.094C31.8415 312.094 31.6075 312.328 31.6075 312.617C31.6075 312.905 31.8415 313.139 32.1301 313.139V312.094ZM27.6375 50.6524L23.5374 50.7536L23.5632 51.7985L27.6633 51.6972L27.6375 50.6524ZM19.4374 50.8548L15.3373 50.9561L15.3631 52.0009L19.4632 51.8997L19.4374 50.8548ZM11.2372 51.0573L7.13719 51.1585L7.16299 52.2034L11.263 52.1022L11.2372 51.0573ZM3.03713 51.2598L0.9871 51.3104L1.0129 52.3553L3.06293 52.3047L3.03713 51.2598ZM0.477404 51.8328V53.9359H1.5226V51.8328H0.477404ZM0.477404 58.1421V62.3483H1.5226V58.1421H0.477404ZM0.477404 66.5545V70.7607H1.5226V66.5545H0.477404ZM0.477404 74.9669V79.1731H1.5226V74.9669H0.477404ZM0.477404 83.3793V87.5855H1.5226V83.3793H0.477404ZM0.477404 91.7917V95.9979H1.5226V91.7917H0.477404ZM0.477404 100.204V104.41H1.5226V100.204H0.477404ZM0.477404 108.616V112.823H1.5226V108.616H0.477404ZM0.477404 117.029V121.235H1.5226V117.029H0.477404ZM0.477404 125.441V129.647H1.5226V125.441H0.477404ZM0.477404 133.854V138.06H1.5226V133.854H0.477404ZM0.477404 142.266V146.472H1.5226V142.266H0.477404ZM0.477404 150.678V154.885H1.5226V150.678H0.477404ZM0.477404 159.091V163.297H1.5226V159.091H0.477404ZM0.477404 167.503V171.709H1.5226V167.503H0.477404ZM0.477404 175.916V180.122H1.5226V175.916H0.477404ZM0.477404 184.328V188.534H1.5226V184.328H0.477404ZM0.477404 192.74V196.946H1.5226V192.74H0.477404ZM0.477404 201.153V205.359H1.5226V201.153H0.477404ZM0.477404 209.565V213.771H1.5226V209.565H0.477404ZM0.477404 217.977V222.184H1.5226V217.977H0.477404ZM0.477404 226.39V230.596H1.5226V226.39H0.477404ZM0.477404 234.802V239.008H1.5226V234.802H0.477404ZM0.477404 243.215V247.421H1.5226V243.215H0.477404ZM0.477404 251.627V255.833H1.5226V251.627H0.477404ZM0.477404 260.039V264.246H1.5226V260.039H0.477404ZM0.477404 268.452V272.658H1.5226V268.452H0.477404ZM0.477404 276.864V281.07H1.5226V276.864H0.477404ZM0.477404 285.276V289.483H1.5226V285.276H0.477404ZM0.477404 293.689V297.895H1.5226V293.689H0.477404ZM0.477404 302.101V306.307H1.5226V302.101H0.477404ZM0.477404 310.514V312.617H1.5226V310.514H0.477404ZM1 313.139H3.07534V312.094H1V313.139ZM7.22601 313.139H11.3767V312.094H7.22601V313.139ZM15.5274 313.139H19.678V312.094H15.5274V313.139ZM23.8287 313.139H27.9794V312.094H23.8287V313.139ZM32.1301 313.139H34.2054V312.094H32.1301V313.139Z" fill="#489EF1"/>
<path fill-rule="evenodd" clip-rule="evenodd" d="M123.691 52.9877C123.814 54.591 124.314 56.1469 125.157 57.5257L133.853 52.2126L125.211 46.8112C124.302 48.2659 123.776 49.9242 123.679 51.6314H98.4365C98.0687 51.6314 97.7699 51.9302 97.7699 52.298C97.7699 52.6888 98.0687 52.9877 98.4365 52.9877H123.691Z" fill="#0F89FF"/>
<path d="M20.4379 38.7351C20.4379 38.6891 20.4455 38.6355 20.4608 38.5742L20.4838 38.5052C26.7596 15.7929 47.472 0 70.8739 0C75.5635 0 80.2531 0.643667 84.8278 1.90802C93.6552 4.34477 101.724 9.05734 108.115 15.563C108.391 15.8159 108.368 16.2526 108.115 16.5285C107.839 16.7814 107.425 16.7814 107.149 16.5055C100.92 10.1838 93.0805 5.58613 84.46 3.21835C80.0232 1.97698 75.4486 1.3563 70.8739 1.3563C48.0696 1.3563 27.886 16.7354 21.8171 38.7581C21.7252 39.1259 21.3344 39.4247 20.9666 39.3098C20.6677 39.2408 20.4379 39.011 20.4379 38.7351ZM33.5871 88.6425C33.5871 88.4586 33.6331 88.2976 33.771 88.1597C34.0469 87.8839 34.4836 87.9068 34.7365 88.1597C40.9663 94.4585 48.7823 99.0331 57.3799 101.401C61.8166 102.619 66.3683 103.24 70.9429 103.24C93.7472 103.24 113.931 87.8609 120 65.8612C120.115 65.4934 120.482 65.2405 120.85 65.3324C121.218 65.4244 121.448 65.7692 121.333 66.114L120.689 65.9531L121.31 66.206C115.08 88.8264 94.3679 104.596 70.9429 104.596C66.2533 104.596 61.5637 103.976 57.0121 102.711C48.2076 100.274 40.1617 95.5849 33.771 89.1252C33.6331 88.9873 33.5871 88.8034 33.5871 88.6425Z" fill="#B4DAFF"/>
<path d="M28.0468 62.8729C28.0468 62.5511 28.2537 62.2753 28.5525 62.2063C28.9203 62.1143 29.2881 62.3442 29.3801 62.689C31.1731 69.9533 34.8972 76.6429 40.1156 82.0451C48.2534 90.4818 59.1958 95.1254 70.9197 95.1254C82.069 95.1254 92.6206 90.8496 100.643 83.1025C100.919 82.8497 101.379 82.8037 101.655 83.0796C101.908 83.3554 101.954 83.7232 101.678 83.9991L101.586 84.0681C93.3102 92.0679 82.4138 96.4587 70.9197 96.4587C58.8279 96.4587 47.5407 91.6771 39.1501 82.9876C33.7478 77.4015 29.9318 70.505 28.0698 63.0339C28.0544 62.9726 28.0468 62.9189 28.0468 62.8729ZM40.0006 21.0344C40.0006 20.8735 40.0696 20.7126 40.1845 20.5747C40.2075 20.5747 40.2535 20.5287 40.2535 20.5287C48.5063 12.5518 59.4027 8.13806 70.9197 8.13806C83.0115 8.13806 94.2987 12.9426 102.689 21.6321C108.046 27.1953 111.885 34.0687 113.747 41.5169C113.839 41.8847 113.609 42.2525 113.264 42.3445C112.896 42.4364 112.528 42.2296 112.436 41.8617C110.62 34.6434 106.919 27.9769 101.724 22.5746C93.5631 14.138 82.6437 9.49436 70.9197 9.49436C59.7705 9.49436 49.1959 13.7702 41.173 21.5172C40.9202 21.7701 40.4604 21.793 40.2075 21.5172C40.0696 21.3793 40.0006 21.1954 40.0006 21.0344Z" fill="#B4DAFF"/>
<path d="M70.9198 87.8384C51.2879 87.8384 35.38 71.9305 35.38 52.2986C35.38 32.6897 51.2879 16.7819 70.9198 16.7819C90.5287 16.7819 106.437 32.6897 106.437 52.2986C106.437 71.9305 90.5287 87.8384 70.9198 87.8384Z" fill="#B4DAFF"/>
<path fill-rule="evenodd" clip-rule="evenodd" d="M34.2536 52.2982C34.2536 32.0916 50.7132 15.655 70.9198 15.655C91.1264 15.655 107.563 32.0916 107.563 52.2982C107.563 72.5278 91.1264 88.9644 70.9198 88.9644C50.7132 88.9644 34.2536 72.5278 34.2536 52.2982ZM105.31 52.2982C105.31 33.3329 89.8851 17.9079 70.9198 17.9079C51.9545 17.9079 36.5065 33.3329 36.5065 52.2982C36.5065 71.2635 51.9545 86.7115 70.9198 86.7115C89.8851 86.7115 105.31 71.2635 105.31 52.2982Z" fill="white"/>
<path d="M50.7106 51.24V43.192H53.4814C53.9144 43.192 54.3053 43.2993 54.6541 43.5139C55.0067 43.7285 55.2864 44.0179 55.4934 44.382C55.7042 44.746 55.8095 45.1484 55.8095 45.5892C55.8095 46.0375 55.7022 46.4438 55.4876 46.8079C55.2768 47.1681 54.9952 47.4555 54.6426 47.6701C54.29 47.8848 53.9029 47.9921 53.4814 47.9921H51.9063V51.24H50.7106ZM51.9063 46.7964H53.3607C53.5906 46.7964 53.7995 46.7389 53.9873 46.6239C54.1789 46.5089 54.3302 46.3556 54.4414 46.164C54.5564 45.9724 54.6138 45.7559 54.6138 45.5144C54.6138 45.273 54.5564 45.0565 54.4414 44.8648C54.3302 44.6694 54.1789 44.5161 53.9873 44.405C53.7995 44.29 53.5906 44.2325 53.3607 44.2325H51.9063V46.7964ZM59.8465 46.6929C59.7469 46.6316 59.6376 46.5837 59.5188 46.5492C59.4039 46.5108 59.2774 46.4917 59.1394 46.4917C58.8405 46.4917 58.5799 46.5702 58.3576 46.7274C58.1353 46.8845 57.961 47.0972 57.8345 47.3655C57.7119 47.6337 57.6506 47.9307 57.6506 48.2565V51.24H56.4491V45.4914H57.6448V46.2675C57.8441 45.9801 58.0855 45.754 58.3691 45.5892C58.6565 45.4205 58.9766 45.3362 59.3291 45.3362C59.4594 45.3362 59.5821 45.342 59.697 45.3535C59.8158 45.365 59.9289 45.388 60.0362 45.4225L59.8465 46.6929ZM62.7409 51.3895C62.2121 51.3895 61.7292 51.2534 61.2923 50.9813C60.8592 50.7092 60.5124 50.3451 60.2518 49.8891C59.995 49.4292 59.8667 48.9214 59.8667 48.3657C59.8667 47.9442 59.9414 47.5513 60.0908 47.1873C60.2403 46.8194 60.4453 46.4974 60.7059 46.2215C60.9704 45.9417 61.277 45.7233 61.6257 45.5662C61.9745 45.409 62.3462 45.3305 62.7409 45.3305C63.2698 45.3305 63.7508 45.4665 64.1838 45.7386C64.6207 46.0107 64.9675 46.3767 65.2243 46.8366C65.4849 47.2965 65.6152 47.8062 65.6152 48.3657C65.6152 48.7834 65.5405 49.1743 65.391 49.5384C65.2416 49.9025 65.0346 50.2244 64.7702 50.5042C64.5096 50.7801 64.2049 50.9966 63.8561 51.1538C63.5112 51.3109 63.1395 51.3895 62.7409 51.3895ZM62.7409 50.1938C63.059 50.1938 63.3445 50.1094 63.5975 49.9408C63.8504 49.7722 64.0497 49.5499 64.1953 49.274C64.3448 48.9942 64.4195 48.6915 64.4195 48.3657C64.4195 48.0323 64.3429 47.7257 64.1896 47.4459C64.0401 47.1662 63.8389 46.9439 63.586 46.7791C63.333 46.6105 63.0514 46.5262 62.7409 46.5262C62.4267 46.5262 62.1412 46.6105 61.8844 46.7791C61.6315 46.9477 61.4303 47.1719 61.2808 47.4517C61.1352 47.7315 61.0624 48.0361 61.0624 48.3657C61.0624 48.7068 61.139 49.0153 61.2923 49.2912C61.4456 49.5672 61.6487 49.7875 61.9016 49.9523C62.1584 50.1133 62.4382 50.1938 62.7409 50.1938ZM70.7089 42.6172H71.9046V51.24H70.7089V50.395C70.5211 50.6939 70.2758 50.9353 69.9731 51.1193C69.6703 51.2994 69.3158 51.3895 68.9096 51.3895C68.4919 51.3895 68.101 51.3109 67.7369 51.1538C67.3728 50.9966 67.0509 50.7801 66.7711 50.5042C66.4952 50.2244 66.2787 49.9025 66.1216 49.5384C65.9644 49.1743 65.8859 48.7834 65.8859 48.3657C65.8859 47.948 65.9644 47.5571 66.1216 47.193C66.2787 46.8251 66.4952 46.5032 66.7711 46.2273C67.0509 45.9475 67.3728 45.729 67.7369 45.5719C68.101 45.4148 68.4919 45.3362 68.9096 45.3362C69.3158 45.3362 69.6703 45.4282 69.9731 45.6122C70.2758 45.7923 70.5211 46.0299 70.7089 46.325V42.6172ZM68.9211 50.234C69.2584 50.234 69.5534 50.1516 69.8064 49.9868C70.0593 49.8182 70.2548 49.5921 70.3927 49.3085C70.5345 49.0249 70.6054 48.7106 70.6054 48.3657C70.6054 48.017 70.5345 47.7008 70.3927 47.4172C70.2509 47.1336 70.0536 46.9094 69.8006 46.7446C69.5515 46.576 69.2584 46.4917 68.9211 46.4917C68.5877 46.4917 68.283 46.576 68.0071 46.7446C67.735 46.9132 67.5165 47.1394 67.3518 47.423C67.1908 47.7065 67.1103 48.0208 67.1103 48.3657C67.1103 48.7145 67.1927 49.0306 67.3575 49.3142C67.5261 49.594 67.7465 49.8182 68.0186 49.9868C68.2945 50.1516 68.5954 50.234 68.9211 50.234ZM72.9798 48.4922V45.4914H74.1755V48.4692C74.1755 48.7949 74.2426 49.0919 74.3767 49.3602C74.5147 49.6246 74.7005 49.8373 74.9343 49.9983C75.1719 50.1554 75.4421 50.234 75.7449 50.234C76.0399 50.234 76.2986 50.1554 76.5209 49.9983C76.747 49.8373 76.9214 49.6246 77.044 49.3602C77.1705 49.0919 77.2337 48.7949 77.2337 48.4692V45.4914H78.4294V51.24H77.2337V50.4582C77.0344 50.7456 76.793 50.9736 76.5094 51.1423C76.2258 51.3109 75.9058 51.3952 75.5494 51.3952C75.0359 51.3952 74.5856 51.2649 74.1985 51.0043C73.8153 50.7399 73.5182 50.3873 73.3075 49.9466C73.0967 49.5058 72.9875 49.021 72.9798 48.4922ZM83.1795 49.6074L84.2487 50.188C83.9881 50.5521 83.6566 50.8433 83.2542 51.0618C82.8556 51.2802 82.4226 51.3895 81.955 51.3895C81.4262 51.3895 80.9433 51.2534 80.5064 50.9813C80.0733 50.7092 79.7265 50.3451 79.4659 49.8891C79.2091 49.4292 79.0808 48.9214 79.0808 48.3657C79.0808 47.9442 79.1555 47.5513 79.3049 47.1873C79.4544 46.8194 79.6594 46.4974 79.92 46.2215C80.1845 45.9417 80.4911 45.7233 80.8398 45.5662C81.1886 45.409 81.5603 45.3305 81.955 45.3305C82.4226 45.3305 82.8556 45.4397 83.2542 45.6581C83.6566 45.8766 83.9881 46.1698 84.2487 46.5377L83.1795 47.1183C83.0185 46.9267 82.8307 46.781 82.6161 46.6814C82.4015 46.5779 82.1811 46.5262 81.955 46.5262C81.6408 46.5262 81.3553 46.6124 81.0985 46.7849C80.8456 46.9535 80.6444 47.1777 80.4949 47.4574C80.3493 47.7334 80.2765 48.0361 80.2765 48.3657C80.2765 48.6915 80.3512 48.9942 80.5006 49.274C80.6501 49.5499 80.8513 49.7722 81.1042 49.9408C81.361 50.1094 81.6446 50.1938 81.955 50.1938C82.1926 50.1938 82.4187 50.1401 82.6334 50.0328C82.848 49.9255 83.03 49.7837 83.1795 49.6074ZM88.0198 46.6871H86.8126L86.8068 51.24H85.6111L85.6169 46.6871H84.7029V45.4914H85.6169L85.6111 43.6864H86.8068L86.8126 45.4914H88.0198V46.6871ZM44.1181 66.24V58.192H46.7797C47.3354 58.192 47.8566 58.2974 48.3433 58.5082C48.83 58.7151 49.2574 59.0045 49.6253 59.3762C49.9932 59.7441 50.2806 60.1714 50.4875 60.6581C50.6983 61.141 50.8037 61.6603 50.8037 62.216C50.8037 62.7717 50.6983 63.2929 50.4875 63.7796C50.2806 64.2625 49.9932 64.6898 49.6253 65.0615C49.2574 65.4294 48.83 65.7188 48.3433 65.9296C47.8566 66.1365 47.3354 66.24 46.7797 66.24H44.1181ZM45.3138 65.0443H46.7797C47.1706 65.0443 47.5347 64.9715 47.872 64.8258C48.213 64.6802 48.5139 64.4771 48.7745 64.2165C49.0389 63.9559 49.2439 63.6551 49.3896 63.314C49.5352 62.9729 49.608 62.6069 49.608 62.216C49.608 61.8251 49.5352 61.4591 49.3896 61.118C49.2439 60.7769 49.0389 60.4761 48.7745 60.2155C48.5139 59.9549 48.213 59.7518 47.872 59.6062C47.5347 59.4605 47.1706 59.3877 46.7797 59.3877H45.3138V65.0443ZM53.9242 66.3895C53.3954 66.3895 52.9125 66.2534 52.4756 65.9813C52.0425 65.7092 51.6957 65.3451 51.4351 64.8891C51.1783 64.4292 51.0499 63.9214 51.0499 63.3657C51.0499 62.9442 51.1247 62.5513 51.2741 62.1873C51.4236 61.8194 51.6286 61.4974 51.8892 61.2215C52.1537 60.9417 52.4603 60.7233 52.809 60.5662C53.1578 60.409 53.5295 60.3305 53.9242 60.3305C54.3649 60.3305 54.7693 60.4225 55.1372 60.6064C55.5051 60.7865 55.8193 61.0375 56.0799 61.3595C56.3405 61.6776 56.5322 62.0455 56.6548 62.4632C56.7774 62.8771 56.8138 63.3178 56.764 63.7854H52.3319C52.3817 64.0498 52.4775 64.2893 52.6193 64.5039C52.7649 64.7147 52.9489 64.8814 53.1712 65.0041C53.3973 65.1267 53.6483 65.1899 53.9242 65.1938C54.2155 65.1938 54.4799 65.1209 54.7175 64.9753C54.959 64.8297 55.1563 64.6285 55.3096 64.3717L56.5226 64.6534C56.2926 65.1631 55.9458 65.5808 55.4821 65.9066C55.0184 66.2285 54.4991 66.3895 53.9242 66.3895ZM52.2916 62.8713H55.5568C55.5185 62.5954 55.4208 62.3463 55.2636 62.124C55.1103 61.8979 54.9168 61.7197 54.683 61.5894C54.4531 61.4553 54.2002 61.3882 53.9242 61.3882C53.6521 61.3882 53.3992 61.4534 53.1654 61.5837C52.9355 61.714 52.7439 61.8922 52.5906 62.1183C52.4411 62.3406 52.3415 62.5916 52.2916 62.8713ZM59.0037 59.1865V60.4914H60.6248V61.6871H59.0037V66.24H57.808V61.6871H57.124V60.4914H57.808V59.1865C57.808 58.8723 57.8847 58.5868 58.038 58.33C58.1913 58.0694 58.3963 57.8624 58.6531 57.7091C58.9137 57.5558 59.203 57.4792 59.5211 57.4792C59.751 57.4792 59.9752 57.5252 60.1937 57.6172C60.4121 57.7091 60.6076 57.8509 60.78 58.0426L59.9235 58.8876C59.8813 58.8186 59.8219 58.7669 59.7453 58.7324C59.6725 58.6941 59.5978 58.6749 59.5211 58.6749C59.3793 58.6749 59.2567 58.7247 59.1532 58.8244C59.0536 58.924 59.0037 59.0447 59.0037 59.1865ZM61.2102 60.4914H62.4059V66.24H61.2102V60.4914ZM61.8138 59.5429C61.6337 59.5429 61.4823 59.4835 61.3597 59.3647C61.2371 59.2459 61.1757 59.0965 61.1757 58.9163C61.1757 58.74 61.2371 58.5925 61.3597 58.4737C61.4823 58.3511 61.6337 58.2897 61.8138 58.2897C61.9901 58.2897 62.1396 58.3511 62.2622 58.4737C62.3848 58.5925 62.4462 58.74 62.4462 58.9163C62.4462 59.0965 62.3848 59.2459 62.2622 59.3647C62.1396 59.4835 61.9901 59.5429 61.8138 59.5429ZM69.207 63.2277V66.24H68.0113V63.2507C68.0113 62.925 67.9424 62.6299 67.8044 62.3655C67.6703 62.0972 67.4844 61.8845 67.2468 61.7274C67.013 61.5664 66.7467 61.4859 66.4477 61.4859C66.1488 61.4859 65.8863 61.5664 65.6602 61.7274C65.4379 61.8845 65.2635 62.0972 65.1371 62.3655C65.0144 62.6299 64.9531 62.925 64.9531 63.2507V66.24H63.7574V60.4914H64.9531V61.2675C65.1524 60.9762 65.3938 60.7482 65.6774 60.5834C65.961 60.4148 66.281 60.3305 66.6374 60.3305C67.1548 60.3305 67.6032 60.4627 67.9826 60.7271C68.3658 60.9916 68.6648 61.3422 68.8794 61.7791C69.094 62.216 69.2032 62.6989 69.207 63.2277ZM74.517 60.4914H75.7127V66.24H74.5113L74.4653 65.4065C74.2967 65.7015 74.0686 65.9391 73.7812 66.1193C73.4976 66.2994 73.1604 66.3895 72.7695 66.3895C72.3441 66.3895 71.9455 66.3109 71.5738 66.1538C71.2059 65.9928 70.8801 65.7705 70.5965 65.4869C70.3167 65.2033 70.0964 64.8776 69.9354 64.5097C69.7783 64.1379 69.6997 63.7394 69.6997 63.314C69.6997 62.9039 69.7764 62.5188 69.9297 62.1585C70.083 61.7944 70.2957 61.4764 70.5678 61.2043C70.8399 60.9322 71.1541 60.7195 71.5105 60.5662C71.8708 60.409 72.2559 60.3305 72.666 60.3305C73.0837 60.3305 73.4516 60.4263 73.7697 60.6179C74.0916 60.8057 74.3561 61.0471 74.563 61.3422L74.517 60.4914ZM72.7982 65.234C73.1431 65.234 73.4401 65.1478 73.6892 64.9753C73.9422 64.8029 74.1319 64.571 74.2583 64.2797C74.3886 63.9885 74.4442 63.6666 74.425 63.314C74.4021 62.9767 74.312 62.6701 74.1549 62.3942C74.0016 62.1183 73.7965 61.8998 73.5398 61.7389C73.283 61.5741 72.9917 61.4917 72.666 61.4917C72.3249 61.4917 72.0164 61.5779 71.7405 61.7504C71.4684 61.9228 71.2576 62.1547 71.1081 62.4459C70.9587 62.7372 70.8935 63.061 70.9127 63.4175C70.9357 63.7509 71.0353 64.0555 71.2116 64.3315C71.3917 64.6074 71.6198 64.8278 71.8957 64.9926C72.1754 65.1535 72.4763 65.234 72.7982 65.234ZM79.8218 61.6871H78.6146L78.6089 66.24H77.4132L77.4189 61.6871H76.5049V60.4914H77.4189L77.4132 58.6864H78.6089L78.6146 60.4914H79.8218V61.6871ZM80.302 60.4914H81.4977V66.24H80.302V60.4914ZM80.9056 59.5429C80.7255 59.5429 80.5741 59.4835 80.4515 59.3647C80.3289 59.2459 80.2675 59.0965 80.2675 58.9163C80.2675 58.74 80.3289 58.5925 80.4515 58.4737C80.5741 58.3511 80.7255 58.2897 80.9056 58.2897C81.0819 58.2897 81.2314 58.3511 81.354 58.4737C81.4766 58.5925 81.538 58.74 81.538 58.9163C81.538 59.0965 81.4766 59.2459 81.354 59.3647C81.2314 59.4835 81.0819 59.5429 80.9056 59.5429ZM85.5384 66.3895C85.0096 66.3895 84.5267 66.2534 84.0898 65.9813C83.6568 65.7092 83.3099 65.3451 83.0493 64.8891C82.7926 64.4292 82.6642 63.9214 82.6642 63.3657C82.6642 62.9442 82.7389 62.5513 82.8884 62.1873C83.0378 61.8194 83.2429 61.4974 83.5035 61.2215C83.7679 60.9417 84.0745 60.7233 84.4232 60.5662C84.772 60.409 85.1437 60.3305 85.5384 60.3305C86.0673 60.3305 86.5483 60.4665 86.9813 60.7386C87.4182 61.0107 87.7651 61.3767 88.0218 61.8366C88.2824 62.2965 88.4127 62.8062 88.4127 63.3657C88.4127 63.7834 88.338 64.1743 88.1885 64.5384C88.0391 64.9025 87.8321 65.2244 87.5677 65.5042C87.3071 65.7801 87.0024 65.9966 86.6537 66.1538C86.3088 66.3109 85.937 66.3895 85.5384 66.3895ZM85.5384 65.1938C85.8565 65.1938 86.142 65.1094 86.395 64.9408C86.6479 64.7722 86.8472 64.5499 86.9928 64.274C87.1423 63.9942 87.217 63.6915 87.217 63.3657C87.217 63.0323 87.1404 62.7257 86.9871 62.4459C86.8376 62.1662 86.6364 61.9439 86.3835 61.7791C86.1306 61.6105 85.8489 61.5262 85.5384 61.5262C85.2242 61.5262 84.9387 61.6105 84.6819 61.7791C84.429 61.9477 84.2278 62.1719 84.0783 62.4517C83.9327 62.7315 83.8599 63.0361 83.8599 63.3657C83.8599 63.7068 83.9365 64.0153 84.0898 64.2912C84.2431 64.5672 84.4462 64.7875 84.6992 64.9523C84.9559 65.1133 85.2357 65.1938 85.5384 65.1938ZM94.3742 63.2277V66.24H93.1785V63.2507C93.1785 62.925 93.1095 62.6299 92.9715 62.3655C92.8374 62.0972 92.6515 61.8845 92.4139 61.7274C92.1802 61.5664 91.9138 61.4859 91.6149 61.4859C91.316 61.4859 91.0534 61.5664 90.8273 61.7274C90.6051 61.8845 90.4307 62.0972 90.3042 62.3655C90.1816 62.6299 90.1203 62.925 90.1203 63.2507V66.24H88.9246V60.4914H90.1203V61.2675C90.3195 60.9762 90.561 60.7482 90.8446 60.5834C91.1282 60.4148 91.4482 60.3305 91.8046 60.3305C92.322 60.3305 92.7703 60.4627 93.1498 60.7271C93.533 60.9916 93.8319 61.3422 94.0465 61.7791C94.2611 62.216 94.3704 62.6989 94.3742 63.2277Z" fill="#1A1A1A"/>
<path d="M139.079 38.7891C139.079 38.7431 139.087 38.6894 139.102 38.6281L139.125 38.5592C145.401 15.8468 166.113 0.0539551 189.515 0.0539551C194.205 0.0539551 198.894 0.697622 203.469 1.96197C212.296 4.39872 220.365 9.1113 226.756 15.617C227.032 15.8698 227.009 16.3066 226.756 16.5825C226.48 16.8353 226.066 16.8353 225.79 16.5595C219.561 10.2377 211.722 5.64009 203.101 3.2723C198.664 2.03094 194.09 1.41026 189.515 1.41026C166.711 1.41026 146.527 16.7894 140.458 38.812C140.366 39.1799 139.976 39.4787 139.608 39.3638C139.309 39.2948 139.079 39.0649 139.079 38.7891ZM152.228 88.6964C152.228 88.5125 152.274 88.3516 152.412 88.2137C152.688 87.9378 153.125 87.9608 153.378 88.2137C159.607 94.5124 167.423 99.0871 176.021 101.455C180.458 102.673 185.009 103.294 189.584 103.294C212.388 103.294 232.572 87.9148 238.641 65.9151C238.756 65.5473 239.124 65.2944 239.491 65.3864C239.859 65.4783 240.089 65.8232 239.974 66.168L239.33 66.0071L239.951 66.2599C233.721 88.8803 213.009 104.65 189.584 104.65C184.894 104.65 180.205 104.03 175.653 102.765C166.849 100.328 158.803 95.6388 152.412 89.1792C152.274 89.0412 152.228 88.8573 152.228 88.6964Z" fill="#B4DAFF"/>
<path d="M146.688 62.9269C146.688 62.6051 146.895 62.3292 147.194 62.2602C147.561 62.1683 147.929 62.3982 148.021 62.743C149.814 70.0073 153.538 76.6968 158.757 82.0991C166.894 90.5357 177.837 95.1793 189.561 95.1793C200.71 95.1793 211.262 90.9035 219.285 83.1565C219.56 82.9036 220.02 82.8577 220.296 83.1335C220.549 83.4094 220.595 83.7772 220.319 84.053L220.227 84.122C211.951 92.1219 201.055 96.5126 189.561 96.5126C177.469 96.5126 166.182 91.7311 157.791 83.0416C152.389 77.4554 148.573 70.559 146.711 63.0878C146.696 63.0265 146.688 62.9729 146.688 62.9269ZM158.642 21.0884C158.642 20.9275 158.711 20.7666 158.826 20.6286C158.849 20.6286 158.895 20.5827 158.895 20.5827C167.147 12.6057 178.044 8.19202 189.561 8.19202C201.653 8.19202 212.94 12.9966 221.331 21.6861C226.687 27.2492 230.526 34.1227 232.388 41.5709C232.48 41.9387 232.25 42.3065 231.905 42.3984C231.537 42.4904 231.169 42.2835 231.078 41.9157C229.261 34.6974 225.56 28.0308 220.365 22.6286C212.204 14.1919 201.285 9.54832 189.561 9.54832C178.412 9.54832 167.837 13.8241 159.814 21.5711C159.561 21.824 159.102 21.847 158.849 21.5711C158.711 21.4332 158.642 21.2493 158.642 21.0884Z" fill="#B4DAFF"/>
<path d="M189.561 87.8923C169.929 87.8923 154.021 71.9845 154.021 52.3526C154.021 32.7436 169.929 16.8358 189.561 16.8358C209.17 16.8358 225.078 32.7436 225.078 52.3526C225.078 71.9845 209.17 87.8923 189.561 87.8923Z" fill="#B4DAFF"/>
<path d="M167.722 55.9431V47.8951H170.682C171.115 47.8951 171.506 48.0024 171.855 48.2171C172.207 48.4317 172.485 48.721 172.688 49.0851C172.895 49.4453 172.999 49.8477 172.999 50.2923C172.999 50.6679 172.928 51.0109 172.786 51.3213C172.644 51.6317 172.449 51.8961 172.2 52.1146C171.951 52.333 171.663 52.4902 171.337 52.586L173.28 55.9431H171.901L170.015 52.6952H168.911V55.9431H167.722ZM168.911 51.4995H170.556C170.782 51.4995 170.989 51.442 171.176 51.327C171.368 51.2121 171.519 51.0588 171.631 50.8671C171.746 50.6755 171.803 50.459 171.803 50.2176C171.803 49.9761 171.746 49.7596 171.631 49.568C171.519 49.3725 171.368 49.2192 171.176 49.1081C170.989 48.9931 170.782 48.9356 170.556 48.9356H168.911V51.4995ZM176.437 56.0926C175.908 56.0926 175.425 55.9565 174.988 55.6844C174.555 55.4123 174.208 55.0483 173.948 54.5922C173.691 54.1323 173.563 53.6245 173.563 53.0688C173.563 52.6473 173.637 52.2545 173.787 51.8904C173.936 51.5225 174.141 51.2006 174.402 50.9246C174.666 50.6449 174.973 50.4264 175.322 50.2693C175.67 50.1122 176.042 50.0336 176.437 50.0336C176.878 50.0336 177.282 50.1256 177.65 50.3095C178.018 50.4897 178.332 50.7407 178.593 51.0626C178.853 51.3807 179.045 51.7486 179.167 52.1663C179.29 52.5802 179.327 53.0209 179.277 53.4885H174.845C174.894 53.7529 174.99 53.9924 175.132 54.2071C175.278 54.4178 175.462 54.5845 175.684 54.7072C175.91 54.8298 176.161 54.893 176.437 54.8969C176.728 54.8969 176.993 54.8241 177.23 54.6784C177.472 54.5328 177.669 54.3316 177.822 54.0748L179.035 54.3565C178.805 54.8662 178.458 55.2839 177.995 55.6097C177.531 55.9316 177.012 56.0926 176.437 56.0926ZM174.804 52.5745H178.069C178.031 52.2985 177.933 52.0494 177.776 51.8272C177.623 51.601 177.429 51.4228 177.196 51.2925C176.966 51.1584 176.713 51.0913 176.437 51.0913C176.165 51.0913 175.912 51.1565 175.678 51.2868C175.448 51.4171 175.257 51.5953 175.103 51.8214C174.954 52.0437 174.854 52.2947 174.804 52.5745ZM181.821 56.0523C181.518 56.0332 181.223 55.9719 180.936 55.8684C180.648 55.7649 180.395 55.625 180.177 55.4487C179.962 55.2686 179.801 55.0578 179.694 54.8164L180.712 54.3795C180.761 54.483 180.848 54.5845 180.97 54.6842C181.097 54.7838 181.244 54.8662 181.413 54.9314C181.582 54.9927 181.758 55.0233 181.942 55.0233C182.122 55.0233 182.289 54.9984 182.442 54.9486C182.599 54.895 182.727 54.8145 182.827 54.7072C182.927 54.5999 182.977 54.4715 182.977 54.322C182.977 54.1534 182.919 54.0231 182.804 53.9311C182.693 53.8353 182.553 53.7625 182.384 53.7127C182.216 53.6629 182.047 53.615 181.879 53.569C181.503 53.4847 181.158 53.3697 180.844 53.224C180.533 53.0746 180.286 52.8849 180.102 52.6549C179.918 52.4212 179.826 52.1357 179.826 51.7984C179.826 51.4305 179.924 51.1124 180.12 50.8441C180.319 50.5721 180.581 50.3632 180.907 50.2176C181.233 50.0719 181.58 49.9991 181.948 49.9991C182.407 49.9991 182.829 50.0968 183.212 50.2923C183.595 50.4877 183.889 50.756 184.092 51.0971L183.143 51.6604C183.086 51.5455 183 51.442 182.885 51.35C182.77 51.258 182.639 51.1852 182.494 51.1316C182.348 51.0741 182.197 51.0415 182.04 51.0339C181.844 51.0262 181.662 51.0492 181.493 51.1028C181.329 51.1527 181.196 51.2331 181.097 51.3443C180.997 51.4554 180.947 51.5972 180.947 51.7697C180.947 51.9383 181.007 52.0648 181.126 52.1491C181.244 52.2295 181.394 52.2947 181.574 52.3445C181.758 52.3943 181.946 52.4499 182.137 52.5112C182.478 52.6185 182.798 52.7508 183.097 52.9079C183.396 53.0612 183.638 53.2509 183.822 53.477C184.006 53.7031 184.094 53.979 184.086 54.3048C184.086 54.665 183.977 54.9812 183.758 55.2533C183.544 55.5254 183.264 55.7323 182.919 55.8741C182.574 56.0159 182.208 56.0753 181.821 56.0523ZM187.274 56.0926C186.745 56.0926 186.262 55.9565 185.825 55.6844C185.392 55.4123 185.045 55.0483 184.785 54.5922C184.528 54.1323 184.4 53.6245 184.4 53.0688C184.4 52.6473 184.474 52.2545 184.624 51.8904C184.773 51.5225 184.978 51.2006 185.239 50.9246C185.503 50.6449 185.81 50.4264 186.159 50.2693C186.508 50.1122 186.879 50.0336 187.274 50.0336C187.715 50.0336 188.119 50.1256 188.487 50.3095C188.855 50.4897 189.169 50.7407 189.43 51.0626C189.69 51.3807 189.882 51.7486 190.005 52.1663C190.127 52.5802 190.164 53.0209 190.114 53.4885H185.682C185.731 53.7529 185.827 53.9924 185.969 54.2071C186.115 54.4178 186.299 54.5845 186.521 54.7072C186.747 54.8298 186.998 54.893 187.274 54.8969C187.565 54.8969 187.83 54.8241 188.067 54.6784C188.309 54.5328 188.506 54.3316 188.659 54.0748L189.872 54.3565C189.642 54.8662 189.296 55.2839 188.832 55.6097C188.368 55.9316 187.849 56.0926 187.274 56.0926ZM185.641 52.5745H188.907C188.868 52.2985 188.771 52.0494 188.613 51.8272C188.46 51.601 188.267 51.4228 188.033 51.2925C187.803 51.1584 187.55 51.0913 187.274 51.0913C187.002 51.0913 186.749 51.1565 186.515 51.2868C186.285 51.4171 186.094 51.5953 185.94 51.8214C185.791 52.0437 185.691 52.2947 185.641 52.5745ZM195.299 50.1946H196.495V55.9431H195.294L195.248 55.1096C195.079 55.4047 194.851 55.6423 194.564 55.8224C194.28 56.0025 193.943 56.0926 193.552 56.0926C193.126 56.0926 192.728 56.014 192.356 55.8569C191.988 55.6959 191.663 55.4737 191.379 55.1901C191.099 54.9065 190.879 54.5807 190.718 54.2128C190.561 53.8411 190.482 53.4425 190.482 53.0171C190.482 52.607 190.559 52.2219 190.712 51.8616C190.865 51.4976 191.078 51.1795 191.35 50.9074C191.622 50.6353 191.937 50.4226 192.293 50.2693C192.653 50.1122 193.038 50.0336 193.448 50.0336C193.866 50.0336 194.234 50.1294 194.552 50.321C194.874 50.5088 195.138 50.7503 195.345 51.0453L195.299 50.1946ZM193.581 54.9371C193.926 54.9371 194.223 54.8509 194.472 54.6784C194.725 54.506 194.914 54.2741 195.041 53.9829C195.171 53.6916 195.227 53.3697 195.207 53.0171C195.184 52.6799 195.094 52.3733 194.937 52.0973C194.784 51.8214 194.579 51.603 194.322 51.442C194.065 51.2772 193.774 51.1948 193.448 51.1948C193.107 51.1948 192.799 51.281 192.523 51.4535C192.251 51.626 192.04 51.8578 191.891 52.1491C191.741 52.4403 191.676 52.7642 191.695 53.1206C191.718 53.454 191.818 53.7587 191.994 54.0346C192.174 54.3105 192.402 54.5309 192.678 54.6957C192.958 54.8566 193.259 54.9371 193.581 54.9371ZM200.966 51.396C200.867 51.3347 200.758 51.2868 200.639 51.2523C200.524 51.214 200.397 51.1948 200.259 51.1948C199.96 51.1948 199.7 51.2734 199.478 51.4305C199.255 51.5876 199.081 51.8003 198.954 52.0686C198.832 52.3369 198.77 52.6339 198.77 52.9596V55.9431H197.569V50.1946H198.765V50.9706C198.964 50.6832 199.205 50.4571 199.489 50.2923C199.776 50.1237 200.096 50.0394 200.449 50.0394C200.579 50.0394 200.702 50.0451 200.817 50.0566C200.936 50.0681 201.049 50.0911 201.156 50.1256L200.966 51.396ZM205.085 54.3105L206.154 54.8911C205.894 55.2552 205.562 55.5465 205.16 55.7649C204.761 55.9834 204.328 56.0926 203.861 56.0926C203.332 56.0926 202.849 55.9565 202.412 55.6844C201.979 55.4123 201.632 55.0483 201.372 54.5922C201.115 54.1323 200.987 53.6245 200.987 53.0688C200.987 52.6473 201.061 52.2545 201.211 51.8904C201.36 51.5225 201.565 51.2006 201.826 50.9246C202.09 50.6449 202.397 50.4264 202.746 50.2693C203.094 50.1122 203.466 50.0336 203.861 50.0336C204.328 50.0336 204.761 50.1428 205.16 50.3613C205.562 50.5797 205.894 50.8729 206.154 51.2408L205.085 51.8214C204.924 51.6298 204.737 51.4842 204.522 51.3845C204.307 51.281 204.087 51.2293 203.861 51.2293C203.547 51.2293 203.261 51.3155 203.004 51.488C202.751 51.6566 202.55 51.8808 202.401 52.1606C202.255 52.4365 202.182 52.7393 202.182 53.0688C202.182 53.3946 202.257 53.6973 202.406 53.9771C202.556 54.253 202.757 54.4753 203.01 54.6439C203.267 54.8126 203.55 54.8969 203.861 54.8969C204.098 54.8969 204.325 54.8432 204.539 54.7359C204.754 54.6286 204.936 54.4868 205.085 54.3105ZM212.107 52.9366V55.9431H210.911V52.9596C210.911 52.6339 210.842 52.3369 210.704 52.0686C210.57 51.8003 210.39 51.5876 210.164 51.4305C209.938 51.2734 209.687 51.1948 209.411 51.1948C209.112 51.1948 208.857 51.2734 208.646 51.4305C208.435 51.5876 208.272 51.8003 208.157 52.0686C208.046 52.3369 207.991 52.6339 207.991 52.9596V55.9431H206.789V47.3203H207.985V50.8671C208.146 50.5567 208.357 50.3421 208.617 50.2233C208.882 50.1007 209.185 50.0394 209.526 50.0394C210.043 50.0394 210.493 50.1716 210.877 50.436C211.26 50.7004 211.559 51.053 211.773 51.4937C211.988 51.9306 212.099 52.4116 212.107 52.9366Z" fill="#1A1A1A"/>
<path fill-rule="evenodd" clip-rule="evenodd" d="M152.895 52.3522C152.895 32.1455 169.354 15.709 189.561 15.709C209.768 15.709 226.204 32.1455 226.204 52.3522C226.204 72.5818 209.768 89.0183 189.561 89.0183C169.354 89.0183 152.895 72.5818 152.895 52.3522ZM223.951 52.3522C223.951 33.3869 208.526 17.9618 189.561 17.9618C170.596 17.9618 155.148 33.3869 155.148 52.3522C155.148 71.3174 170.596 86.7655 189.561 86.7655C208.526 86.7655 223.951 71.3174 223.951 52.3522Z" fill="white"/>
<path fill-rule="evenodd" clip-rule="evenodd" d="M126.121 184.189C126.243 185.793 126.743 187.349 127.586 188.728L136.282 183.415L127.64 178.013C126.731 179.468 126.205 181.126 126.108 182.833H100.866C100.498 182.833 100.199 183.132 100.199 183.5C100.199 183.891 100.498 184.189 100.866 184.189H126.121Z" fill="#0F89FF"/>
<path d="M22.8671 169.937C22.8671 169.891 22.8747 169.837 22.89 169.776L22.913 169.707C29.1888 146.995 49.9012 131.202 73.3031 131.202C77.9927 131.202 82.6823 131.846 87.257 133.11C96.0844 135.547 104.153 140.259 110.544 146.765C110.82 147.018 110.797 147.455 110.544 147.73C110.268 147.983 109.854 147.983 109.579 147.707C103.349 141.386 95.5097 136.788 86.8892 134.42C82.4524 133.179 77.8778 132.558 73.3031 132.558C50.4988 132.558 30.3152 147.937 24.2463 169.96C24.1544 170.328 23.7636 170.627 23.3958 170.512C23.0969 170.443 22.8671 170.213 22.8671 169.937ZM36.0163 219.844C36.0163 219.66 36.0623 219.5 36.2002 219.362C36.4761 219.086 36.9128 219.109 37.1657 219.362C43.3955 225.66 51.2115 230.235 59.8091 232.603C64.2458 233.821 68.7975 234.442 73.3721 234.442C96.1764 234.442 116.36 219.063 122.429 197.063C122.544 196.695 122.912 196.442 123.279 196.534C123.647 196.626 123.877 196.971 123.762 197.316L123.119 197.155L123.739 197.408C117.509 220.028 96.7971 235.798 73.3721 235.798C68.6825 235.798 63.9929 235.177 59.4413 233.913C50.6368 231.476 42.5909 226.787 36.2002 220.327C36.0623 220.189 36.0163 220.005 36.0163 219.844Z" fill="#B4DAFF"/>
<path d="M30.476 194.075C30.476 193.753 30.6829 193.477 30.9817 193.408C31.3495 193.316 31.7173 193.546 31.8093 193.891C33.6023 201.155 37.3264 207.845 42.5448 213.247C50.6826 221.683 61.625 226.327 73.3489 226.327C84.4982 226.327 95.0498 222.051 103.073 214.304C103.349 214.051 103.808 214.005 104.084 214.281C104.337 214.557 104.383 214.925 104.107 215.201L104.015 215.27C95.7394 223.27 84.843 227.66 73.3489 227.66C61.2571 227.66 49.9699 222.879 41.5793 214.189C36.177 208.603 32.361 201.707 30.499 194.236C30.4836 194.174 30.476 194.121 30.476 194.075ZM42.4298 152.236C42.4298 152.075 42.4988 151.914 42.6137 151.776C42.6367 151.776 42.6827 151.73 42.6827 151.73C50.9355 143.753 61.8319 139.34 73.3489 139.34C85.4407 139.34 96.7279 144.144 105.119 152.834C110.475 158.397 114.314 165.27 116.176 172.719C116.268 173.086 116.038 173.454 115.693 173.546C115.325 173.638 114.958 173.431 114.866 173.063C113.05 165.845 109.348 159.179 104.153 153.776C95.9923 145.34 85.0729 140.696 73.3489 140.696C62.1997 140.696 51.6251 144.972 43.6022 152.719C43.3494 152.972 42.8896 152.995 42.6367 152.719C42.4988 152.581 42.4298 152.397 42.4298 152.236Z" fill="#B4DAFF"/>
<path d="M73.349 219.04C53.7171 219.04 37.8092 203.132 37.8092 183.5C37.8092 163.891 53.7171 147.984 73.349 147.984C92.9579 147.984 108.866 163.891 108.866 183.5C108.866 203.132 92.9579 219.04 73.349 219.04Z" fill="#B4DAFF"/>
<path d="M44.6156 187.091L42.5576 179.043H43.7936L45.2997 184.947L46.8001 179.043H47.8866L49.3927 184.947L50.8931 179.043H52.129L50.0825 187.091H48.7086L47.3404 181.762L45.9895 187.091H44.6156ZM52.644 181.342H53.8397V187.091H52.644V181.342ZM53.2476 180.394C53.0674 180.394 52.9161 180.334 52.7934 180.216C52.6708 180.097 52.6095 179.947 52.6095 179.767C52.6095 179.591 52.6708 179.443 52.7934 179.325C52.9161 179.202 53.0674 179.141 53.2476 179.141C53.4239 179.141 53.5733 179.202 53.696 179.325C53.8186 179.443 53.8799 179.591 53.8799 179.767C53.8799 179.947 53.8186 180.097 53.696 180.216C53.5733 180.334 53.4239 180.394 53.2476 180.394ZM58.7035 182.544C58.6039 182.483 58.4947 182.435 58.3758 182.4C58.2609 182.362 58.1344 182.343 57.9964 182.343C57.6975 182.343 57.4369 182.421 57.2146 182.578C56.9924 182.735 56.818 182.948 56.6915 183.216C56.5689 183.485 56.5076 183.782 56.5076 184.107V187.091H55.3061V181.342H56.5018V182.118C56.7011 181.831 56.9425 181.605 57.2261 181.44C57.5136 181.271 57.8336 181.187 58.1861 181.187C58.3164 181.187 58.4391 181.193 58.5541 181.204C58.6729 181.216 58.7859 181.239 58.8932 181.273L58.7035 182.544ZM61.5979 187.24C61.0691 187.24 60.5862 187.104 60.1493 186.832C59.7163 186.56 59.3694 186.196 59.1088 185.74C58.8521 185.28 58.7237 184.772 58.7237 184.217C58.7237 183.795 58.7984 183.402 58.9479 183.038C59.0973 182.67 59.3024 182.348 59.563 182.072C59.8274 181.793 60.134 181.574 60.4827 181.417C60.8315 181.26 61.2032 181.181 61.5979 181.181C62.0387 181.181 62.443 181.273 62.8109 181.457C63.1788 181.637 63.4931 181.889 63.7537 182.21C64.0143 182.529 64.2059 182.896 64.3285 183.314C64.4511 183.728 64.4876 184.169 64.4377 184.636H60.0056C60.0554 184.901 60.1512 185.14 60.293 185.355C60.4387 185.566 60.6226 185.732 60.8449 185.855C61.071 185.978 61.322 186.041 61.5979 186.045C61.8892 186.045 62.1536 185.972 62.3912 185.826C62.6327 185.681 62.8301 185.479 62.9833 185.223L64.1963 185.504C63.9664 186.014 63.6195 186.432 63.1558 186.758C62.6921 187.079 62.1728 187.24 61.5979 187.24ZM59.9654 183.722H63.2305C63.1922 183.446 63.0945 183.197 62.9374 182.975C62.7841 182.749 62.5905 182.571 62.3568 182.44C62.1268 182.306 61.8739 182.239 61.5979 182.239C61.3258 182.239 61.0729 182.304 60.8391 182.435C60.6092 182.565 60.4176 182.743 60.2643 182.969C60.1148 183.192 60.0152 183.443 59.9654 183.722ZM66.6775 180.037V181.342H68.2985V182.538H66.6775V187.091H65.4818V182.538H64.7977V181.342H65.4818V180.037C65.4818 179.723 65.5584 179.438 65.7117 179.181C65.865 178.92 66.07 178.713 66.3268 178.56C66.5874 178.407 66.8767 178.33 67.1948 178.33C67.4248 178.33 67.649 178.376 67.8674 178.468C68.0859 178.56 68.2813 178.702 68.4538 178.894L67.5972 179.739C67.5551 179.67 67.4957 179.618 67.419 179.583C67.3462 179.545 67.2715 179.526 67.1948 179.526C67.053 179.526 66.9304 179.576 66.8269 179.675C66.7273 179.775 66.6775 179.896 66.6775 180.037ZM72.5171 182.544C72.4175 182.483 72.3083 182.435 72.1895 182.4C72.0745 182.362 71.948 182.343 71.8101 182.343C71.5111 182.343 71.2505 182.421 71.0282 182.578C70.806 182.735 70.6316 182.948 70.5051 183.216C70.3825 183.485 70.3212 183.782 70.3212 184.107V187.091H69.1197V181.342H70.3154V182.118C70.5147 181.831 70.7561 181.605 71.0397 181.44C71.3272 181.271 71.6472 181.187 71.9998 181.187C72.1301 181.187 72.2527 181.193 72.3677 181.204C72.4865 181.216 72.5995 181.239 72.7068 181.273L72.5171 182.544ZM77.4178 181.342H78.6135V187.091H77.412L77.3661 186.257C77.1974 186.552 76.9694 186.79 76.682 186.97C76.3984 187.15 76.0611 187.24 75.6702 187.24C75.2448 187.24 74.8463 187.162 74.4745 187.005C74.1066 186.844 73.7809 186.621 73.4973 186.338C73.2175 186.054 72.9972 185.729 72.8362 185.361C72.6791 184.989 72.6005 184.59 72.6005 184.165C72.6005 183.755 72.6772 183.37 72.8305 183.009C72.9837 182.645 73.1964 182.327 73.4685 182.055C73.7406 181.783 74.0549 181.57 74.4113 181.417C74.7715 181.26 75.1567 181.181 75.5668 181.181C75.9845 181.181 76.3524 181.277 76.6705 181.469C76.9924 181.657 77.2568 181.898 77.4638 182.193L77.4178 181.342ZM75.699 186.085C76.0439 186.085 76.3409 185.999 76.59 185.826C76.8429 185.654 77.0326 185.422 77.1591 185.131C77.2894 184.839 77.345 184.518 77.3258 184.165C77.3028 183.828 77.2128 183.521 77.0556 183.245C76.9023 182.969 76.6973 182.751 76.4405 182.59C76.1838 182.425 75.8925 182.343 75.5668 182.343C75.2257 182.343 74.9172 182.429 74.6412 182.601C74.3691 182.774 74.1584 183.006 74.0089 183.297C73.8594 183.588 73.7943 183.912 73.8135 184.268C73.8364 184.602 73.9361 184.906 74.1124 185.182C74.2925 185.458 74.5205 185.679 74.7965 185.844C75.0762 186.004 75.3771 186.085 75.699 186.085ZM79.4976 187.091V181.342H80.6933V182.038C80.8773 181.812 81.0708 181.628 81.2739 181.486C81.4809 181.34 81.7262 181.268 82.0098 181.268C82.4313 181.268 82.805 181.363 83.1307 181.555C83.4603 181.743 83.7362 182.005 83.9585 182.343C84.1808 182.002 84.4567 181.737 84.7863 181.549C85.1197 181.362 85.4915 181.268 85.9015 181.268C86.3959 181.268 86.8309 181.392 87.2065 181.641C87.582 181.89 87.8771 182.222 88.0917 182.636C88.3063 183.046 88.4137 183.498 88.4137 183.992V187.091H87.218V183.992C87.218 183.709 87.1624 183.452 87.0512 183.222C86.9439 182.992 86.7926 182.808 86.5971 182.67C86.4017 182.532 86.1698 182.463 85.9015 182.463C85.6409 182.463 85.4072 182.532 85.2002 182.67C84.9971 182.808 84.8381 182.992 84.7231 183.222C84.6119 183.452 84.5564 183.709 84.5564 183.992V187.091H83.3607V183.992C83.3607 183.709 83.3032 183.452 83.1882 183.222C83.0732 182.992 82.9142 182.808 82.7111 182.67C82.508 182.532 82.2742 182.463 82.0098 182.463C81.7568 182.463 81.5307 182.536 81.3314 182.682C81.136 182.827 80.9808 183.019 80.8658 183.257C80.7508 183.494 80.6933 183.755 80.6933 184.038V187.091H79.4976ZM89.2994 181.342H90.4951V187.091H89.2994V181.342ZM89.903 180.394C89.7229 180.394 89.5715 180.334 89.4489 180.216C89.3262 180.097 89.2649 179.947 89.2649 179.767C89.2649 179.591 89.3262 179.443 89.4489 179.325C89.5715 179.202 89.7229 179.141 89.903 179.141C90.0793 179.141 90.2288 179.202 90.3514 179.325C90.474 179.443 90.5353 179.591 90.5353 179.767C90.5353 179.947 90.474 180.097 90.3514 180.216C90.2288 180.334 90.0793 180.394 89.903 180.394ZM97.2962 184.079V187.091H96.1005V184.102C96.1005 183.776 96.0315 183.481 95.8936 183.216C95.7594 182.948 95.5736 182.735 95.336 182.578C95.1022 182.417 94.8358 182.337 94.5369 182.337C94.238 182.337 93.9755 182.417 93.7494 182.578C93.5271 182.735 93.3527 182.948 93.2262 183.216C93.1036 183.481 93.0423 183.776 93.0423 184.102V187.091H91.8466V181.342H93.0423V182.118C93.2416 181.827 93.483 181.599 93.7666 181.434C94.0502 181.266 94.3702 181.181 94.7266 181.181C95.244 181.181 95.6924 181.314 96.0718 181.578C96.455 181.843 96.7539 182.193 96.9686 182.63C97.1832 183.067 97.2924 183.55 97.2962 184.079ZM102.445 181.342H103.641V187.24C103.641 187.635 103.557 187.999 103.388 188.333C103.223 188.666 102.999 188.953 102.715 189.195C102.432 189.44 102.106 189.63 101.738 189.764C101.374 189.898 100.993 189.965 100.594 189.965C100.192 189.965 99.8047 189.879 99.433 189.707C99.0613 189.538 98.7336 189.308 98.45 189.017C98.1702 188.725 97.9614 188.396 97.8234 188.028L98.9214 187.534C98.998 187.771 99.1207 187.982 99.2893 188.166C99.4618 188.35 99.661 188.496 99.8871 188.603C100.117 188.71 100.353 188.764 100.594 188.764C100.832 188.764 101.06 188.725 101.278 188.649C101.501 188.576 101.698 188.473 101.87 188.338C102.047 188.204 102.187 188.043 102.29 187.855C102.394 187.668 102.445 187.463 102.445 187.24V186.269C102.257 186.56 102.016 186.796 101.721 186.976C101.426 187.152 101.083 187.24 100.692 187.24C100.286 187.24 99.9025 187.162 99.5422 187.005C99.182 186.848 98.8658 186.631 98.5937 186.355C98.3216 186.075 98.1089 185.753 97.9556 185.389C97.8023 185.025 97.7257 184.634 97.7257 184.217C97.7257 183.799 97.8023 183.408 97.9556 183.044C98.1089 182.676 98.3216 182.354 98.5937 182.078C98.8658 181.798 99.182 181.58 99.5422 181.423C99.9025 181.266 100.286 181.187 100.692 181.187C101.083 181.187 101.426 181.277 101.721 181.457C102.016 181.634 102.257 181.869 102.445 182.164V181.342ZM100.703 186.085C101.037 186.085 101.328 186.001 101.577 185.832C101.826 185.66 102.02 185.432 102.158 185.148C102.296 184.864 102.365 184.554 102.365 184.217C102.365 183.872 102.294 183.559 102.152 183.28C102.014 182.996 101.821 182.77 101.571 182.601C101.322 182.429 101.033 182.343 100.703 182.343C100.382 182.343 100.086 182.427 99.8182 182.596C99.5537 182.764 99.3429 182.99 99.1858 183.274C99.0287 183.557 98.9501 183.872 98.9501 184.217C98.9501 184.562 99.0287 184.876 99.1858 185.159C99.3468 185.443 99.5595 185.669 99.8239 185.838C100.092 186.003 100.385 186.085 100.703 186.085Z" fill="#1A1A1A"/>
<path fill-rule="evenodd" clip-rule="evenodd" d="M36.6828 183.5C36.6828 163.293 53.1424 146.857 73.349 146.857C93.5556 146.857 109.992 163.293 109.992 183.5C109.992 203.729 93.5556 220.166 73.349 220.166C53.1424 220.166 36.6828 203.729 36.6828 183.5ZM107.739 183.5C107.739 164.535 92.3143 149.11 73.349 149.11C54.3837 149.11 38.9357 164.535 38.9357 183.5C38.9357 202.465 54.3837 217.913 73.349 217.913C92.3143 217.913 107.739 202.465 107.739 183.5Z" fill="white"/>
<path d="M218.84 183.554C218.84 183.186 219.139 182.887 219.507 182.887H252.908C253.276 182.887 253.598 183.186 253.598 183.554C253.598 183.945 253.276 184.244 252.908 184.244H219.507C219.139 184.244 218.84 183.945 218.84 183.554Z" fill="#0F89FF"/>
<path d="M141.508 169.991C141.508 169.945 141.515 169.891 141.531 169.83L141.554 169.761C147.829 147.049 168.542 131.256 191.944 131.256C196.633 131.256 201.323 131.9 205.898 133.164C214.725 135.601 222.794 140.313 229.185 146.819C229.46 147.072 229.438 147.509 229.185 147.784C228.909 148.037 228.495 148.037 228.219 147.761C221.989 141.44 214.15 136.842 205.53 134.474C201.093 133.233 196.518 132.612 191.944 132.612C169.139 132.612 148.956 147.991 142.887 170.014C142.795 170.382 142.404 170.681 142.036 170.566C141.738 170.497 141.508 170.267 141.508 169.991ZM154.657 219.898C154.657 219.715 154.703 219.554 154.841 219.416C155.117 219.14 155.553 219.163 155.806 219.416C162.036 225.714 169.852 230.289 178.45 232.657C182.886 233.875 187.438 234.496 192.013 234.496C214.817 234.496 235.001 219.117 241.07 197.117C241.184 196.749 241.552 196.496 241.92 196.588C242.288 196.68 242.518 197.025 242.403 197.37L241.759 197.209L242.38 197.462C236.15 220.082 215.438 235.852 192.013 235.852C187.323 235.852 182.634 235.232 178.082 233.967C169.277 231.53 161.232 226.841 154.841 220.381C154.703 220.243 154.657 220.059 154.657 219.898Z" fill="#B4DAFF"/>
<path d="M149.117 194.129C149.117 193.807 149.324 193.531 149.623 193.462C149.991 193.37 150.358 193.6 150.45 193.945C152.243 201.209 155.968 207.899 161.186 213.301C169.324 221.738 180.266 226.381 191.99 226.381C203.139 226.381 213.691 222.106 221.714 214.359C221.99 214.106 222.449 214.06 222.725 214.336C222.978 214.611 223.024 214.979 222.748 215.255L222.656 215.324C214.381 223.324 203.484 227.715 191.99 227.715C179.898 227.715 168.611 222.933 160.22 214.244C154.818 208.657 151.002 201.761 149.14 194.29C149.125 194.229 149.117 194.175 149.117 194.129ZM161.071 152.29C161.071 152.13 161.14 151.969 161.255 151.831C161.278 151.831 161.324 151.785 161.324 151.785C169.577 143.808 180.473 139.394 191.99 139.394C204.082 139.394 215.369 144.199 223.76 152.888C229.116 158.451 232.955 165.325 234.817 172.773C234.909 173.141 234.679 173.509 234.334 173.6C233.966 173.692 233.599 173.486 233.507 173.118C231.691 165.899 227.99 159.233 222.794 153.831C214.633 145.394 203.714 140.75 191.99 140.75C180.841 140.75 170.266 145.026 162.243 152.773C161.99 153.026 161.531 153.049 161.278 152.773C161.14 152.635 161.071 152.451 161.071 152.29Z" fill="#B4DAFF"/>
<path d="M191.99 219.094C172.358 219.094 156.45 203.187 156.45 183.555C156.45 163.946 172.358 148.038 191.99 148.038C211.599 148.038 227.507 163.946 227.507 183.555C227.507 203.187 211.599 219.094 191.99 219.094Z" fill="#B4DAFF"/>
<path d="M175.562 187.091V179.043H178.223C178.779 179.043 179.3 179.149 179.787 179.359C180.274 179.566 180.701 179.856 181.069 180.227C181.437 180.595 181.724 181.023 181.931 181.509C182.142 181.992 182.247 182.512 182.247 183.067C182.247 183.623 182.142 184.144 181.931 184.631C181.724 185.114 181.437 185.541 181.069 185.913C180.701 186.281 180.274 186.57 179.787 186.781C179.3 186.988 178.779 187.091 178.223 187.091H175.562ZM176.757 185.895H178.223C178.614 185.895 178.978 185.823 179.316 185.677C179.657 185.531 179.957 185.328 180.218 185.068C180.482 184.807 180.688 184.506 180.833 184.165C180.979 183.824 181.052 183.458 181.052 183.067C181.052 182.676 180.979 182.31 180.833 181.969C180.688 181.628 180.482 181.327 180.218 181.067C179.957 180.806 179.657 180.603 179.316 180.457C178.978 180.312 178.614 180.239 178.223 180.239H176.757V185.895ZM185.368 187.241C184.839 187.241 184.356 187.105 183.919 186.833C183.486 186.56 183.139 186.196 182.879 185.74C182.622 185.28 182.494 184.773 182.494 184.217C182.494 183.795 182.568 183.403 182.718 183.038C182.867 182.671 183.072 182.349 183.333 182.073C183.597 181.793 183.904 181.574 184.253 181.417C184.601 181.26 184.973 181.182 185.368 181.182C185.809 181.182 186.213 181.274 186.581 181.458C186.949 181.638 187.263 181.889 187.523 182.211C187.784 182.529 187.976 182.897 188.098 183.314C188.221 183.728 188.257 184.169 188.208 184.637H183.775C183.825 184.901 183.921 185.141 184.063 185.355C184.208 185.566 184.392 185.733 184.615 185.855C184.841 185.978 185.092 186.041 185.368 186.045C185.659 186.045 185.923 185.972 186.161 185.827C186.403 185.681 186.6 185.48 186.753 185.223L187.966 185.505C187.736 186.014 187.389 186.432 186.926 186.758C186.462 187.08 185.943 187.241 185.368 187.241ZM183.735 183.723H187C186.962 183.447 186.864 183.197 186.707 182.975C186.554 182.749 186.36 182.571 186.127 182.441C185.897 182.306 185.644 182.239 185.368 182.239C185.096 182.239 184.843 182.305 184.609 182.435C184.379 182.565 184.187 182.743 184.034 182.969C183.885 183.192 183.785 183.443 183.735 183.723ZM190.752 187.2C190.449 187.181 190.154 187.12 189.867 187.016C189.579 186.913 189.326 186.773 189.108 186.597C188.893 186.417 188.732 186.206 188.625 185.964L189.643 185.528C189.692 185.631 189.779 185.733 189.901 185.832C190.028 185.932 190.175 186.014 190.344 186.079C190.512 186.141 190.689 186.171 190.873 186.171C191.053 186.171 191.22 186.147 191.373 186.097C191.53 186.043 191.658 185.963 191.758 185.855C191.858 185.748 191.907 185.62 191.907 185.47C191.907 185.301 191.85 185.171 191.735 185.079C191.624 184.983 191.484 184.911 191.315 184.861C191.147 184.811 190.978 184.763 190.809 184.717C190.434 184.633 190.089 184.518 189.775 184.372C189.464 184.223 189.217 184.033 189.033 183.803C188.849 183.569 188.757 183.284 188.757 182.946C188.757 182.579 188.855 182.26 189.05 181.992C189.25 181.72 189.512 181.511 189.838 181.366C190.164 181.22 190.511 181.147 190.878 181.147C191.338 181.147 191.76 181.245 192.143 181.44C192.526 181.636 192.82 181.904 193.023 182.245L192.074 182.809C192.017 182.694 191.93 182.59 191.815 182.498C191.7 182.406 191.57 182.333 191.425 182.28C191.279 182.222 191.128 182.19 190.97 182.182C190.775 182.174 190.593 182.197 190.424 182.251C190.26 182.301 190.127 182.381 190.028 182.492C189.928 182.603 189.878 182.745 189.878 182.918C189.878 183.086 189.938 183.213 190.056 183.297C190.175 183.378 190.325 183.443 190.505 183.493C190.689 183.542 190.877 183.598 191.068 183.659C191.409 183.767 191.729 183.899 192.028 184.056C192.327 184.209 192.569 184.399 192.752 184.625C192.936 184.851 193.025 185.127 193.017 185.453C193.017 185.813 192.908 186.129 192.689 186.401C192.475 186.673 192.195 186.88 191.85 187.022C191.505 187.164 191.139 187.223 190.752 187.2ZM193.653 181.343H194.849V187.091H193.653V181.343ZM194.257 180.394C194.077 180.394 193.925 180.335 193.803 180.216C193.68 180.097 193.619 179.948 193.619 179.768C193.619 179.591 193.68 179.444 193.803 179.325C193.925 179.202 194.077 179.141 194.257 179.141C194.433 179.141 194.582 179.202 194.705 179.325C194.828 179.444 194.889 179.591 194.889 179.768C194.889 179.948 194.828 180.097 194.705 180.216C194.582 180.335 194.433 180.394 194.257 180.394ZM200.735 181.343H201.93V187.241C201.93 187.635 201.846 187.999 201.678 188.333C201.513 188.666 201.289 188.954 201.005 189.195C200.721 189.44 200.396 189.63 200.028 189.764C199.664 189.898 199.282 189.965 198.884 189.965C198.481 189.965 198.094 189.879 197.723 189.707C197.351 189.538 197.023 189.308 196.74 189.017C196.46 188.726 196.251 188.396 196.113 188.028L197.211 187.534C197.288 187.771 197.41 187.982 197.579 188.166C197.751 188.35 197.951 188.496 198.177 188.603C198.407 188.71 198.642 188.764 198.884 188.764C199.121 188.764 199.349 188.726 199.568 188.649C199.79 188.576 199.987 188.473 200.16 188.339C200.336 188.204 200.476 188.044 200.58 187.856C200.683 187.668 200.735 187.463 200.735 187.241V186.269C200.547 186.56 200.306 186.796 200.01 186.976C199.715 187.153 199.372 187.241 198.981 187.241C198.575 187.241 198.192 187.162 197.832 187.005C197.471 186.848 197.155 186.631 196.883 186.355C196.611 186.076 196.398 185.754 196.245 185.39C196.092 185.026 196.015 184.635 196.015 184.217C196.015 183.799 196.092 183.408 196.245 183.044C196.398 182.676 196.611 182.354 196.883 182.078C197.155 181.799 197.471 181.58 197.832 181.423C198.192 181.266 198.575 181.187 198.981 181.187C199.372 181.187 199.715 181.277 200.01 181.458C200.306 181.634 200.547 181.87 200.735 182.165V181.343ZM198.993 186.085C199.326 186.085 199.618 186.001 199.867 185.832C200.116 185.66 200.309 185.432 200.447 185.148C200.585 184.865 200.654 184.554 200.654 184.217C200.654 183.872 200.583 183.56 200.442 183.28C200.304 182.996 200.11 182.77 199.861 182.602C199.612 182.429 199.323 182.343 198.993 182.343C198.671 182.343 198.376 182.427 198.108 182.596C197.843 182.764 197.632 182.991 197.475 183.274C197.318 183.558 197.24 183.872 197.24 184.217C197.24 184.562 197.318 184.876 197.475 185.16C197.636 185.443 197.849 185.669 198.113 185.838C198.382 186.003 198.675 186.085 198.993 186.085ZM208.343 184.079V187.091H207.147V184.102C207.147 183.776 207.078 183.481 206.94 183.217C206.806 182.948 206.62 182.736 206.382 182.579C206.149 182.418 205.882 182.337 205.583 182.337C205.285 182.337 205.022 182.418 204.796 182.579C204.574 182.736 204.399 182.948 204.273 183.217C204.15 183.481 204.089 183.776 204.089 184.102V187.091H202.893V181.343H204.089V182.119C204.288 181.827 204.53 181.599 204.813 181.435C205.097 181.266 205.417 181.182 205.773 181.182C206.291 181.182 206.739 181.314 207.118 181.578C207.502 181.843 207.8 182.193 208.015 182.63C208.23 183.067 208.339 183.55 208.343 184.079Z" fill="#1A1A1A"/>
<path fill-rule="evenodd" clip-rule="evenodd" d="M155.324 183.554C155.324 163.348 171.783 146.911 191.99 146.911C212.197 146.911 228.633 163.348 228.633 183.554C228.633 203.784 212.197 220.22 191.99 220.22C171.783 220.22 155.324 203.784 155.324 183.554ZM226.38 183.554C226.38 164.589 210.955 149.164 191.99 149.164C173.025 149.164 157.577 164.589 157.577 183.554C157.577 202.519 173.025 217.968 191.99 217.968C210.955 217.968 226.38 202.519 226.38 183.554Z" fill="white"/>
<path d="M20.4374 301.139C20.4374 301.093 20.445 301.039 20.4603 300.978L20.4833 300.909C26.7591 278.196 47.4715 262.404 70.8734 262.404C75.563 262.404 80.2526 263.047 84.8273 264.312C93.6548 266.748 101.724 271.461 108.114 277.967C108.39 278.219 108.367 278.656 108.114 278.932C107.838 279.185 107.425 279.185 107.149 278.909C100.919 272.587 93.0801 267.99 84.4595 265.622C80.0228 264.381 75.4481 263.76 70.8734 263.76C48.0692 263.76 27.8855 279.139 21.8167 301.162C21.7247 301.529 21.3339 301.828 20.9661 301.713C20.6672 301.644 20.4374 301.415 20.4374 301.139ZM33.5866 351.046C33.5866 350.862 33.6326 350.701 33.7705 350.563C34.0464 350.287 34.4831 350.31 34.736 350.563C40.9658 356.862 48.7818 361.437 57.3794 363.804C61.8161 365.023 66.3678 365.644 70.9424 365.644C93.7467 365.644 113.93 350.264 119.999 328.265C120.114 327.897 120.482 327.644 120.85 327.736C121.218 327.828 121.447 328.173 121.333 328.518L120.689 328.357L121.31 328.61C115.08 351.23 94.3674 367 70.9424 367C66.2528 367 61.5632 366.379 57.0116 365.115C48.2071 362.678 40.1612 357.988 33.7705 351.529C33.6326 351.391 33.5866 351.207 33.5866 351.046Z" fill="#B4DAFF"/>
<path d="M28.0463 325.276C28.0463 324.954 28.2532 324.679 28.552 324.61C28.9198 324.518 29.2876 324.748 29.3796 325.092C31.1727 332.357 34.8968 339.046 40.1151 344.448C48.2529 352.885 59.1953 357.529 70.9193 357.529C82.0685 357.529 92.6201 353.253 100.643 345.506C100.919 345.253 101.379 345.207 101.654 345.483C101.907 345.759 101.953 346.127 101.677 346.402L101.586 346.471C93.3098 354.471 82.4133 358.862 70.9193 358.862C58.8275 358.862 47.5403 354.08 39.1496 345.391C33.7473 339.805 29.9313 332.908 28.0693 325.437C28.0539 325.376 28.0463 325.322 28.0463 325.276ZM40.0001 283.438C40.0001 283.277 40.0691 283.116 40.184 282.978C40.207 282.978 40.253 282.932 40.253 282.932C48.5058 274.955 59.4022 270.541 70.9193 270.541C83.011 270.541 94.2982 275.346 102.689 284.035C108.045 289.599 111.884 296.472 113.746 303.92C113.838 304.288 113.608 304.656 113.264 304.748C112.896 304.84 112.528 304.633 112.436 304.265C110.62 297.047 106.919 290.38 101.723 284.978C93.5626 276.541 82.6432 271.898 70.9193 271.898C59.77 271.898 49.1954 276.173 41.1725 283.921C40.9197 284.173 40.4599 284.196 40.207 283.921C40.0691 283.783 40.0001 283.599 40.0001 283.438Z" fill="#B4DAFF"/>
<path d="M70.9193 350.242C51.2874 350.242 35.3795 334.334 35.3795 314.702C35.3795 295.093 51.2874 279.185 70.9193 279.185C90.5282 279.185 106.436 295.093 106.436 314.702C106.436 334.334 90.5282 350.242 70.9193 350.242Z" fill="#B4DAFF"/>
<path d="M48.085 318.293L45.1648 310.245H46.4352L48.8381 316.873L51.2468 310.245H52.5172L49.5912 318.293H48.085ZM56.7548 312.544H57.9505V318.293H56.7491L56.7031 317.459C56.5344 317.754 56.3064 317.992 56.019 318.172C55.7354 318.352 55.3981 318.442 55.0072 318.442C54.5818 318.442 54.1833 318.364 53.8115 318.206C53.4436 318.045 53.1179 317.823 52.8343 317.54C52.5545 317.256 52.3342 316.93 52.1732 316.562C52.0161 316.191 51.9375 315.792 51.9375 315.367C51.9375 314.957 52.0142 314.571 52.1675 314.211C52.3207 313.847 52.5334 313.529 52.8055 313.257C53.0776 312.985 53.3919 312.772 53.7483 312.619C54.1085 312.462 54.4937 312.383 54.9038 312.383C55.3215 312.383 55.6894 312.479 56.0075 312.671C56.3294 312.858 56.5938 313.1 56.8008 313.395L56.7548 312.544ZM55.036 317.287C55.3809 317.287 55.6779 317.2 55.927 317.028C56.1799 316.855 56.3696 316.624 56.4961 316.332C56.6264 316.041 56.682 315.719 56.6628 315.367C56.6398 315.029 56.5498 314.723 56.3926 314.447C56.2393 314.171 56.0343 313.952 55.7775 313.791C55.5208 313.627 55.2295 313.544 54.9038 313.544C54.5627 313.544 54.2542 313.631 53.9782 313.803C53.7061 313.975 53.4954 314.207 53.3459 314.499C53.1964 314.79 53.1313 315.114 53.1505 315.47C53.1735 315.803 53.2731 316.108 53.4494 316.384C53.6295 316.66 53.8575 316.88 54.1335 317.045C54.4132 317.206 54.7141 317.287 55.036 317.287ZM59.0933 318.293V309.67H60.2833V318.293H59.0933ZM61.4283 312.544H62.624V318.293H61.4283V312.544ZM62.0319 311.596C61.8517 311.596 61.7004 311.536 61.5777 311.417C61.4551 311.299 61.3938 311.149 61.3938 310.969C61.3938 310.793 61.4551 310.645 61.5777 310.526C61.7004 310.404 61.8517 310.342 62.0319 310.342C62.2081 310.342 62.3576 310.404 62.4802 310.526C62.6029 310.645 62.6642 310.793 62.6642 310.969C62.6642 311.149 62.6029 311.299 62.4802 311.417C62.3576 311.536 62.2081 311.596 62.0319 311.596ZM68.6134 309.67H69.8091V318.293H68.6134V317.448C68.4257 317.746 68.1804 317.988 67.8776 318.172C67.5749 318.352 67.2204 318.442 66.8142 318.442C66.3964 318.442 66.0055 318.364 65.6414 318.206C65.2774 318.049 64.9555 317.833 64.6757 317.557C64.3998 317.277 64.1832 316.955 64.0261 316.591C63.869 316.227 63.7904 315.836 63.7904 315.418C63.7904 315.001 63.869 314.61 64.0261 314.246C64.1832 313.878 64.3998 313.556 64.6757 313.28C64.9555 313 65.2774 312.782 65.6414 312.625C66.0055 312.467 66.3964 312.389 66.8142 312.389C67.2204 312.389 67.5749 312.481 67.8776 312.665C68.1804 312.845 68.4257 313.082 68.6134 313.378V309.67ZM66.8256 317.287C67.1629 317.287 67.458 317.204 67.7109 317.039C67.9639 316.871 68.1593 316.645 68.2973 316.361C68.4391 316.077 68.51 315.763 68.51 315.418C68.51 315.07 68.4391 314.753 68.2973 314.47C68.1555 314.186 67.9581 313.962 67.7052 313.797C67.4561 313.629 67.1629 313.544 66.8256 313.544C66.4922 313.544 66.1876 313.629 65.9116 313.797C65.6395 313.966 65.4211 314.192 65.2563 314.476C65.0953 314.759 65.0149 315.073 65.0149 315.418C65.0149 315.767 65.0973 316.083 65.262 316.367C65.4307 316.647 65.651 316.871 65.9231 317.039C66.1991 317.204 66.4999 317.287 66.8256 317.287ZM75.4199 312.544H76.6156V318.293H75.4142L75.3682 317.459C75.1996 317.754 74.9716 317.992 74.6841 318.172C74.4005 318.352 74.0633 318.442 73.6724 318.442C73.247 318.442 72.8484 318.364 72.4767 318.206C72.1088 318.045 71.783 317.823 71.4994 317.54C71.2197 317.256 70.9993 316.93 70.8384 316.562C70.6812 316.191 70.6027 315.792 70.6027 315.367C70.6027 314.957 70.6793 314.571 70.8326 314.211C70.9859 313.847 71.1986 313.529 71.4707 313.257C71.7428 312.985 72.057 312.772 72.4135 312.619C72.7737 312.462 73.1589 312.383 73.5689 312.383C73.9866 312.383 74.3545 312.479 74.6726 312.671C74.9946 312.858 75.259 313.1 75.4659 313.395L75.4199 312.544ZM73.7011 317.287C74.046 317.287 74.3431 317.2 74.5922 317.028C74.8451 316.855 75.0348 316.624 75.1613 316.332C75.2916 316.041 75.3471 315.719 75.328 315.367C75.305 315.029 75.2149 314.723 75.0578 314.447C74.9045 314.171 74.6995 313.952 74.4427 313.791C74.1859 313.627 73.8947 313.544 73.5689 313.544C73.2278 313.544 72.9193 313.631 72.6434 313.803C72.3713 313.975 72.1605 314.207 72.0111 314.499C71.8616 314.79 71.7964 315.114 71.8156 315.47C71.8386 315.803 71.9382 316.108 72.1145 316.384C72.2947 316.66 72.5227 316.88 72.7986 317.045C73.0784 317.206 73.3792 317.287 73.7011 317.287ZM80.7247 313.74H79.5175L79.5118 318.293H78.3161L78.3218 313.74H77.4078V312.544H78.3218L78.3161 310.739H79.5118L79.5175 312.544H80.7247V313.74ZM81.2049 312.544H82.4006V318.293H81.2049V312.544ZM81.8085 311.596C81.6284 311.596 81.477 311.536 81.3544 311.417C81.2318 311.299 81.1705 311.149 81.1705 310.969C81.1705 310.793 81.2318 310.645 81.3544 310.526C81.477 310.404 81.6284 310.342 81.8085 310.342C81.9848 310.342 82.1343 310.404 82.2569 310.526C82.3796 310.645 82.4409 310.793 82.4409 310.969C82.4409 311.149 82.3796 311.299 82.2569 311.417C82.1343 311.536 81.9848 311.596 81.8085 311.596ZM86.4414 318.442C85.9125 318.442 85.4296 318.306 84.9927 318.034C84.5597 317.762 84.2129 317.398 83.9523 316.942C83.6955 316.482 83.5671 315.974 83.5671 315.418C83.5671 314.997 83.6418 314.604 83.7913 314.24C83.9408 313.872 84.1458 313.55 84.4064 313.274C84.6708 312.994 84.9774 312.776 85.3262 312.619C85.6749 312.462 86.0466 312.383 86.4414 312.383C86.9702 312.383 87.4512 312.519 87.8843 312.791C88.3212 313.063 88.668 313.429 88.9248 313.889C89.1854 314.349 89.3157 314.859 89.3157 315.418C89.3157 315.836 89.2409 316.227 89.0915 316.591C88.942 316.955 88.735 317.277 88.4706 317.557C88.21 317.833 87.9053 318.049 87.5566 318.206C87.2117 318.364 86.8399 318.442 86.4414 318.442ZM86.4414 317.246C86.7595 317.246 87.045 317.162 87.2979 316.993C87.5508 316.825 87.7501 316.603 87.8958 316.327C88.0452 316.047 88.12 315.744 88.12 315.418C88.12 315.085 88.0433 314.778 87.89 314.499C87.7405 314.219 87.5394 313.997 87.2864 313.832C87.0335 313.663 86.7518 313.579 86.4414 313.579C86.1271 313.579 85.8416 313.663 85.5848 313.832C85.3319 314 85.1307 314.225 84.9812 314.504C84.8356 314.784 84.7628 315.089 84.7628 315.418C84.7628 315.759 84.8394 316.068 84.9927 316.344C85.146 316.62 85.3492 316.84 85.6021 317.005C85.8589 317.166 86.1386 317.246 86.4414 317.246ZM95.2771 315.28V318.293H94.0814V315.303C94.0814 314.978 94.0124 314.683 93.8745 314.418C93.7403 314.15 93.5545 313.937 93.3169 313.78C93.0831 313.619 92.8167 313.539 92.5178 313.539C92.2189 313.539 91.9564 313.619 91.7303 313.78C91.508 313.937 91.3336 314.15 91.2071 314.418C91.0845 314.683 91.0232 314.978 91.0232 315.303V318.293H89.8275V312.544H91.0232V313.32C91.2225 313.029 91.4639 312.801 91.7475 312.636C92.0311 312.467 92.3511 312.383 92.7075 312.383C93.2249 312.383 93.6733 312.515 94.0527 312.78C94.4359 313.044 94.7348 313.395 94.9494 313.832C95.1641 314.269 95.2733 314.751 95.2771 315.28Z" fill="#1A1A1A"/>
<path fill-rule="evenodd" clip-rule="evenodd" d="M34.2532 314.702C34.2532 294.495 50.7127 278.058 70.9193 278.058C91.1259 278.058 107.562 294.495 107.562 314.702C107.562 334.931 91.1259 351.368 70.9193 351.368C50.7127 351.368 34.2532 334.931 34.2532 314.702ZM105.31 314.702C105.31 295.736 89.8846 280.311 70.9193 280.311C51.9541 280.311 36.506 295.736 36.506 314.702C36.506 333.667 51.9541 349.115 70.9193 349.115C89.8846 349.115 105.31 333.667 105.31 314.702Z" fill="white"/>
<path fill-rule="evenodd" clip-rule="evenodd" d="M125.641 46.1247L124.954 45.6954L124.525 46.3822C123.442 48.1145 122.863 50.1141 122.853 52.1569C122.842 54.1997 123.401 56.2051 124.466 57.9483L124.888 58.6394L125.579 58.2171L134.275 52.904L135.393 52.2208L134.282 51.5261L125.641 46.1247ZM124.472 52.1651C124.48 50.6941 124.833 49.2494 125.499 47.9461L132.312 52.2051L125.456 56.3944C124.803 55.0843 124.465 53.6361 124.472 52.1651ZM226.959 52.2379C226.512 52.2379 226.149 52.6005 226.149 53.0478C226.149 53.4951 226.512 53.8577 226.959 53.8577H256.925V115.409H74.7001H73.8902V116.219V138.195C72.4501 138.329 71.0497 138.768 69.7847 139.489L73.8902 146.69V146.995C73.8902 147.378 74.1562 147.699 74.5136 147.783L74.8323 148.342L80.4927 139.868C79.0072 138.876 77.2887 138.292 75.51 138.174V117.029H257.735H258.545V116.219V53.0478V52.2379H257.735H226.959Z" fill="#0F89FF"/>
<path fill-rule="evenodd" clip-rule="evenodd" d="M226.959 182.63C226.512 182.63 226.149 182.992 226.149 183.44C226.149 183.887 226.512 184.25 226.959 184.25H256.925V245.801H74.7001H73.8902V246.611V268.587C72.4501 268.72 71.0497 269.16 69.7847 269.881L73.8902 277.081V277.387C73.8902 277.77 74.1563 278.091 74.5137 278.175L74.8323 278.734L80.4927 270.26C79.0072 269.267 77.2887 268.684 75.51 268.566V247.421H257.735H258.545V246.611V183.44V182.63H257.735H226.959Z" fill="#0F89FF"/>
</svg>
