<svg width="12" height="13" viewBox="0 0 12 13" fill="none" xmlns="http://www.w3.org/2000/svg">
<path d="M0.785889 7.67525C0.785889 10.5379 3.08294 12.8407 5.93982 12.8407C8.79671 12.8407 11.0938 10.5379 11.0938 7.67525C11.0938 7.33474 10.8571 7.09233 10.5166 7.09233C10.1876 7.09233 9.96832 7.33474 9.96832 7.67525C9.96832 9.91459 8.17339 11.7095 5.93982 11.7095C3.70626 11.7095 1.9171 9.91459 1.9171 7.67525C1.9171 5.42438 3.69472 3.64099 5.92251 3.64099C6.30343 3.64099 6.65549 3.66984 6.94983 3.73333L5.37999 5.29163C5.2761 5.40129 5.22416 5.52249 5.22416 5.67255C5.22416 5.98998 5.46079 6.23238 5.77245 6.23238C5.93405 6.23238 6.0668 6.18044 6.16491 6.07655L8.53699 3.68716C8.65819 3.56596 8.71591 3.42744 8.71591 3.27161C8.71591 3.12155 8.65242 2.97149 8.53699 2.85606L6.16491 0.449355C6.0668 0.339697 5.93405 0.281982 5.77245 0.281982C5.46079 0.281982 5.22416 0.535928 5.22416 0.847588C5.22416 0.997646 5.2761 1.13039 5.37422 1.23428L6.77092 2.61366C6.51697 2.56172 6.22263 2.53286 5.92251 2.53286C3.0714 2.53286 0.785889 4.81837 0.785889 7.67525Z" fill="#2D3039" fill-opacity="0.6"/>
</svg>
