<svg width="62" height="12" viewBox="0 0 62 12" fill="none" xmlns="http://www.w3.org/2000/svg">
<path fill-rule="evenodd" clip-rule="evenodd" d="M15.4788 1.39795H14.5687C14.0661 1.39795 13.6587 1.80539 13.6587 2.308V10.1951C13.6587 10.6977 14.0661 11.1051 14.5687 11.1051H15.4788C15.9814 11.1051 16.3888 10.6977 16.3888 10.1951V2.308C16.3888 1.80539 15.9814 1.39795 15.4788 1.39795ZM10.3215 3.52155H11.2316C11.7342 3.52155 12.1416 3.92899 12.1416 4.4316V10.1952C12.1416 10.6978 11.7342 11.1053 11.2316 11.1053H10.3215C9.81891 11.1053 9.41147 10.6978 9.41147 10.1952V4.4316C9.41147 3.92899 9.81891 3.52155 10.3215 3.52155ZM6.98482 5.64514H6.07477C5.57216 5.64514 5.16472 6.05259 5.16472 6.55519V10.1954C5.16472 10.698 5.57216 11.1054 6.07477 11.1054H6.98482C7.48742 11.1054 7.89487 10.698 7.89487 10.1954V6.55519C7.89487 6.05259 7.48742 5.64514 6.98482 5.64514ZM2.73807 7.46524H1.82802C1.32541 7.46524 0.917969 7.87268 0.917969 8.37529V10.1954C0.917969 10.698 1.32541 11.1054 1.82802 11.1054H2.73807C3.24067 11.1054 3.64812 10.698 3.64812 10.1954V8.37529C3.64812 7.87268 3.24067 7.46524 2.73807 7.46524Z" fill="black"/>
<path fill-rule="evenodd" clip-rule="evenodd" d="M27.8887 3.33469C29.9052 3.33478 31.8447 4.10963 33.3062 5.49909C33.4162 5.60636 33.5921 5.60501 33.7005 5.49605L34.7525 4.43433C34.8074 4.37907 34.838 4.30422 34.8376 4.22633C34.8371 4.14845 34.8056 4.07396 34.7501 4.01935C30.9142 0.34316 24.8625 0.34316 21.0266 4.01935C20.971 4.07392 20.9395 4.14839 20.939 4.22627C20.9385 4.30415 20.969 4.37903 21.0238 4.43433L22.0762 5.49605C22.1845 5.60517 22.3605 5.60652 22.4705 5.49909C23.9322 4.10953 25.8719 3.33468 27.8887 3.33469ZM27.8886 6.78897C28.9966 6.78891 30.065 7.20073 30.8863 7.94443C30.9974 8.04998 31.1724 8.04769 31.2806 7.93928L32.3314 6.87755C32.3868 6.82186 32.4175 6.74631 32.4167 6.66781C32.4159 6.5893 32.3837 6.51439 32.3272 6.45984C29.8262 4.13341 25.9531 4.13341 23.4521 6.45984C23.3956 6.51439 23.3634 6.58934 23.3626 6.66787C23.3619 6.7464 23.3927 6.82194 23.4481 6.87755L24.4986 7.93928C24.6069 8.04769 24.7819 8.04998 24.893 7.94443C25.7138 7.20123 26.7813 6.78943 27.8886 6.78897ZM29.994 9.11285C29.9956 9.19157 29.9647 9.26748 29.9085 9.32263L28.0908 11.157C28.0375 11.2109 27.9649 11.2412 27.8891 11.2412C27.8133 11.2412 27.7406 11.2109 27.6874 11.157L25.8694 9.32263C25.8132 9.26743 25.7823 9.19151 25.784 9.11278C25.7857 9.03406 25.8197 8.95951 25.8782 8.90674C27.039 7.9249 28.7392 7.9249 29.9 8.90674C29.9584 8.95955 29.9924 9.03412 29.994 9.11285Z" fill="black"/>
<path opacity="0.4" fill-rule="evenodd" clip-rule="evenodd" d="M41.815 2.00478H56.9825C57.8201 2.00478 58.4992 2.68385 58.4992 3.52152V8.98182C58.4992 9.8195 57.8202 10.4986 56.9825 10.4986H41.815C40.9773 10.4986 40.2982 9.8195 40.2982 8.98182V3.52152C40.2982 2.68385 40.9773 2.00478 41.815 2.00478ZM39.3882 3.52152C39.3882 2.18124 40.4747 1.09473 41.815 1.09473H56.9825C58.3228 1.09473 59.4093 2.18124 59.4093 3.52152V8.98182C59.4093 10.3221 58.3228 11.4086 56.9825 11.4086H41.815C40.4747 11.4086 39.3882 10.3221 39.3882 8.98182V3.52152ZM61.5277 6.25157C61.5277 7.04616 61.0515 7.76336 60.3191 8.07167V4.43147C61.0515 4.73977 61.5277 5.45697 61.5277 6.25157Z" fill="black"/>
<rect x="41.208" y="2.91504" width="16.3809" height="6.6737" rx="1.2134" fill="black"/>
</svg>
