<svg width="12" height="12" viewBox="0 0 12 12" fill="none" xmlns="http://www.w3.org/2000/svg">
<rect opacity="0.01" x="11.9998" width="12" height="12" transform="rotate(90 11.9998 0)" fill="#1A1A1A"/>
<path d="M8.77965 10.5C8.69969 10.5003 8.62082 10.4814 8.54965 10.445L5.99965 9.10998L3.44965 10.445C3.28072 10.5338 3.07595 10.5187 2.92186 10.4061C2.76778 10.2934 2.69127 10.1029 2.72465 9.91498L3.22465 7.09998L1.16465 5.09998C1.03368 4.96928 0.985592 4.77694 1.03965 4.59998C1.09877 4.41869 1.25586 4.28681 1.44465 4.25998L4.29465 3.84498L5.54965 1.27998C5.63319 1.10748 5.80799 0.997925 5.99965 0.997925C6.19131 0.997925 6.36611 1.10748 6.44965 1.27998L7.71965 3.83998L10.5696 4.25498C10.7584 4.28181 10.9155 4.41369 10.9747 4.59498C11.0287 4.77194 10.9806 4.96428 10.8497 5.09498L8.78965 7.09498L9.28965 9.90998C9.3261 10.1014 9.24804 10.2965 9.08965 10.41C8.99911 10.4734 8.89009 10.5051 8.77965 10.5V10.5Z" fill="#FEFEFE"/>
</svg>
