<svg width="26" height="10" viewBox="0 0 26 10" fill="none" xmlns="http://www.w3.org/2000/svg">
<path d="M4.27637 0.287109C2.32919 0.287109 0.941895 1.61841 0.941895 3.44118V3.45362C0.941895 5.15818 2.14878 6.41483 3.872 6.41483C5.10377 6.41483 5.88762 5.78651 6.21734 5.07731H6.34176C6.34176 5.14574 6.33554 5.21417 6.33554 5.2826C6.2671 6.99961 5.66366 8.39312 4.23905 8.39312C3.44897 8.39312 2.8953 7.98254 2.6589 7.35421L2.64024 7.292H1.06009L1.07254 7.36043C1.3587 8.73528 2.59047 9.71198 4.23905 9.71198C6.49728 9.71198 7.85969 7.92033 7.85969 4.8969V4.88446C7.85969 1.64952 6.19245 0.287109 4.27637 0.287109ZM4.27015 5.18307C3.2499 5.18307 2.5096 4.43654 2.5096 3.39763V3.38519C2.5096 2.3836 3.29967 1.59353 4.28881 1.59353C5.28418 1.59353 6.06181 2.39604 6.06181 3.42251V3.43496C6.06181 4.44898 5.28418 5.18307 4.27015 5.18307Z" fill="black"/>
<path d="M10.4292 3.67136C11.0016 3.67136 11.4184 3.23588 11.4184 2.68843C11.4184 2.13476 11.0016 1.70551 10.4292 1.70551C9.86311 1.70551 9.44008 2.13476 9.44008 2.68843C9.44008 3.23588 9.86311 3.67136 10.4292 3.67136ZM10.4292 8.28737C11.0016 8.28737 11.4184 7.85811 11.4184 7.30444C11.4184 6.75077 11.0016 6.32152 10.4292 6.32152C9.86311 6.32152 9.44008 6.75077 9.44008 7.30444C9.44008 7.85811 9.86311 8.28737 10.4292 8.28737Z" fill="black"/>
<path d="M17.3535 9.48803H18.8901V7.7648H20.097V6.43972H18.8901V0.511067H16.6194C15.4001 2.36494 14.1248 4.43032 12.9614 6.45216V7.7648H17.3535V9.48803ZM14.4545 6.47704V6.38373C15.3254 4.85957 16.3643 3.19856 17.2851 1.7926H17.3784V6.47704H14.4545Z" fill="black"/>
<path d="M23.5623 9.48803H25.1674V0.511067H23.5686L21.2232 2.15964V3.67136L23.4566 2.09121H23.5623V9.48803Z" fill="black"/>
</svg>
